<svg enable-background="new 0 0 2048 2048" viewBox="0 0 2048 2048" xmlns="http://www.w3.org/2000/svg"><g id="_x31_4479_-_Delivery_Box_Rejected"><g><g><path d="m1594.4 1186.895c-13.255 0-24-10.745-24-24v-473.54h-472c-13.255 0-24-10.745-24-24s10.745-24 24-24h496c13.255 0 24 10.745 24 24v497.539c0 13.255-10.745 24.001-24 24.001z" fill="rgb(0,0,0)"/></g><g><path d="m1627.26 689.355h-528.86c-13.255 0-24-10.745-24-24s10.745-24 24-24h528.859c9.672 0 17.54-7.869 17.54-17.54v-90.52c0-9.671-7.868-17.54-17.54-17.54h-1305.719c-9.671 0-17.54 7.869-17.54 17.54v90.52c0 9.671 7.869 17.54 17.54 17.54h528.86c13.255 0 24 10.745 24 24s-10.745 24-24 24h-528.86c-36.139 0-65.54-29.401-65.54-65.54v-90.52c0-36.139 29.401-65.54 65.54-65.54h1305.72c36.139 0 65.54 29.401 65.54 65.54v90.52c0 36.139-29.402 65.54-65.54 65.54z" fill="rgb(0,0,0)"/></g><g><path d="m1569.6 1582.155c-59.405 0-115.255-23.134-157.261-65.14-42.005-42.006-65.139-97.855-65.139-157.261s23.134-115.255 65.14-157.26c42.005-42.006 97.854-65.14 157.26-65.14s115.255 23.134 157.261 65.14c42.006 42.005 65.14 97.854 65.14 157.26s-23.134 115.255-65.14 157.261-97.856 65.14-157.261 65.14zm0-396.8c-96.164 0-174.399 78.235-174.399 174.399 0 96.165 78.235 174.4 174.399 174.4 96.165 0 174.4-78.235 174.4-174.4 0-96.163-78.235-174.399-174.4-174.399z" fill="rgb(0,0,0)"/></g><g><path d="m1499.455 1453.9c-6.143 0-12.284-2.343-16.971-7.029-9.372-9.373-9.372-24.568 0-33.941l140.29-140.29c9.373-9.373 24.568-9.373 33.941 0 9.372 9.373 9.372 24.568 0 33.941l-140.29 140.29c-4.686 4.687-10.827 7.029-16.97 7.029z" fill="rgb(0,0,0)"/></g><g><path d="m1639.745 1453.9c-6.143 0-12.284-2.343-16.971-7.029l-140.29-140.29c-9.372-9.373-9.372-24.568 0-33.941 9.373-9.373 24.568-9.373 33.941 0l140.29 140.29c9.372 9.373 9.372 24.568 0 33.941-4.686 4.687-10.827 7.029-16.97 7.029z" fill="rgb(0,0,0)"/></g><g><path d="m1073.91 844.291c-8.585 0-17.157-2.334-24.924-6.995l-74.343-44.605c-.15-.091-.337-.09-.487 0l-74.342 44.605c-15.174 9.104-33.425 9.334-48.824.616-15.398-8.719-24.591-24.488-24.591-42.183v-303.974c0-13.255 10.745-24 24-24h248c13.255 0 24 10.745 24 24v303.974c0 17.695-9.193 33.464-24.591 42.183-7.515 4.255-15.712 6.379-23.898 6.379zm-99.51-99.683c8.624 0 17.248 2.308 24.94 6.923l74.342 44.605c.125.075.202.103.221.108.118-.004.413-.171.486-.291-.003 0 .012-.081.012-.225v-279.973h-200v279.974c0 .146.015.226.021.245.064.099.359.266.499.267-.003-.002.074-.03.199-.105l74.341-44.605c7.691-4.615 16.315-6.923 24.939-6.923z" fill="rgb(0,0,0)"/></g><g><path d="m999.2 614.955h-148.8c-13.255 0-24-10.745-24-24s10.745-24 24-24h148.8c13.255 0 24 10.745 24 24s-10.745 24-24 24z" fill="rgb(0,0,0)"/></g><g><path d="m1569.6 1582.155h-1131.376c-59.455 0-107.824-48.37-107.824-107.824v-427.263c0-8.392 4.383-16.173 11.558-20.523 7.176-4.351 16.103-4.638 23.542-.755l102.353 53.394 38.681-77.361c5.165-10.33 16.958-15.516 28.06-12.344l121.142 34.612-45.05-90.101-262.054-64.898c-10.709-2.652-18.231-12.264-18.231-23.296v-180.44c0-13.255 10.745-24 24-24h496c13.255 0 24 10.745 24 24s-10.745 24-24 24h-472v137.659l254.57 63.044c6.819 1.689 12.555 6.28 15.697 12.563l74.4 148.799c4.256 8.513 3.08 18.736-2.998 26.061-6.079 7.324-15.911 10.366-25.062 7.749l-154.448-44.128-40.692 81.385c-2.879 5.757-7.949 10.116-14.073 12.1-6.124 1.982-12.787 1.424-18.494-1.555l-88.9-46.375v387.673c0 32.987 26.837 59.824 59.824 59.824h1131.375c13.255 0 24 10.745 24 24s-10.746 24-24 24z" fill="rgb(0,0,0)"/></g><g><path d="m900 1482.955h-446.4c-13.255 0-24-10.745-24-24v-198.399c0-13.255 10.745-24 24-24h446.4c13.255 0 24 10.745 24 24v198.399c0 13.255-10.745 24-24 24zm-422.4-48h398.4v-150.399h-398.4z" fill="rgb(0,0,0)"/></g><g><path d="m676.8 1482.955c-13.255 0-24-10.745-24-24v-198.399c0-13.255 10.745-24 24-24s24 10.745 24 24v198.399c0 13.255-10.745 24-24 24z" fill="rgb(0,0,0)"/></g><g><path d="m1495.2 986.955h-669.6c-13.255 0-24-10.745-24-24s10.745-24 24-24h669.6c13.255 0 24 10.745 24 24s-10.745 24-24 24z" fill="rgb(0,0,0)"/></g><g><path d="m1495.2 1086.155h-669.6c-13.255 0-24-10.745-24-24s10.745-24 24-24h669.6c13.255 0 24 10.745 24 24s-10.745 24-24 24z" fill="rgb(0,0,0)"/></g><g><path d="m1594.4 1185.355h-768.8c-13.255 0-24-10.745-24-24s10.745-24 24-24h768.8c13.255 0 24 10.745 24 24s-10.745 24-24 24z" fill="rgb(0,0,0)"/></g><g><path d="m1272 1284.556h-272.8c-13.255 0-24-10.745-24-24s10.745-24 24-24h272.8c13.255 0 24 10.745 24 24s-10.745 24-24 24z" fill="rgb(0,0,0)"/></g><g><path d="m1024 1383.755h-24.8c-13.255 0-24-10.745-24-24s10.745-24 24-24h24.8c13.255 0 24 10.745 24 24s-10.745 24-24 24z" fill="rgb(0,0,0)"/></g><g><path d="m1272 1482.955h-272.8c-13.255 0-24-10.745-24-24s10.745-24 24-24h272.8c13.255 0 24 10.745 24 24s-10.745 24-24 24z" fill="rgb(0,0,0)"/></g><g><path d="m1272 1383.755h-148.8c-13.255 0-24-10.745-24-24s10.745-24 24-24h148.8c13.255 0 24 10.745 24 24s-10.745 24-24 24z" fill="rgb(0,0,0)"/></g></g></g><g id="Layer_1"/></svg>