<?xml version="1.0"?>
<svg xmlns="http://www.w3.org/2000/svg" id="Layer_1" data-name="Layer 1" viewBox="0 0 64 64" width="512" height="512"><path d="M58,45.39c.12-.38,0-14,0-14.39a5,5,0,0,0-5-5H46V9a5,5,0,0,0-5-5H36V2a2,2,0,0,0-2-2H18a2,2,0,0,0-2,2V4H11A5,5,0,0,0,6,9V39a5,5,0,0,0,5,5h8V59a5,5,0,0,0,5,5H39a2,2,0,0,0,1.42-.59l17-17A2.11,2.11,0,0,0,58,45.39ZM20,4H32V8H20ZM11,40a1,1,0,0,1-1-1V9a1,1,0,0,1,1-1h5v2a2,2,0,0,0,2,2H34a2,2,0,0,0,2-2V8h5a1,1,0,0,1,1,1V26H24a5,5,0,0,0-5,5v9ZM23,59V31a1,1,0,0,1,1-1H53a1,1,0,0,1,1,1V43H42a5,5,0,0,0-5,5V60H24A1,1,0,0,1,23,59Zm18-1.83V48a1,1,0,0,1,1-1h9.18l-5.09,5.09Z"/><path d="M40,39a2,2,0,1,0,0-4H32a2,2,0,1,0,0,4Z"/><circle cx="47.99" cy="37" r="2"/></svg>
