<svg enable-background="new 0 0 512 512" viewBox="0 0 512 512" xmlns="http://www.w3.org/2000/svg"><g id="_x30_6_Checklist"><g><path d="m56.387 419.862 95.889 27.606c4.813 8.762 14.127 14.716 24.809 14.716h26.308l113.128 32.569c15.054 4.339 30.697-4.363 35.017-19.36l3.803-13.21h92.447c15.6 0 28.291-12.693 28.291-28.293v-295.067c0-1.014-.559-2.576-1.513-3.456l-98.45-90.91c-.935-.864-2.448-1.247-3.19-1.247h-110.422l-90.202-25.97c-14.983-4.324-30.7 4.368-35.015 19.36l-100.26 348.247c-4.315 14.99 4.371 30.698 19.36 35.015zm286.113 52.928c-2.88 10.013-13.37 15.805-23.374 12.925l-81.731-23.53h108.158zm105.289-20.011h-270.703c-10.412 0-18.884-8.472-18.884-18.887v-362.39c0-10.415 8.472-18.887 18.884-18.887h191.138v62.617c0 15.6 12.693 28.293 28.293 28.293h70.157v290.366c-.001 10.416-8.473 18.888-18.885 18.888zm11.56-318.66h-62.833c-10.415 0-18.887-8.472-18.887-18.887v-56.574zm-413.283 253.33 100.26-348.245c2.902-10.076 13.439-15.79 23.374-12.925l58.806 16.93h-51.421c-15.6 0-28.291 12.693-28.291 28.293.054 386.372-.129 362.48.143 365.217l-89.947-25.896c-10.005-2.882-15.803-13.368-12.924-23.374z"/><path d="m217.904 74.786c-20.967 0-38.024 17.056-38.024 38.024s17.056 38.026 38.024 38.026c20.986 0 38.058-17.059 38.058-38.026s-17.072-38.024-38.058-38.024zm0 66.643c-15.779 0-28.617-12.838-28.617-28.619 0-15.779 12.838-28.617 28.617-28.617 15.798 0 28.651 12.838 28.651 28.617.001 15.782-12.853 28.619-28.651 28.619z"/><path d="m231.311 97.384-20.875 20.878-5.904-5.904c-1.837-1.837-4.814-1.837-6.651 0s-1.837 4.814 0 6.651l9.23 9.23c1.833 1.833 4.811 1.84 6.651 0l24.201-24.203c1.837-1.837 1.837-4.814 0-6.651-1.838-1.838-4.815-1.838-6.652-.001z"/><path d="m217.904 168.044c-20.967 0-38.024 17.059-38.024 38.026s17.056 38.024 38.024 38.024c20.986 0 38.058-17.056 38.058-38.024s-17.072-38.026-38.058-38.026zm0 66.643c-15.779 0-28.617-12.838-28.617-28.617 0-15.782 12.838-28.619 28.617-28.619 15.798 0 28.651 12.838 28.651 28.619.001 15.779-12.853 28.617-28.651 28.617z"/><path d="m231.311 190.641-20.875 20.878-5.904-5.904c-1.837-1.837-4.814-1.837-6.651 0s-1.837 4.814 0 6.651l9.23 9.23c1.833 1.833 4.811 1.84 6.651 0l24.201-24.203c1.837-1.837 1.837-4.814 0-6.651-1.838-1.838-4.815-1.838-6.652-.001z"/><path d="m217.904 261.301c-20.967 0-38.024 17.059-38.024 38.026s17.056 38.024 38.024 38.024c20.986 0 38.058-17.056 38.058-38.024s-17.072-38.026-38.058-38.026zm0 66.643c-15.779 0-28.617-12.838-28.617-28.617 0-15.782 12.838-28.619 28.617-28.619 15.798 0 28.651 12.838 28.651 28.619.001 15.779-12.853 28.617-28.651 28.617z"/><path d="m231.311 283.901-20.875 20.875-5.904-5.904c-1.837-1.837-4.814-1.837-6.651 0s-1.837 4.814 0 6.651l9.23 9.23c1.837 1.837 4.813 1.837 6.651 0l24.201-24.201c1.837-1.837 1.837-4.814 0-6.651-1.838-1.837-4.815-1.837-6.652 0z"/><path d="m217.904 354.561c-20.967 0-38.024 17.056-38.024 38.024s17.056 38.024 38.024 38.024c20.986 0 38.058-17.056 38.058-38.024s-17.072-38.024-38.058-38.024zm0 66.64c-15.779 0-28.617-12.838-28.617-28.617s12.838-28.617 28.617-28.617c15.798 0 28.651 12.838 28.651 28.617s-12.853 28.617-28.651 28.617z"/><path d="m231.311 377.158-20.875 20.875-5.904-5.904c-1.837-1.837-4.814-1.837-6.651 0s-1.837 4.814 0 6.651l9.23 9.23c1.837 1.837 4.813 1.837 6.651 0l24.201-24.201c1.837-1.837 1.837-4.814 0-6.651-1.838-1.837-4.815-1.837-6.652 0z"/><path d="m275.398 104.237h76.591c2.597 0 4.703-2.106 4.703-4.703s-2.106-4.703-4.703-4.703h-76.591c-2.597 0-4.703 2.106-4.703 4.703s2.105 4.703 4.703 4.703z"/><path d="m275.398 130.789h38.295c2.597 0 4.703-2.106 4.703-4.703s-2.106-4.703-4.703-4.703h-38.295c-2.597 0-4.703 2.106-4.703 4.703s2.105 4.703 4.703 4.703z"/><path d="m419.475 188.09h-144.077c-2.597 0-4.703 2.106-4.703 4.703s2.106 4.703 4.703 4.703h144.077c2.597 0 4.703-2.106 4.703-4.703s-2.106-4.703-4.703-4.703z"/><path d="m275.398 224.047h72.04c2.597 0 4.703-2.106 4.703-4.703s-2.106-4.703-4.703-4.703h-72.04c-2.597 0-4.703 2.106-4.703 4.703-.001 2.597 2.105 4.703 4.703 4.703z"/><path d="m419.475 281.347h-144.077c-2.597 0-4.703 2.106-4.703 4.703s2.106 4.703 4.703 4.703h144.077c2.597 0 4.703-2.106 4.703-4.703s-2.106-4.703-4.703-4.703z"/><path d="m275.398 317.306h72.04c2.597 0 4.703-2.106 4.703-4.703s-2.106-4.703-4.703-4.703h-72.04c-2.597 0-4.703 2.106-4.703 4.703-.001 2.597 2.105 4.703 4.703 4.703z"/><path d="m419.475 374.605h-144.077c-2.597 0-4.703 2.106-4.703 4.703s2.106 4.703 4.703 4.703h144.077c2.597 0 4.703-2.106 4.703-4.703s-2.106-4.703-4.703-4.703z"/><path d="m347.437 401.157h-72.04c-2.597 0-4.703 2.106-4.703 4.703s2.106 4.703 4.703 4.703h72.04c2.597 0 4.703-2.106 4.703-4.703.001-2.597-2.105-4.703-4.703-4.703z"/></g></g><g id="Layer_1"/></svg>