<?xml version="1.0" encoding="UTF-8"?>
<svg xmlns="http://www.w3.org/2000/svg" viewBox="0 0 64 64" width="512" height="512"><g id="Wallet"><path d="M48,41a3,3,0,1,0,3,3A3.0033,3.0033,0,0,0,48,41Zm0,4a1,1,0,1,1,1-1A1.0009,1.0009,0,0,1,48,45Z"/><path d="M62.623,26.6821a1.0011,1.0011,0,0,0,.1592-1.4052l-17.45-21.9a.9993.9993,0,0,0-1.4052-.1592L36,9.5328V1a1,1,0,0,0-1-1H11a1,1,0,0,0-1,1V16H6a5.0059,5.0059,0,0,0-5,5V57a5.0059,5.0059,0,0,0,5,5h7.41a1,1,0,1,0,0-2H6a3.0033,3.0033,0,0,1-3-3V24.9976A5.231,5.231,0,0,0,6,26H50a3.0335,3.0335,0,0,1,3,3v8H48a7,7,0,0,0,0,14h5v6a3.0033,3.0033,0,0,1-3,3H40.59a1,1,0,0,0,0,2H50a5.0059,5.0059,0,0,0,5-5V51h4a1,1,0,0,0,1-1V38a1,1,0,0,0-1-1H55V32.7521ZM58,49H48a5,5,0,0,1,0-10H58ZM44.3906,5.4053,60.5947,25.7407,55,30.1953V29a5.0511,5.0511,0,0,0-2.5535-4.343,3.9512,3.9512,0,0,1,1.4373-2.5252,1.0008,1.0008,0,0,0,.1582-1.4047l-6.23-7.82a1,1,0,0,0-1.4053-.1592,4.0063,4.0063,0,0,1-5.625-.6308.9995.9995,0,0,0-1.4052-.1587L24.26,24h-3.21C23.5529,22.0066,41.8887,7.3985,44.3906,5.4053ZM34,11.1261,21,21.4827V2H34ZM3,21a3.0033,3.0033,0,0,1,3-3h4v6H6A3.0033,3.0033,0,0,1,3,21Zm9-4V2h2V24H12ZM16,2h3V23.076L17.84,24H16ZM27.4712,24l12.4351-9.9062a6.0182,6.0182,0,0,0,6.913.7763l5.087,6.3862a5.9487,5.9487,0,0,0-1.4014,2.77A4.9638,4.9638,0,0,0,50,24Z"/><path d="M31,9a1,1,0,0,0,1-1V5a1,1,0,0,0-2,0V8A1,1,0,0,0,31,9Z"/><path d="M28,14a1,1,0,0,0,1-1V5a1,1,0,0,0-2,0v8A1,1,0,0,0,28,14Z"/><path d="M33.1992,43H32V41a5,5,0,0,0-10,0v2H20.8a2.9933,2.9933,0,0,0-2.9834,2.686L16.354,59.5815A4,4,0,0,0,20.3325,64H33.668a3.9994,3.9994,0,0,0,3.9775-4.4185l-1.4629-13.896A2.9935,2.9935,0,0,0,33.1992,43ZM24,41a3,3,0,0,1,6,0v2H24ZM35.1543,61.3384A1.9758,1.9758,0,0,1,33.668,62H20.3325a2,2,0,0,1-1.9892-2.2095L19.8062,45.895A.9974.9974,0,0,1,20.8,45H33.1992a.9987.9987,0,0,1,.9951.895l1.4629,13.896A1.9809,1.9809,0,0,1,35.1543,61.3384Z"/><path d="M31,47a1,1,0,0,0-1,1v1a3,3,0,0,1-6,0V48a1,1,0,0,0-2,0v1a5,5,0,0,0,10,0V48A1,1,0,0,0,31,47Z"/></g></svg>
