<?xml version="1.0" encoding="UTF-8"?>
<svg xmlns="http://www.w3.org/2000/svg" xmlns:xlink="http://www.w3.org/1999/xlink" version="1.1" id="Capa_1" x="0px" y="0px" viewBox="0 0 512 512" style="enable-background:new 0 0 512 512;" xml:space="preserve" width="512" height="512">
<g>
	<g>
		<g>
			<g>
				<g>
					<g>
						
							<line style="fill:none;stroke:#000000;stroke-width:20;stroke-linecap:round;stroke-linejoin:round;stroke-miterlimit:10;" x1="371.017" y1="241.469" x2="371.017" y2="163.737"/>
						
							<path style="fill:none;stroke:#000000;stroke-width:20;stroke-linecap:round;stroke-linejoin:round;stroke-miterlimit:10;" d="&#10;&#9;&#9;&#9;&#9;&#9;&#9;&#9;M54.583,163.737v211.595c0,21.236,17.247,38.452,38.522,38.452h239.389c7.648,0,14.775-2.224,20.767-6.06"/>
						
							<line style="fill:none;stroke:#000000;stroke-width:20;stroke-linecap:round;stroke-linejoin:round;stroke-miterlimit:10;" x1="120.15" y1="95" x2="120.15" y2="407.222"/>
						
							<polyline style="fill:none;stroke:#000000;stroke-width:20;stroke-linecap:round;stroke-linejoin:round;stroke-miterlimit:10;" points="&#10;&#9;&#9;&#9;&#9;&#9;&#9;&#9;315.806,300.063 305.463,300.063 178.156,300.063 178.156,412.771 &#9;&#9;&#9;&#9;&#9;&#9;"/>
					</g>
				</g>
			</g>
			<g>
				<path style="fill:none;stroke:#000000;stroke-width:20;stroke-linecap:round;stroke-linejoin:round;stroke-miterlimit:10;" d="&#10;&#9;&#9;&#9;&#9;&#9;M120.15,88.082h227.412c13.587,0,26.169,7.144,33.112,18.802l31.834,53.449H163.183L120.15,88.082z"/>
			</g>
			<g>
				<path style="fill:none;stroke:#000000;stroke-width:20;stroke-linecap:round;stroke-linejoin:round;stroke-miterlimit:10;" d="&#10;&#9;&#9;&#9;&#9;&#9;M74.946,88.082h46.038l-43.033,72.251H10l31.834-53.449C48.777,95.226,61.36,88.082,74.946,88.082z"/>
			</g>
		</g>
	</g>
	<g>
		<g>
			
				<ellipse style="fill:none;stroke:#000000;stroke-width:20;stroke-linecap:round;stroke-linejoin:round;stroke-miterlimit:10;" cx="407.49" cy="329.581" rx="94.51" ry="94.338"/>
		</g>
		<g>
			
				<line style="fill:none;stroke:#000000;stroke-width:20;stroke-linecap:round;stroke-linejoin:round;stroke-miterlimit:10;" x1="424.509" y1="312.566" x2="390.471" y2="346.595"/>
			
				<line style="fill:none;stroke:#000000;stroke-width:20;stroke-linecap:round;stroke-linejoin:round;stroke-miterlimit:10;" x1="424.509" y1="346.595" x2="390.471" y2="312.566"/>
		</g>
	</g>
</g>















</svg>
