<svg id="Layer_1" enable-background="new 0 0 512 512" height="512" viewBox="0 0 512 512" width="512" xmlns="http://www.w3.org/2000/svg"><g><path d="m176 190h140c5.523 0 10-4.477 10-10s-4.477-10-10-10h-140c-5.523 0-10 4.477-10 10s4.477 10 10 10z"/><path d="m176 230h140c5.523 0 10-4.477 10-10s-4.477-10-10-10h-140c-5.523 0-10 4.477-10 10s4.477 10 10 10z"/><path d="m226 250h-50c-5.523 0-10 4.477-10 10s4.477 10 10 10h50c5.523 0 10-4.477 10-10s-4.477-10-10-10z"/><path d="m226 290h-50c-5.523 0-10 4.477-10 10s4.477 10 10 10h50c5.523 0 10-4.477 10-10s-4.477-10-10-10z"/><path d="m176 130h36c5.523 0 10-4.477 10-10s-4.477-10-10-10h-36c-5.523 0-10 4.477-10 10s4.477 10 10 10z"/><path d="m176 90h70c5.523 0 10-4.477 10-10s-4.477-10-10-10h-70c-5.523 0-10 4.477-10 10s4.477 10 10 10z"/><path d="m296 302h120v40h-120z"/><path d="m426 252h-50v-222c0-16.542-13.458-30-30-30h-240c-16.542 0-30 13.458-30 30v10h-10c-5.523 0-10 4.477-10 10s4.477 10 10 10h10v20h-10c-5.523 0-10 4.477-10 10s4.477 10 10 10h10v20h-10c-5.523 0-10 4.477-10 10s4.477 10 10 10h10v20h-10c-5.523 0-10 4.477-10 10s4.477 10 10 10h10v20h-10c-5.523 0-10 4.477-10 10s4.477 10 10 10h10v20h-10c-5.523 0-10 4.477-10 10s4.477 10 10 10h10v20h-10c-5.523 0-10 4.477-10 10s4.477 10 10 10h10v20h-10c-5.523 0-10 4.477-10 10s4.477 10 10 10h10v10c0 16.542 13.458 30 30 30h150v102c0 16.542 13.458 30 30 30h140c16.542 0 30-13.458 30-30v-200c0-16.542-13.458-30-30-30zm-330 98v-320c0-5.514 4.486-10 10-10h20v340h-20c-5.514 0-10-4.486-10-10zm50 10v-340h200c5.514 0 10 4.486 10 10v222h-70c-16.542 0-30 13.458-30 30v78zm290 122c0 5.514-4.486 10-10 10h-140c-5.514 0-10-4.486-10-10v-200c0-5.514 4.486-10 10-10h140c5.514 0 10 4.486 10 10z"/><path d="m406 372h-100c-5.523 0-10 4.477-10 10v80c0 5.523 4.477 10 10 10h100c5.523 0 10-4.477 10-10v-80c0-5.523-4.477-10-10-10zm-10 40h-30v-20h30zm-50-20v20h-30v-20zm-30 40h30v20h-30zm50 20v-20h30v20z"/></g></svg>