<svg clip-rule="evenodd" fill-rule="evenodd" height="512" image-rendering="optimizeQuality" shape-rendering="geometricPrecision" text-rendering="geometricPrecision" viewBox="0 0 7.52 8.26" width="512" xmlns="http://www.w3.org/2000/svg" xmlns:xodm="http://www.corel.com/coreldraw/odm/2003"><g id="Layer_x0020_1"><path d="m3.91 5.51c.88.1 1.43 1 1.14 1.83l2.07-1.03c.06-.03.1-.09.1-.16v-3.99l-3.31 1.65zm1.23-2.64-3.29-1.64-1.38.69 3.29 1.64zm-2.96-1.8 3.29 1.63 1.58-.78-3.21-1.6c-.05-.03-.11-.03-.16 0zm-1.88 1.09v3.99c0 .07.04.13.1.16l2.04 1.01c-.28-.83.28-1.73 1.17-1.81v-1.7zm4.46 5.66c-.56.59-1.51.58-2.05-.03l-2.45-1.21c-.16-.08-.26-.25-.26-.43v-4.04c0-.18.1-.35.26-.43l3.29-1.63c.13-.07.29-.07.42 0l3.28 1.63c.17.08.27.25.27.43v4.04c0 .18-.1.35-.27.43zm-1.02-2.02c.6 0 1.08.49 1.08 1.08s-.48 1.08-1.08 1.08c-.59 0-1.07-.49-1.07-1.08s.48-1.08 1.07-1.08z"/><path d="m4.31 6.88c0 .1-.25.43-.28.49-.12.18-.39 0-.27-.17l.09-.16h-.52c-.21 0-.21-.32 0-.32h.53l-.1-.16c-.12-.17.15-.35.27-.17.05.08.28.4.28.49z"/></g></svg>