<svg id="Layer_1" enable-background="new 0 0 64 64" viewBox="0 0 64 64" xmlns="http://www.w3.org/2000/svg"><path d="m57.980957 11.5766602h-41.472168c-2.2114258 0-4.0102539 1.8071289-4.0102539 4.0283203v1.2851562h-1.7070312c-2.2163086 0-4.0195312 1.8071289-4.0195312 4.0283203v.4501953h-.7436524c-2.2211914 0-4.0283203 1.8027344-4.0283203 4.019043v3.3867188 7.1611328 12.46875c0 2.2163086 1.8071289 4.019043 4.0283203 4.019043h41.4536133c2.2211914 0 4.0283203-1.8027344 4.0283203-4.019043v-.4501953h.7436523c2.2163086 0 4.0195312-1.8071289 4.0195312-4.0283203v-1.2851563h1.7075195c2.2163087 0 4.0190431-1.8027344 4.0190431-4.019043v-23.0166015c0-2.2211914-1.8027344-4.0283203-4.019043-4.0283203zm-51.9526367 11.7919921h1.7436523 39.7099609c1.0375977 0 1.9042969.7729492 2.0136719 1.7729492.0068359.0820312.0146484.1640625.0146484.2460938v2.3867188h-45.5102538v-2.3867188c0-1.1132812.909668-2.019043 2.0283203-2.019043zm-2.0283203 6.4057618h45.5102539v5.1611328h-45.5102539zm45.5102539 18.6298828c0 1.1132812-.909668 2.019043-2.0283203 2.019043h-41.4536133c-1.1186523-.0000001-2.0283203-.9057618-2.0283203-2.019043v-11.46875h45.5102539v10.0185547zm4.7631836-4.4785157c0 1.1186523-.9057617 2.0283203-2.0195312 2.0283203h-.7436523v-10.0185546-7.1611328-3.3867188c0-.1376953-.0097656-.2763672-.0239258-.4384766-.2231445-2.0415039-1.9448242-3.5805664-4.0043945-3.5805664h-38.709961v-.4501953c0-1.1186523.9057617-2.0283203 2.0195312-2.0283203h2.7070312 38.7553711c1.1137695 0 2.0195312.909668 2.0195312 2.0283203v20.722168 2.2851562zm5.7265625-5.3041992c0 1.1132812-.9057617 2.019043-2.019043 2.019043h-1.7075195v-19.722168c0-2.2211914-1.8032227-4.0283203-4.0195312-4.0283203h-37.7553711v-1.2851562c0-1.1186523.9018555-2.0283203 2.0102539-2.0283203h41.472168c1.1132812 0 2.019043.909668 2.019043 2.0283203v23.0166015z"/><path d="m7.9355469 38.3549805c-.7294922 0-1.3227539.5932617-1.3227539 1.3222656 0 .7294922.5932617 1.3227539 1.3227539 1.3227539s1.3227539-.5932617 1.3227539-1.3227539c0-.7290039-.5932617-1.3222656-1.3227539-1.3222656zm0 2c-.3735352 0-.6772461-.3041992-.6772461-.6777344s.3037109-.6772461.6772461-.6772461.6772461.3037109.6772461.6772461-.303711.6777344-.6772461.6777344z"/><path d="m13.8212891 38.3549805c-.7294922 0-1.3227539.5932617-1.3227539 1.3222656 0 .7294922.5932617 1.3227539 1.3227539 1.3227539s1.3227539-.5932617 1.3227539-1.3227539c0-.7290039-.5932618-1.3222656-1.3227539-1.3222656zm0 2c-.3735352 0-.6772461-.3041992-.6772461-.6777344s.3037109-.6772461.6772461-.6772461.6772461.3037109.6772461.6772461-.303711.6777344-.6772461.6777344z"/><path d="m19.7070312 38.3549805c-.7290039 0-1.3222656.5932617-1.3222656 1.3222656 0 .7294922.5932617 1.3227539 1.3222656 1.3227539.7294922 0 1.3227539-.5932617 1.3227539-1.3227539.0000001-.7290039-.5932617-1.3222656-1.3227539-1.3222656zm0 2c-.3735352 0-.6772461-.3041992-.6772461-.6777344s.303711-.6772461.6772461-.6772461.6777344.3037109.6777344.6772461-.3041992.6777344-.6777344.6777344z"/><path d="m29.8388672 40.1450195h11.902832c.5522461 0 1-.4477539 1-1s-.4477539-1-1-1h-11.902832c-.5522461 0-1 .4477539-1 1s.4477539 1 1 1z"/><path d="m46.4355469 42.4838867h-16.5966797c-.5522461 0-1 .4477539-1 1s.4477539 1 1 1h16.5966797c.5522461 0 1-.4477539 1-1s-.4477539-1-1-1z"/><path d="m41.2583008 46.5h-11.4194336c-.5522461 0-1 .4477539-1 1s.4477539 1 1 1h11.4194336c.5522461 0 1-.4477539 1-1s-.4477539-1-1-1z"/></svg>