<svg height="512" viewBox="0 0 64 64" width="512" xmlns="http://www.w3.org/2000/svg"><g id="Layer_31" data-name="Layer 31"><path d="m52.989 12h-3.989v2h6a1 1 0 0 0 1-1v-6h-2v3.162a30.914 30.914 0 0 0 -7.532-5.586l-.936 1.768a28.91 28.91 0 0 1 7.457 5.656z"/><path d="m23.761 4.188-.569-1.918c-.655.194-1.318.414-1.967.655l.693 1.875c.608-.225 1.228-.431 1.843-.612z"/><path d="m27.545 3.34-.305-1.977c-.685.106-1.371.236-2.039.385l.438 1.952c.624-.14 1.261-.262 1.906-.36z"/><path d="m31.409 3.006-.037-2c-.685.013-1.382.05-2.073.11l.174 1.992c.645-.055 1.297-.09 1.936-.102z"/><path d="m13.555 9.619-1.274-1.541c-.531.439-1.053.9-1.554 1.372l1.373 1.455c.469-.444.956-.873 1.455-1.286z"/><path d="m16.7 7.357-1.059-1.7c-.588.367-1.167.755-1.721 1.152l1.166 1.626q.792-.562 1.614-1.078z"/><path d="m10.733 12.282-1.468-1.357c-.475.513-.932 1.04-1.359 1.566l1.555 1.26q.612-.751 1.272-1.469z"/><path d="m20.125 5.534-.818-1.824c-.623.279-1.25.587-1.862.912l.94 1.766c.572-.305 1.158-.588 1.74-.854z"/><path d="m60.616 20.061c-.263-.633-.554-1.269-.864-1.889l-1.789.894c.289.58.561 1.172.808 1.764z"/><path d="m60.767 28.31 1.984-.252c-.088-.689-.2-1.377-.33-2.048l-1.963.385c.123.626.227 1.271.309 1.915z"/><path d="m35.514 1.2c-.678-.076-1.373-.131-2.068-.163l-.092 2c.652.031 1.3.081 1.937.154z"/><path d="m8.288 15.3-1.635-1.153c-.4.565-.78 1.148-1.138 1.736l1.707 1.041c.338-.554.694-1.097 1.066-1.624z"/><path d="m39.6 1.938c-.667-.168-1.35-.316-2.03-.44l-.357 1.969c.636.115 1.274.253 1.9.41z"/><path d="m43.544 3.221c-.639-.255-1.294-.493-1.95-.707l-.619 1.9q.925.3 1.825.662z"/><path d="m60.021 24.5 1.932-.518c-.179-.667-.381-1.335-.6-1.985l-1.893.645q.309.919.561 1.858z"/><path d="m15.065 57.969c.575.375 1.172.738 1.776 1.077l.98-1.742q-.848-.479-1.662-1.009z"/><path d="m42.208 59.152.7 1.873c.639-.239 1.283-.506 1.916-.8l-.824-1.815c-.6.27-1.2.52-1.792.742z"/><path d="m6.267 18.617-1.774-.926c-.319.613-.622 1.244-.9 1.874l1.832.8c.261-.587.543-1.176.842-1.748z"/><path d="m45.731 57.551.95 1.76c.609-.329 1.212-.68 1.791-1.044l-1.065-1.694q-.82.516-1.676.978z"/><path d="m30.779 60.975-.084 2q.65.025 1.305.025.385 0 .77-.009l-.047-2c-.648.016-1.299.009-1.944-.016z"/><path d="m49.016 55.485 1.173 1.615c.556-.4 1.107-.831 1.638-1.273l-1.279-1.537c-.497.418-1.013.818-1.532 1.195z"/><path d="m34.661 60.879.18 1.992c.685-.061 1.378-.148 2.059-.257l-.314-1.974c-.637.1-1.286.181-1.925.239z"/><path d="m62.944 30.124-2 .119q.056.872.056 1.757v.176l2 .031v-.207c0-.63-.019-1.256-.056-1.876z"/><path d="m26.573 62.525c.679.121 1.37.219 2.056.293l.215-1.988c-.641-.069-1.287-.161-1.921-.273z"/><path d="m59.925 39.853 1.926.539c.185-.663.351-1.342.492-2.015l-1.957-.41c-.132.633-.286 1.264-.461 1.886z"/><path d="m52 53 1.381 1.447c.5-.479.992-.977 1.453-1.479l-1.473-1.354q-.661.72-1.361 1.386z"/><path d="m58.626 43.51 1.836.8c.276-.638.532-1.289.761-1.935l-1.885-.675c-.214.605-.453 1.213-.712 1.81z"/><path d="m60.72 36.056 1.98.275c.095-.676.168-1.369.218-2.061l-1.994-.145c-.048.649-.115 1.294-.204 1.931z"/><path d="m56.848 46.961 1.711 1.033c.357-.59.7-1.2 1.013-1.812l-1.772-.916c-.3.572-.619 1.142-.952 1.695z"/><path d="m54.624 50.145 1.559 1.255c.434-.54.853-1.1 1.246-1.661l-1.641-1.144c-.366.521-.758 1.044-1.164 1.55z"/><path d="m38.491 60.271.446 1.949c.675-.154 1.35-.332 2.006-.531l-.576-1.914c-.613.185-1.244.351-1.876.496z"/><path d="m3.516 37.475-1.965.377c.132.686.286 1.366.458 2.023l1.935-.508c-.164-.623-.306-1.255-.428-1.892z"/><path d="m4.5 41.228-1.9.636c.218.651.462 1.3.725 1.944l1.85-.762c-.241-.597-.469-1.203-.675-1.818z"/><path d="m22.547 61.532c.655.21 1.327.4 2 .566l.48-1.942c-.626-.154-1.254-.333-1.867-.528z"/><path d="m3.046 33.627-2 .107c.037.684.1 1.379.183 2.068l1.985-.244c-.077-.644-.134-1.293-.168-1.931z"/><path d="m3.086 29.741-1.994-.152c-.053.686-.083 1.384-.09 2.072l2 .02q.011-.981.084-1.94z"/><path d="m4.708 22.173-1.883-.673c-.233.651-.448 1.317-.637 1.976l1.924.549c.176-.625.376-1.243.596-1.852z"/><path d="m3.642 25.9-1.955-.418c-.144.673-.267 1.36-.366 2.041l1.979.287q.141-.963.342-1.91z"/><path d="m5.978 44.812-1.795.888c.3.615.632 1.23.979 1.827l1.731-1c-.325-.565-.633-1.139-.915-1.715z"/><path d="m8.8 52.561c.459.518.939 1.025 1.428 1.505l1.4-1.423c-.457-.451-.906-.924-1.336-1.409z"/><path d="m11.751 55.474c.521.45 1.065.888 1.615 1.3l1.2-1.6q-.776-.585-1.511-1.22z"/><path d="m18.685 60c.621.3 1.262.576 1.906.83l.734-1.859c-.6-.239-1.2-.5-1.779-.776z"/><path d="m7.92 48.166-1.658 1.117c.387.576.8 1.142 1.213 1.681l1.582-1.225c-.391-.504-.774-1.033-1.137-1.573z"/><path d="m9 32a23 23 0 1 0 23-23 23.025 23.025 0 0 0 -23 23zm23-21a21 21 0 1 1 -21 21 21.024 21.024 0 0 1 21-21z"/><path d="m17 42h20a1 1 0 0 0 1-1v-5h9a1 1 0 0 0 1-1v-12a1 1 0 0 0 -1-1h-20a1 1 0 0 0 -1 1v5h-9a1 1 0 0 0 -1 1v12a1 1 0 0 0 1 1zm1-3.816a3 3 0 0 1 1.816 1.816h-1.816zm3.9-8.184h10.2a5.016 5.016 0 0 0 3.9 3.9v2.2a5.016 5.016 0 0 0 -3.9 3.9h-10.2a5.016 5.016 0 0 0 -3.9-3.9v-2.2a5.016 5.016 0 0 0 3.9-3.9zm14.1 1.816a3 3 0 0 1 -1.816-1.816h1.816zm1-3.816h-1.722a1.994 1.994 0 1 1 2.722 2.722v-1.722a1 1 0 0 0 -1-1zm-2.816 12a3 3 0 0 1 1.816-1.816v1.816zm3.816-7.142a3.992 3.992 0 1 0 -4.858-4.858h-5.142v-.1a5.016 5.016 0 0 0 3.9-3.9h10.2a5.016 5.016 0 0 0 3.9 3.9v2.2a5.016 5.016 0 0 0 -3.9 3.9h-4.1zm6.184 1.142a3 3 0 0 1 1.816-1.816v1.816zm1.816-8.184a3 3 0 0 1 -1.816-1.816h1.816zm-16.184-1.816a3 3 0 0 1 -1.816 1.816v-1.816zm-10 6a3 3 0 0 1 -1.816 1.816v-1.816z"/><path d="m27 39a4 4 0 1 0 -4-4 4 4 0 0 0 4 4zm0-6a2 2 0 1 1 -2 2 2 2 0 0 1 2-2z"/></g></svg>