<svg id="Layer_3" viewBox="0 0 64 64" xmlns="http://www.w3.org/2000/svg" data-name="Layer 3"><path d="m27 33h2v8h-2z"/><path d="m27 43h2v2h-2z"/><path d="m23 33h2v12h-2z"/><path d="m19 33h2v8h-2z"/><path d="m15 33h2v12h-2z"/><path d="m11 33h2v12h-2z"/><path d="m19 43h2v2h-2z"/><path d="m51 16a1 1 0 0 0 -1-1h-4v2h3v3h2z"/><path d="m4 16v4h2v-3h3v-2h-4a1 1 0 0 0 -1 1z"/><path d="m49 22h2v2h-2z"/><path d="m56.707 51.293a1 1 0 0 0 -1.414 0l-.793.793-2.109-2.109a11.942 11.942 0 0 0 -3.391-15.704v-4.273a1 1 0 0 0 -1-1h-40a1 1 0 0 0 -1 1v18a1 1 0 0 0 1 1h23.105a12 12 0 0 0 1.168 2h-29.273v-38h18v13a1 1 0 0 0 1.707.707l1.293-1.293 1.293 1.293a1 1 0 0 0 1.414 0l1.293-1.293 1.293 1.293a1 1 0 0 0 1.414 0l1.293-1.293 1.293 1.293a1 1 0 0 0 .707.293.987.987 0 0 0 .383-.076 1 1 0 0 0 .617-.924v-13h18v22h2v-23a1 1 0 0 0 -.293-.707l-10-10a1 1 0 0 0 -.707-.293h-32a1 1 0 0 0 -.707.293l-10 10a1 1 0 0 0 -.293.707v40a1 1 0 0 0 1 1h32.089a11.92 11.92 0 0 0 13.888 1.391l2.109 2.109-.793.793a1 1 0 0 0 0 1.414l4 4 1.414-1.414-3.293-3.293 4.586-4.586 5.293 5.292 1.414-1.414zm-23.707-27.707-.293-.293a1 1 0 0 0 -1.414 0l-1.293 1.293-1.293-1.293a1 1 0 0 0 -1.414 0l-1.293 1.293-1.293-1.293a1 1 0 0 0 -1.414 0l-.293.293v-10.586h10zm-9.78-12.586 1.6-8h6.36l1.6 8zm28.366 0h-16.766l-1.6-8h10.366zm-39.172-8h10.366l-1.6 8h-16.766zm-3.414 44v-16h38v2.1a11.922 11.922 0 0 0 -14 2.984v-3.084h-2v6.218a11.8 11.8 0 0 0 -.6 7.782zm23-3a10 10 0 1 1 10 10 10.011 10.011 0 0 1 -10-10zm17.651 9.237a12.25 12.25 0 0 0 1.586-1.586l1.849 1.849-1.586 1.586z"/><path d="m42 36a8 8 0 1 0 8 8 8.009 8.009 0 0 0 -8-8zm-1.65 2.236-4.114 4.114a6.017 6.017 0 0 1 4.114-4.114zm1.65 11.764a6.009 6.009 0 0 1 -5.861-4.725l7.136-7.136a5.963 5.963 0 0 1 2.2.976l-3.178 3.178 1.414 1.414 3.178-3.178a5.99 5.99 0 0 1 -4.889 9.471z"/><path d="m39.586 44h2.828v2h-2.828z" transform="matrix(.707 -.707 .707 .707 -19.811 42.172)"/></svg>