<svg id="Layer_1" enable-background="new 0 0 512 512" height="512" viewBox="0 0 512 512" width="512" xmlns="http://www.w3.org/2000/svg"><g><path d="m502 43.013h-52.147v-13.112c-1.513-39.754-58.501-39.724-60 0v13.112h-21.927v-13.112c-1.513-39.755-58.5-39.724-59.999 0v13.112h-21.927v-13.112c-1.513-39.754-58.501-39.724-60 0v13.112h-21.926v-13.112c-1.513-39.754-58.501-39.724-60 0v13.112h-21.926v-13.112c-1.513-39.754-58.501-39.724-60 0v13.112h-52.148c-5.523 0-10 4.478-10 10v448.89c0 5.522 4.477 10 10 10h492c5.522 0 10-4.478 10-10v-448.89c0-5.522-4.478-10-10-10zm-92.148-13.112c.505-13.251 19.5-13.241 20 0v13.112h-20zm-81.926 0c.505-13.251 19.499-13.242 19.999 0v13.112h-19.999zm-81.926 0c.505-13.251 19.5-13.241 20 0v13.112h-20zm-81.926 0c.504-13.251 19.5-13.241 20 0v13.112h-20zm-81.926 0c.504-13.251 19.5-13.241 20 0v13.112h-20zm-20 33.112v13.112c0 16.542 13.458 30 30 30 5.523 0 10-4.478 10-10s-4.477-10-10-10c-5.514 0-10-4.486-10-10v-13.112h61.926v13.112c0 16.542 13.458 30 30 30 5.523 0 10-4.478 10-10s-4.477-10-10-10c-5.514 0-10-4.486-10-10v-13.112h61.926v13.112c0 16.542 13.458 30 30 30 5.522 0 10-4.478 10-10s-4.478-10-10-10c-5.514 0-10-4.486-10-10v-13.112h61.927v13.112c0 16.542 13.458 30 30 30 5.522 0 10-4.478 10-10s-4.478-10-10-10c-5.514 0-10-4.486-10-10v-13.112h61.926v13.112c0 16.542 13.458 30 30 30 5.522 0 10-4.478 10-10s-4.478-10-10-10c-5.514 0-10-4.486-10-10v-13.112h82.147v63.112h-472v-63.112zm-42.148 428.89v-345.777h472v345.777z"/><path d="m379.87 294.376 5.909-22.578c1.136-4.337-.754-8.899-4.623-11.163l-20.144-11.786-3.182-23.121c-.61-4.44-4.103-7.933-8.543-8.543l-23.12-3.181-11.787-20.145c-2.264-3.869-6.825-5.763-11.163-4.623l-22.577 5.909-18.599-14.1c-3.571-2.709-8.51-2.709-12.083 0l-18.597 14.1-22.578-5.909c-4.338-1.138-8.9.754-11.164 4.624l-11.786 20.144-23.121 3.181c-4.441.61-7.933 4.103-8.544 8.543l-3.181 23.121-20.144 11.786c-3.869 2.264-5.759 6.826-4.624 11.163l5.91 22.578-14.1 18.597c-2.708 3.573-2.708 8.511 0 12.084l14.1 18.597-5.91 22.578c-1.135 4.337.755 8.899 4.624 11.163l20.143 11.786 3.181 23.121c.611 4.44 4.103 7.933 8.544 8.543l23.121 3.181 11.787 20.144c2.264 3.871 6.827 5.762 11.163 4.624l22.577-5.909 18.598 14.1c3.572 2.708 8.511 2.709 12.083 0l18.598-14.1 22.578 5.909c4.335 1.137 8.899-.754 11.163-4.623l11.786-20.144 23.121-3.182c4.44-.61 7.933-4.103 8.543-8.543l3.181-23.121 20.144-11.786c3.869-2.264 5.76-6.826 4.624-11.163l-5.909-22.577 14.1-18.599c2.708-3.572 2.708-8.51 0-12.082zm-20.578 49.641 5.22 19.943-17.794 10.412c-2.648 1.549-4.438 4.229-4.857 7.268l-2.81 20.425-20.424 2.811c-3.039.418-5.719 2.208-7.268 4.855l-10.412 17.794-19.944-5.22c-2.971-.778-6.129-.149-8.573 1.705l-16.43 12.456-16.429-12.455c-2.448-1.86-5.628-2.48-8.574-1.705l-19.944 5.22-10.412-17.794c-1.549-2.648-4.229-4.438-7.268-4.857l-20.424-2.81-2.81-20.424c-.418-3.039-2.208-5.719-4.856-7.268l-17.794-10.412 5.221-19.944c.777-2.969.148-6.129-1.706-8.574l-12.455-16.428 12.455-16.428c1.854-2.445 2.482-5.605 1.706-8.574l-5.221-19.944 17.794-10.412c2.648-1.549 4.438-4.229 4.856-7.268l2.81-20.424 20.424-2.81c3.04-.419 5.719-2.209 7.269-4.857l10.411-17.794 19.944 5.22c2.969.777 6.128.148 8.574-1.705l16.429-12.456 16.43 12.455c2.444 1.854 5.602 2.483 8.573 1.705l19.944-5.22 10.412 17.795c1.55 2.647 4.229 4.438 7.268 4.856l20.424 2.81 2.811 20.424c.418 3.039 2.208 5.719 4.855 7.268l17.794 10.412-5.22 19.944c-.777 2.969-.148 6.129 1.705 8.573l12.455 16.429-12.455 16.43c-1.853 2.444-2.482 5.605-1.704 8.573z"/><path d="m282.289 306.637c27.577-23.83 10.604-70.133-26.289-70.123-36.893-.01-53.865 46.3-26.288 70.123-25.61 10.415-43.712 35.572-43.712 64.877 0 5.522 4.477 10 10 10h120c5.522 0 10-4.478 10-10 0-29.305-18.102-54.462-43.711-64.877zm-26.289-50.123c11.028 0 20 8.972 20 20-1.005 26.496-38.998 26.489-40 0 .001-11.028 8.973-20 20-20zm-48.995 105c11.59-53.008 86.422-52.971 97.991 0z"/></g></svg>