<svg id="Layer_1" enable-background="new 0 0 65 65" height="512" viewBox="0 0 65 65" width="512" xmlns="http://www.w3.org/2000/svg"><g><path d="m62 30.8h-11.2v-24.2c0-3-2.4-5.4-5.4-5.4h-39c-3 .1-5.4 2.5-5.4 5.4v3.4c0 .5.4 1 1 1h4l-.2 43.5c0 1.6 1.3 2.9 2.9 2.9h29v4.4c0 1.1.9 2 2 2h22.3c1.1 0 2-.9 2-2v-29c0-1.1-.9-2-2-2zm-59-21.7v-2.5c0-1.9 1.5-3.4 3.4-3.4h34.9c-.8.9-1.2 2.1-1.2 3.4v2.4c-14.6.1-30.8.1-37.1.1zm5.7 46.4c-.5 0-1-.4-1-1l.3-43.5h33.1c.5 0 1-.4 1-1v-3.4c0-1.9 1.5-3.4 3.4-3.4s3.4 1.5 3.4 3.4v24.1h-9.1c-1.1 0-2 .9-2 2v22.7h-29.1zm31 6.3c0-10.6 0-18.7 0-29h22.3v29z"/><path d="m58.6 35.3h-15.5c-.5 0-1 .4-1 1v5.6c0 .5.4 1 1 1h15.5c.5 0 1-.4 1-1v-5.6c0-.6-.4-1-1-1zm-.9 5.6h-13.6v-3.7h13.5v3.7z"/><path d="m44.1 51.4h1.9v2h-1.9z"/><path d="m49.9 51.4h1.9v2h-1.9z"/><path d="m55.8 51.4h1.9v2h-1.9z"/><path d="m44.1 45.6h1.9v2h-1.9z"/><path d="m49.9 45.6h1.9v2h-1.9z"/><path d="m55.8 45.6h1.9v2h-1.9z"/><path d="m44.1 57.3h1.9v2h-1.9z"/><path d="m49.9 57.3h1.9v2h-1.9z"/><path d="m55.8 57.3h1.9v2h-1.9z"/><path d="m12.9 30.3h13.4c.5 0 1-.4 1-1v-13.4c0-.5-.4-1-1-1h-13.4c-.5 0-1 .4-1 1v13.4c0 .6.4 1 1 1zm.9-13.4h11.5v11.5h-11.5z"/><path d="m32.1 20.2h11.9c.5 0 1-.4 1-1 0-.5-.4-1-1-1h-11.9c-.5 0-1 .4-1 1 .1.5.5 1 1 1z"/><path d="m32.1 27h11.9c.5 0 1-.4 1-1 0-.5-.4-1-1-1h-11.9c-.5 0-1 .4-1 1 .1.6.5 1 1 1z"/><path d="m32.9 36h-20c-.5 0-1 .4-1 1 0 .5.4 1 1 1h20c.5 0 1-.4 1-1 0-.5-.5-1-1-1z"/><path d="m32.9 41.9h-20c-.5 0-1 .4-1 1 0 .5.4 1 1 1h20c.5 0 1-.4 1-1s-.5-1-1-1z"/><path d="m32.9 47.8h-20c-.5 0-1 .4-1 1 0 .5.4 1 1 1h20c.5 0 1-.4 1-1s-.5-1-1-1z"/></g></svg>