<svg id="Icons" height="512" viewBox="0 0 60 60" width="512" xmlns="http://www.w3.org/2000/svg"><path d="m56 32h-10v-28a4 4 0 0 0 -4-4h-38a4 4 0 0 0 -4 4v38a4 4 0 0 0 4 4h16v10a4 4 0 0 0 4 4h32a4 4 0 0 0 4-4v-20a4 4 0 0 0 -4-4zm-41-30h16v15.481a.517.517 0 0 1 -.768.452l-6.747-3.748a1 1 0 0 0 -.97 0l-6.747 3.748a.517.517 0 0 1 -.768-.452zm5 34v8h-16a2 2 0 0 1 -2-2v-38a2 2 0 0 1 2-2h9v15.481a2.511 2.511 0 0 0 3.738 2.2l6.262-3.481 6.262 3.479a2.516 2.516 0 0 0 3.738-2.198v-15.481h9a2 2 0 0 1 2 2v28h-20a4 4 0 0 0 -4 4zm38 20a2 2 0 0 1 -2 2h-32a2 2 0 0 1 -2-2v-20a2 2 0 0 1 2-2h32a2 2 0 0 1 2 2z"/><path d="m34 36h-6a3 3 0 0 0 -3 3v4a3 3 0 0 0 3 3h6a3 3 0 0 0 3-3v-4a3 3 0 0 0 -3-3zm-6 2h2v2h-3v-1a1 1 0 0 1 1-1zm-1 5v-1h3v2h-2a1 1 0 0 1 -1-1zm8 0a1 1 0 0 1 -1 1h-2v-6h2a1 1 0 0 1 1 1z"/><path d="m7.707 33.293a1 1 0 0 0 -1.414 0l-2 2a1 1 0 0 0 1.414 1.414l.293-.293v3.586a1 1 0 0 0 2 0v-3.586l.293.293a1 1 0 0 0 1.414-1.414z"/><path d="m15.707 33.293a1 1 0 0 0 -1.414 0l-2 2a1 1 0 0 0 1.414 1.414l.293-.293v3.586a1 1 0 0 0 2 0v-3.586l.293.293a1 1 0 0 0 1.414-1.414z"/><path d="m26 52a1 1 0 0 0 1-1v-2a1 1 0 0 0 -2 0v2a1 1 0 0 0 1 1z"/><path d="m31 51v-2a1 1 0 0 0 -2 0v2a1 1 0 0 0 2 0z"/><path d="m34 48a1 1 0 0 0 -1 1v2a1 1 0 0 0 2 0v-2a1 1 0 0 0 -1-1z"/><path d="m34 54h-8a1 1 0 0 0 0 2h8a1 1 0 0 0 0-2z"/><path d="m39 52a1 1 0 0 0 1-1v-2a1 1 0 0 0 -2 0v2a1 1 0 0 0 1 1z"/><path d="m43 52a1 1 0 0 0 1-1v-2a1 1 0 0 0 -2 0v2a1 1 0 0 0 1 1z"/><path d="m47 48a1 1 0 0 0 -1 1v2a1 1 0 0 0 2 0v-2a1 1 0 0 0 -1-1z"/><path d="m47 54h-8a1 1 0 0 0 0 2h8a1 1 0 0 0 0-2z"/></svg>