<svg id="svg8" height="64" viewBox="0 0 16.933333 16.933334" width="64" xmlns="http://www.w3.org/2000/svg" xmlns:svg="http://www.w3.org/2000/svg"><g id="layer6" stroke-linejoin="round"><path id="path3" d="m3.96875 1.5878906c-.7274924.0000001-1.3222656.5947732-1.3222656 1.3222657v11.3769527c.0000002.727492.5947729 1.324219 1.3222656 1.324219h7.417969v-.529297h-7.417969c-.4415086 0-.7929686-.353414-.7929687-.794922v-11.3769527c-.0000001-.441509.3514597-.7929687.7929687-.7929688h1.8515625v-.5292969z"/><path id="path4" d="m11.113281 1.5878906v.5292969h1.851563c.441508.0000002.792968.3514599.792969.7929688v8.2558597h.529296v-8.2558597c0-.7274924-.594773-1.3222654-1.322265-1.3222657z"/><path id="path5" d="m4.7617187 2.6464844c-.4352419 0-.7929687.3577268-.7929687.7929687v10.3183599c-.0000001.435241.3577268.794921.7929687.794921h6.1464843v-.529296h-6.1464843c-.1492591 0-.2636719-.116366-.2636718-.265625v-10.3183599c0-.1492591.1144127-.2636718.2636718-.2636718h1.0585938v-.5292969z"/><path id="path6" d="m11.113281 2.6464844v.5292969h1.056641c.149259-.0000001.265625.1144127.265625.2636718v7.7988279h.529297v-7.7988279c0-.4352419-.35968-.7929688-.794922-.7929687z"/><path id="path16" d="m8.4666674.26458334c-.418246 0-.8105511.2091697-1.0428301.5575887l-.156063.23667806h-.91829c-.435241 0-.792716.3574754-.792716.7927165v1.0588502c0 .4352408.357475.7927164.792716.7927164h4.2343677c.435241 0 .792717-.3574756.792717-.7927164v-1.0588502c0-.4352411-.357476-.7927165-.792717-.7927165h-.9182907l-.156063-.23667806c-.232279-.348419-.657657-.5575887-1.0428309-.5575887zm0 .5291667c.216642-.0000001.469957.1230587.6035809.32349446l.234094.3513997c.04888.074271.131747.1192606.220659.1193726h1.0588507c.149259 0 .26355.1142909.26355.2635498v1.0588502c0 .1492587-.114291.2635498-.26355.2635498h-4.2343677c-.149259 0-.26355-.1142911-.26355-.2635498v-1.0588502c0-.1492589.114291-.2635498.26355-.2635498h1.05885c.08891-.000112.171779-.045102.220659-.1193726l.234094-.3513997c.133624-.20043576.353866-.32708626.6035801-.32349446z" stroke-linecap="round"/><path id="path7" d="m6.0859375 5.5566406c-.2891165 0-.5292969.2401804-.5292969.5292969v1.0585937c0 .2891165.2401804.5292969.5292969.5292969h1.0585937c.2891165 0 .5292969-.2401804.5292969-.5292969v-1.0585937c0-.2891165-.2401804-.5292969-.5292969-.5292969zm0 .5292969h1.0585937v1.0585937h-1.0585937z" transform="translate(-.265 -.794)"/><path id="path17" d="m8.4667969 5.5566406a.2645835.2645835 0 0 0 -.265625.2636719.2645835.2645835 0 0 0 .265625.265625h2.9101561a.2645835.2645835 0 0 0 .265625-.265625.2645835.2645835 0 0 0 -.265625-.2636719z" stroke-linecap="round"/><path id="path18" d="m6.0859375 5.5566406c-.2891165 0-.5292969.2401804-.5292969.5292969v1.0585937c0 .2891165.2401804.5292969.5292969.5292969h1.0585937c.2891165 0 .5292969-.2401804.5292969-.5292969v-1.0585937c0-.2891165-.2401804-.5292969-.5292969-.5292969zm0 .5292969h1.0585937v1.0585937h-1.0585937z" transform="translate(-.265 1.852)"/><path id="path19" d="m8.4667969 8.2011719a.2645835.2645835 0 0 0 -.265625.265625.2645835.2645835 0 0 0 .265625.2636719h2.9101561a.2645835.2645835 0 0 0 .265625-.2636719.2645835.2645835 0 0 0 -.265625-.265625z" stroke-linecap="round"/><path id="path20" d="m6.0859375 5.5566406c-.2891165 0-.5292969.2401804-.5292969.5292969v1.0585937c0 .2891165.2401804.5292969.5292969.5292969h1.0585937c.2891165 0 .5292969-.2401804.5292969-.5292969v-1.0585937c0-.2891165-.2401804-.5292969-.5292969-.5292969zm0 .5292969h1.0585937v1.0585937h-1.0585937z" transform="translate(-.265 4.498)"/><g stroke-linecap="round"><path id="path21" d="m8.4667969 10.847656a.2645835.2645835 0 0 0 -.265625.265625.2645835.2645835 0 0 0 .265625.263672h2.9101561a.2645835.2645835 0 0 0 .265625-.263672.2645835.2645835 0 0 0 -.265625-.265625z"/><path id="circle21" d="m13.494141 10.847656c-1.604244 0-2.910156 1.305913-2.910157 2.910157.000001 1.604243 1.305913 2.910156 2.910157 2.910156 1.604243 0 2.910156-1.305913 2.910156-2.910156 0-1.604244-1.305913-2.910157-2.910156-2.910157zm0 .529297c1.31826 0 2.380859 1.062599 2.380859 2.38086 0 1.31826-1.062599 2.380859-2.380859 2.380859-1.318261 0-2.38086-1.062599-2.38086-2.380859 0-1.318261 1.062599-2.38086 2.38086-2.38086z"/><path id="path22" d="m14.644531 12.763672-1.636718 1.404297-.625-.832031a.2645835.2645835 0 0 0 -.371094-.05469.2645835.2645835 0 0 0 -.05274.371094l.792969 1.058594a.26460996.26460996 0 0 0 .384766.04297l1.851562-1.58789a.2645835.2645835 0 0 0 .0293-.373047.2645835.2645835 0 0 0 -.373047-.0293z"/></g></g></svg>