<svg id="Layer_1" enable-background="new 0 0 64 64" viewBox="0 0 64 64" xmlns="http://www.w3.org/2000/svg"><g><path d="m59 36h-7-8-7c-1.6542969 0-3 1.3457031-3 3v20c0 1.6542969 1.3457031 3 3 3h22c1.6542969 0 3-1.3457031 3-3v-20c0-1.6542969-1.3457031-3-3-3zm-8 2v8.6206055l-2.3837891-2.3349609c-.1870117-.1831055-.4379882-.2856446-.699707-.2856446-.003418 0-.0068359 0-.0107422 0-.2651367.0029297-.5185547.1108398-.7041016.300293l-2.2016601 2.2490234v-8.5493164zm9 21c0 .5512695-.4487305 1-1 1h-22c-.5512695 0-1-.4487305-1-1v-20c0-.5512695.4487305-1 1-1h6v11c0 .40625.2460938.7724609.6220703.9257813.1225586.0498046.2504883.0742187.3779297.0742187.2636719 0 .5224609-.1044922.7143555-.300293l3.2167969-3.2856445 3.3691406 3.300293c.2880859.2832031.7177734.3647461 1.0869141.2075195.371582-.1557617.6127929-.5195312.6127929-.921875v-11h6c.5512695 0 1 .4487305 1 1zm-22-5c0-.5522461.4477539-1 1-1h7c.5522461 0 1 .4477539 1 1s-.4477539 1-1 1h-7c-.5522461 0-1-.4477539-1-1zm12 3c0 .5522461-.4477539 1-1 1h-10c-.5522461 0-1-.4477539-1-1s.4477539-1 1-1h10c.5522461 0 1 .4477539 1 1zm-23-55h-7-8-7c-1.6542969 0-3 1.3457031-3 3v20c0 1.6542969 1.3457031 3 3 3h22c1.6542969 0 3-1.3457031 3-3v-20c0-1.6542969-1.3457031-3-3-3zm-8 2v8.6206055l-2.3837891-2.3349609c-.1870117-.1831055-.4379882-.2856446-.699707-.2856446-.003418 0-.0068359 0-.0107422 0-.2651367.0029297-.5185547.1108398-.7041016.300293l-2.2016601 2.2490234v-8.5493164zm9 21c0 .5512695-.4487305 1-1 1h-22c-.5512695 0-1-.4487305-1-1v-20c0-.5512695.4487305-1 1-1h6v11c0 .40625.2460938.7724609.6220703.9257813.1225586.0498046.2504883.0742187.3779297.0742187.2636719 0 .5224609-.1044922.7143555-.300293l3.2167969-3.2856445 3.3691406 3.300293c.2880859.2827148.7182617.3642578 1.0869141.2075195.371582-.1557617.6127929-.5195312.6127929-.921875v-11h6c.5512695 0 1 .4487305 1 1zm-22-5c0-.5522461.4477539-1 1-1h7c.5522461 0 1 .4477539 1 1s-.4477539 1-1 1h-7c-.5522461 0-1-.4477539-1-1zm12 3c0 .5522461-.4477539 1-1 1h-10c-.5522461 0-1-.4477539-1-1s.4477539-1 1-1h10c.5522461 0 1 .4477539 1 1zm11.6000977 26.2001953c.2519531.1884766.3999023.4848633.3999023.7998047s-.1479492.6113281-.3999023.7998047l-4 3c-.1801758.1352539-.390625.2001953-.5991211.2001953-.3041992 0-.6044922-.1381836-.8007813-.3999023-.331543-.4418945-.2421875-1.0688477.199707-1.3999023l1.6002808-1.2001954h-9.8336792c-4.9624023 0-9.1665039-4.0375977-9.1665039-9v-7c0-.5522461.4477539-1 1-1s1 .4477539 1 1v7c0 3.8598633 3.3066406 7 7.1665039 7h9.8336792l-1.6002808-1.2001953c-.4418945-.3310547-.53125-.9580078-.199707-1.3999023.3310547-.440918.9570313-.5317383 1.3999023-.199707zm4.9663086-34.4003906c-.2519532-.1884766-.3999024-.4848633-.3999024-.7998047s.1479492-.6113281.3999023-.7998047l4-3c.4428711-.3325195 1.0693359-.2416992 1.3999023.199707.331543.4418945.2421875 1.0688477-.199707 1.3999023l-1.6002807 1.2001954h9.8336792c4.9624023 0 9 4.0375977 9 9v7c0 .5522461-.4477539 1-1 1s-1-.4477539-1-1v-7c0-3.8598633-3.1401367-7-7-7h-9.8336792l1.6002808 1.2001953c.4418945.3310547.53125.9580078.199707 1.3999023-.1962891.2617188-.496582.3999024-.8007813.3999024-.2084961 0-.4189453-.0649414-.5991211-.2001953z"/></g></svg>