<?xml version="1.0" encoding="UTF-8"?>
<!DOCTYPE svg PUBLIC "-//W3C//DTD SVG 1.1//EN" "http://www.w3.org/Graphics/SVG/1.1/DTD/svg11.dtd">
<svg xmlns="http://www.w3.org/2000/svg" version="1.1" width="512px" height="512px" style="shape-rendering:geometricPrecision; text-rendering:geometricPrecision; image-rendering:optimizeQuality; fill-rule:evenodd; clip-rule:evenodd" xmlns:xlink="http://www.w3.org/1999/xlink">
<g><path style="opacity:0.99" fill="#fefefe" d="M 185.5,9.5 C 219.54,7.72855 238.873,23.5619 243.5,57C 242.957,67.9632 239.623,77.9632 233.5,87C 238.814,86.6079 244.147,85.9413 249.5,85C 281.5,84.3333 313.5,84.3333 345.5,85C 390.623,89.4595 417.123,113.959 425,158.5C 426.11,176.971 426.61,195.471 426.5,214C 426.333,229.833 426.167,245.667 426,261.5C 424.996,267.178 424.329,272.845 424,278.5C 443.121,264.489 462.621,263.989 482.5,277C 495.169,287.506 501.503,301.006 501.5,317.5C 496.984,395.752 459.651,451.919 389.5,486C 361.997,498.028 333.33,502.695 303.5,500C 278.93,491.714 267.097,474.548 268,448.5C 269.207,439.542 272.373,431.375 277.5,424C 272.186,424.392 266.853,425.059 261.5,426C 229.5,426.667 197.5,426.667 165.5,426C 120.377,421.541 93.8768,397.041 86,352.5C 84.8896,334.029 84.3896,315.529 84.5,297C 84.6667,281.167 84.8333,265.333 85,249.5C 86.0043,243.822 86.671,238.155 87,232.5C 67.8792,246.511 48.3792,247.011 28.5,234C 13.2621,220.959 7.09538,204.459 10,184.5C 16.2066,118.542 47.3733,68.3756 103.5,34C 129.203,19.9136 156.536,11.7469 185.5,9.5 Z"/></g>
<g><path style="opacity:1" fill="#f08674" d="M 195.5,42.5 C 184.833,53.5 174.167,64.5 163.5,75.5C 115.514,90.9893 85.6808,123.323 74,172.5C 72.8686,181.124 72.202,189.79 72,198.5C 68.1295,209.468 60.6295,212.968 49.5,209C 46.5665,206.736 44.3999,203.902 43,200.5C 42.5029,145.995 64.0029,102.495 107.5,70C 133.956,51.6817 163.289,42.5151 195.5,42.5 Z"/></g>
<g><path style="opacity:1" fill="#f08272" d="M 195.5,42.5 C 206.963,43.7946 211.797,50.1279 210,61.5C 202.266,75.2986 194.266,88.9653 186,102.5C 174.41,110.894 165.743,108.561 160,95.5C 159.333,93.1667 159.333,90.8333 160,88.5C 162.374,84.2505 164.874,80.0838 167.5,76C 166.207,75.51 164.873,75.3433 163.5,75.5C 174.167,64.5 184.833,53.5 195.5,42.5 Z"/></g>
<g><path style="opacity:1" fill="#79add4" d="M 339.5,117.5 C 332.833,117.5 326.167,117.5 319.5,117.5C 301.497,117.333 283.497,117.5 265.5,118C 243.965,139.368 222.632,160.868 201.5,182.5C 197.84,142.319 216.173,120.486 256.5,117C 284.336,116.17 312.003,116.336 339.5,117.5 Z"/></g>
<g><path style="opacity:1" fill="#74aad4" d="M 319.5,117.5 C 298.368,139.132 277.035,160.632 255.5,182C 256.416,182.278 257.082,182.778 257.5,183.5C 238.861,182.552 220.194,182.218 201.5,182.5C 222.632,160.868 243.965,139.368 265.5,118C 283.497,117.5 301.497,117.333 319.5,117.5 Z"/></g>
<g><path style="opacity:1" fill="#71a7d4" d="M 319.5,117.5 C 326.167,117.5 332.833,117.5 339.5,117.5C 344.028,117.77 348.361,118.437 352.5,119.5C 351.127,119.343 349.793,119.51 348.5,120C 325.965,142.368 303.632,164.868 281.5,187.5C 273.654,185.331 265.654,183.998 257.5,183.5C 257.082,182.778 256.416,182.278 255.5,182C 277.035,160.632 298.368,139.132 319.5,117.5 Z"/></g>
<g><path style="opacity:1" fill="#6da4d3" d="M 352.5,119.5 C 375.706,124.04 389.039,138.04 392.5,161.5C 369.5,184.167 346.5,206.833 323.5,229.5C 318.416,214.256 309.082,202.423 295.5,194C 290.863,191.511 286.196,189.344 281.5,187.5C 303.632,164.868 325.965,142.368 348.5,120C 349.793,119.51 351.127,119.343 352.5,119.5 Z"/></g>
<g><path style="opacity:1" fill="#689fd3" d="M 392.5,161.5 C 393.241,164.413 393.741,167.413 394,170.5C 394.83,198.003 394.664,225.336 393.5,252.5C 393.666,248.486 393.499,244.486 393,240.5C 371.632,262.035 350.132,283.368 328.5,304.5C 328.667,286.83 328.5,269.164 328,251.5C 327.073,244.031 325.573,236.698 323.5,229.5C 346.5,206.833 369.5,184.167 392.5,161.5 Z"/></g>
<g><path style="opacity:1" fill="#ef796d" d="M 252.5,200.5 C 243.161,200.334 233.827,200.5 224.5,201C 189,236.5 153.5,272 118,307.5C 117.5,316.827 117.334,326.161 117.5,335.5C 116.337,309.337 116.17,283.003 117,256.5C 119.288,220.546 138.455,201.712 174.5,200C 200.67,199.17 226.67,199.337 252.5,200.5 Z"/></g>
<g><path style="opacity:1" fill="#ee7369" d="M 252.5,200.5 C 265.248,200.854 277.248,204.02 288.5,210C 291.288,211.719 293.621,213.885 295.5,216.5C 240.784,270.216 186.784,324.549 133.5,379.5C 125.522,371.545 120.689,361.878 119,350.5C 117.95,345.552 117.45,340.552 117.5,335.5C 117.334,326.161 117.5,316.827 118,307.5C 153.5,272 189,236.5 224.5,201C 233.827,200.5 243.161,200.334 252.5,200.5 Z"/></g>
<g><path style="opacity:1" fill="#ee6f67" d="M 295.5,216.5 C 303.807,225.458 308.641,236.125 310,248.5C 311.1,264.47 311.6,280.47 311.5,296.5C 311.5,310.004 311.167,323.338 310.5,336.5C 310.5,324.5 310.5,312.5 310.5,300.5C 310.667,286.163 310.5,271.829 310,257.5C 264.833,302.667 219.667,347.833 174.5,393C 188.829,393.5 203.163,393.667 217.5,393.5C 229.5,393.5 241.5,393.5 253.5,393.5C 226.003,394.664 198.336,394.83 170.5,394C 156.444,393.156 144.11,388.322 133.5,379.5C 186.784,324.549 240.784,270.216 295.5,216.5 Z"/></g>
<g><path style="opacity:1" fill="#649bd3" d="M 393.5,252.5 C 394.081,270.946 387.747,286.446 374.5,299C 360.375,307.415 345.041,311.248 328.5,310.5C 328.5,308.5 328.5,306.5 328.5,304.5C 350.132,283.368 371.632,262.035 393,240.5C 393.499,244.486 393.666,248.486 393.5,252.5 Z"/></g>
<g><path style="opacity:1" fill="#ed6b64" d="M 310.5,300.5 C 279.167,331.167 248.167,362.167 217.5,393.5C 203.163,393.667 188.829,393.5 174.5,393C 219.667,347.833 264.833,302.667 310,257.5C 310.5,271.829 310.667,286.163 310.5,300.5 Z"/></g>
<g><path style="opacity:1" fill="#ed6862" d="M 310.5,300.5 C 310.5,312.5 310.5,324.5 310.5,336.5C 309.14,373.193 290.14,392.193 253.5,393.5C 241.5,393.5 229.5,393.5 217.5,393.5C 248.167,362.167 279.167,331.167 310.5,300.5 Z"/></g>
<g><path style="opacity:1" fill="#eb5d5d" d="M 450.5,298.5 C 458.559,298.109 464.393,301.442 468,308.5C 468.342,377.015 437.842,426.181 376.5,456C 354.348,465.639 331.348,469.306 307.5,467C 301.23,462.291 299.064,456.124 301,448.5C 309.124,434.416 317.624,420.583 326.5,407C 337.195,401.008 345.362,403.508 351,414.5C 351.667,416.833 351.667,419.167 351,421.5C 348.895,426.21 346.395,430.71 343.5,435C 396.392,420.767 427.892,386.601 438,332.5C 438.932,324.523 439.598,316.523 440,308.5C 442.081,303.584 445.581,300.25 450.5,298.5 Z"/></g>
</svg>
