<?xml version="1.0" encoding="UTF-8"?>
<!DOCTYPE svg PUBLIC "-//W3C//DTD SVG 1.1//EN" "http://www.w3.org/Graphics/SVG/1.1/DTD/svg11.dtd">
<svg xmlns="http://www.w3.org/2000/svg" version="1.1" width="20" height="20" style="shape-rendering:geometricPrecision; text-rendering:geometricPrecision; image-rendering:optimizeQuality; fill-rule:evenodd; clip-rule:evenodd" xmlns:xlink="http://www.w3.org/1999/xlink">
<g><path style="opacity:0.956" fill="#ffffff" d="M 243.5,-0.5 C 246.167,-0.5 248.833,-0.5 251.5,-0.5C 253.144,0.316435 254.31,1.64977 255,3.5C 255.667,8.83333 255.667,14.1667 255,19.5C 254.363,21.3031 253.197,22.6364 251.5,23.5C 253.197,24.3636 254.363,25.6969 255,27.5C 255.667,40.8333 255.667,54.1667 255,67.5C 253.471,70.516 250.971,71.8494 247.5,71.5C 244.029,71.8494 241.529,70.516 240,67.5C 239.333,54.1667 239.333,40.8333 240,27.5C 240.637,25.6969 241.803,24.3636 243.5,23.5C 241.803,22.6364 240.637,21.3031 240,19.5C 239.333,14.1667 239.333,8.83333 240,3.5C 240.69,1.64977 241.856,0.316435 243.5,-0.5 Z"/></g>
<g><path style="opacity:0.95" fill="#ffffff" d="M 355.5,-0.5 C 358.167,-0.5 360.833,-0.5 363.5,-0.5C 365.144,0.316435 366.31,1.64977 367,3.5C 367.667,11.5 367.667,19.5 367,27.5C 365.471,30.516 362.971,31.8494 359.5,31.5C 356.029,31.8494 353.529,30.516 352,27.5C 351.333,19.5 351.333,11.5 352,3.5C 352.69,1.64977 353.856,0.316435 355.5,-0.5 Z"/></g>
<g><path style="opacity:0.972" fill="#ffffff" d="M 427.5,-0.5 C 430.167,-0.5 432.833,-0.5 435.5,-0.5C 437.144,0.316435 438.31,1.64977 439,3.5C 439.667,19.5 439.667,35.5 439,51.5C 437.471,54.516 434.971,55.8494 431.5,55.5C 428.029,55.8494 425.529,54.516 424,51.5C 423.333,35.5 423.333,19.5 424,3.5C 424.69,1.64977 425.856,0.316435 427.5,-0.5 Z"/></g>
<g><path style="opacity:0.931" fill="#ffffff" d="M 179.5,47.5 C 182.187,47.3359 184.854,47.5026 187.5,48C 189.333,48.5 190.5,49.6667 191,51.5C 191.667,56.8333 191.667,62.1667 191,67.5C 190.5,69.3333 189.333,70.5 187.5,71C 184.833,71.6667 182.167,71.6667 179.5,71C 177.667,70.5 176.5,69.3333 176,67.5C 175.333,62.1667 175.333,56.8333 176,51.5C 176.69,49.6498 177.856,48.3164 179.5,47.5 Z"/></g>
<g><path style="opacity:0.933" fill="#ffffff" d="M 386.5,54.5 C 426.885,55.0864 452.385,74.7531 463,113.5C 467.794,152.651 452.294,180.151 416.5,196C 384.898,205.68 357.398,198.846 334,175.5C 314.191,149.748 311.191,122.081 325,92.5C 339.016,69.3128 359.516,56.6462 386.5,54.5 Z M 387.5,71.5 C 417.317,73.4948 436.15,88.8281 444,117.5C 447.091,142.947 437.924,162.447 416.5,176C 388.06,188.679 363.893,183.179 344,159.5C 329.861,136.203 330.861,113.536 347,91.5C 358.002,79.582 371.502,72.9153 387.5,71.5 Z"/></g>
<g><path style="opacity:0.978" fill="#ffffff" d="M 179.5,79.5 C 182.187,79.3359 184.854,79.5026 187.5,80C 189.333,80.5 190.5,81.6667 191,83.5C 191.667,104.833 191.667,126.167 191,147.5C 189.471,150.516 186.971,151.849 183.5,151.5C 180.029,151.849 177.529,150.516 176,147.5C 175.333,126.167 175.333,104.833 176,83.5C 176.69,81.6498 177.856,80.3164 179.5,79.5 Z"/></g>
<g><path style="opacity:0.931" fill="#ffffff" d="M 275.5,79.5 C 278.187,79.3359 280.854,79.5026 283.5,80C 285.333,80.5 286.5,81.6667 287,83.5C 287.667,88.8333 287.667,94.1667 287,99.5C 286.5,101.333 285.333,102.5 283.5,103C 280.833,103.667 278.167,103.667 275.5,103C 273.667,102.5 272.5,101.333 272,99.5C 271.333,94.1667 271.333,88.8333 272,83.5C 272.69,81.6498 273.856,80.3164 275.5,79.5 Z"/></g>
<g><path style="opacity:0.925" fill="#ffffff" d="M 390.5,82.5 C 399.333,81.4994 406.5,84.4994 412,91.5C 421.878,88.715 426.211,92.3817 425,102.5C 431.305,106.799 436.138,112.299 439.5,119C 437.507,126.663 432.84,128.997 425.5,126C 415.833,117.667 406.167,109.333 396.5,101C 394.255,101.195 392.422,102.362 391,104.5C 389.542,106.96 387.709,109.127 385.5,111C 394.631,118.462 403.464,126.295 412,134.5C 415.333,140.833 415.333,147.167 412,153.5C 406.81,159.688 401.31,165.521 395.5,171C 385.977,174.437 377.977,172.27 371.5,164.5C 360.433,168.266 356.1,164.433 358.5,153C 354.333,149.5 350.167,146 346,142.5C 341.865,134.735 344.031,129.735 352.5,127.5C 354.541,128.236 356.541,129.069 358.5,130C 367.688,137.765 376.688,145.765 385.5,154C 386.5,154.667 387.5,154.667 388.5,154C 391.87,150.965 394.87,147.632 397.5,144C 388.369,136.538 379.536,128.705 371,120.5C 367.667,114.167 367.667,107.833 371,101.5C 375.5,96.3333 380,91.1667 384.5,86C 386.432,84.5415 388.432,83.3748 390.5,82.5 Z"/></g>
<g><path style="opacity:0.967" fill="#ffffff" d="M 275.5,111.5 C 278.187,111.336 280.854,111.503 283.5,112C 285.333,112.5 286.5,113.667 287,115.5C 287.667,128.833 287.667,142.167 287,155.5C 286.5,157.333 285.333,158.5 283.5,159C 280.833,159.667 278.167,159.667 275.5,159C 273.667,158.5 272.5,157.333 272,155.5C 271.333,142.167 271.333,128.833 272,115.5C 272.69,113.65 273.856,112.316 275.5,111.5 Z"/></g>
<g><path style="opacity:0.932" fill="#ffffff" d="M 227.5,159.5 C 264.533,156.258 291.033,171.258 307,204.5C 318.523,240.929 309.023,270.429 278.5,293C 242.717,311.526 210.884,306.359 183,277.5C 166.603,255.169 162.937,230.836 172,204.5C 182.813,179.864 201.313,164.864 227.5,159.5 Z M 229.5,176.5 C 255.01,173.674 274.51,183.007 288,204.5C 301.412,235.703 294.245,260.87 266.5,280C 235.297,293.412 210.13,286.245 191,258.5C 179.111,232.935 182.945,210.102 202.5,190C 210.498,183.334 219.498,178.834 229.5,176.5 Z"/></g>
<g><path style="opacity:0.972" fill="#ffffff" d="M 235.5,183.5 C 238.978,183.184 242.312,183.684 245.5,185C 247.016,186.897 247.683,189.064 247.5,191.5C 254.947,191.071 262.281,191.571 269.5,193C 272.167,197.333 272.167,201.667 269.5,206C 254.263,207.468 238.93,207.968 223.5,207.5C 223.5,212.833 223.5,218.167 223.5,223.5C 236.171,223.333 248.838,223.5 261.5,224C 270.894,229.045 274.228,236.878 271.5,247.5C 273.831,265.836 265.831,273.836 247.5,271.5C 247.842,277.158 245.176,279.824 239.5,279.5C 233.824,279.824 231.158,277.158 231.5,271.5C 224.053,271.929 216.719,271.429 209.5,270C 206.833,265.667 206.833,261.333 209.5,257C 224.737,255.532 240.07,255.032 255.5,255.5C 255.5,250.167 255.5,244.833 255.5,239.5C 242.829,239.667 230.162,239.5 217.5,239C 208.106,233.955 204.772,226.122 207.5,215.5C 205.169,197.164 213.169,189.164 231.5,191.5C 231.278,187.944 232.611,185.277 235.5,183.5 Z"/></g>
<g><path style="opacity:0.976" fill="#ffffff" d="M 347.5,199.5 C 350.187,199.336 352.854,199.503 355.5,200C 357.333,200.5 358.5,201.667 359,203.5C 359.667,222.167 359.667,240.833 359,259.5C 357.471,262.516 354.971,263.849 351.5,263.5C 348.029,263.849 345.529,262.516 344,259.5C 343.333,240.833 343.333,222.167 344,203.5C 344.69,201.65 345.856,200.316 347.5,199.5 Z"/></g>
<g><path style="opacity:0.931" fill="#ffffff" d="M 459.5,199.5 C 462.187,199.336 464.854,199.503 467.5,200C 469.333,200.5 470.5,201.667 471,203.5C 471.667,208.833 471.667,214.167 471,219.5C 470.5,221.333 469.333,222.5 467.5,223C 464.833,223.667 462.167,223.667 459.5,223C 457.667,222.5 456.5,221.333 456,219.5C 455.333,214.167 455.333,208.833 456,203.5C 456.69,201.65 457.856,200.316 459.5,199.5 Z"/></g>
<g><path style="opacity:0.931" fill="#ffffff" d="M 395.5,223.5 C 398.187,223.336 400.854,223.503 403.5,224C 405.333,224.5 406.5,225.667 407,227.5C 407.667,232.833 407.667,238.167 407,243.5C 406.5,245.333 405.333,246.5 403.5,247C 400.833,247.667 398.167,247.667 395.5,247C 393.667,246.5 392.5,245.333 392,243.5C 391.333,238.167 391.333,232.833 392,227.5C 392.69,225.65 393.856,224.316 395.5,223.5 Z"/></g>
<g><path style="opacity:0.963" fill="#ffffff" d="M 511.5,319.5 C 511.5,325.167 511.5,330.833 511.5,336.5C 495.024,362.102 478.524,387.769 462,413.5C 432.2,440.299 402.7,467.465 373.5,495C 368.489,499.005 362.822,501.672 356.5,503C 277.353,505.425 198.353,503.258 119.5,496.5C 119.665,500.182 119.499,503.848 119,507.5C 118.31,509.35 117.144,510.684 115.5,511.5C 78.1667,511.5 40.8333,511.5 3.5,511.5C 1.83333,510.5 0.5,509.167 -0.5,507.5C -0.5,504.833 -0.5,502.167 -0.5,499.5C 0.316435,497.856 1.64977,496.69 3.5,496C 15.4954,495.5 27.4954,495.333 39.5,495.5C 39.5,447.5 39.5,399.5 39.5,351.5C 27.4954,351.667 15.4954,351.5 3.5,351C 1.64977,350.31 0.316435,349.144 -0.5,347.5C -0.5,344.833 -0.5,342.167 -0.5,339.5C 0.316435,337.856 1.64977,336.69 3.5,336C 40.8333,335.333 78.1667,335.333 115.5,336C 117.333,336.5 118.5,337.667 119,339.5C 119.5,346.158 119.666,352.825 119.5,359.5C 137.204,359.898 154.871,359.398 172.5,358C 186.009,350.415 199.009,342.082 211.5,333C 215.271,330.781 219.271,329.115 223.5,328C 259.5,327.333 295.5,327.333 331.5,328C 333.333,328.5 334.5,329.667 335,331.5C 335.5,343.495 335.667,355.495 335.5,367.5C 341.842,367.666 348.175,367.5 354.5,367C 343.227,348.072 340.394,327.906 346,306.5C 355.509,278.657 374.675,261.824 403.5,256C 440.578,252.367 467.245,267.201 483.5,300.5C 492.869,306.885 502.202,313.218 511.5,319.5 Z M 408.5,271.5 C 430.097,270.188 447.43,278.021 460.5,295C 454.206,296.414 448.206,298.748 442.5,302C 436.877,305.955 431.543,310.288 426.5,315C 417.242,317.975 408.075,321.141 399,324.5C 397.078,320.242 395.244,315.908 393.5,311.5C 406.189,306.17 419.189,301.336 432.5,297C 437.833,292 437.833,287 432.5,282C 424.922,281.412 417.756,282.912 411,286.5C 407.589,281.388 403.089,280.222 397.5,283C 395.31,285.616 393.976,288.616 393.5,292C 380.479,294.671 374.979,302.504 377,315.5C 378.94,321.987 381.273,328.321 384,334.5C 386.742,338.116 390.242,340.616 394.5,342C 386.978,348.356 379.311,354.523 371.5,360.5C 355.835,338.41 355.668,316.077 371,293.5C 380.795,281.359 393.295,274.026 408.5,271.5 Z M 460.5,312.5 C 466.109,312.402 471.442,313.569 476.5,316C 482.5,320.667 488.5,325.333 494.5,330C 478.959,353.579 463.792,377.413 449,401.5C 421.833,426.667 394.667,451.833 367.5,477C 364.113,480.053 360.447,482.72 356.5,485C 353.576,485.988 350.576,486.654 347.5,487C 306.5,487.667 265.5,487.667 224.5,487C 189.494,484.5 154.494,482 119.5,479.5C 119.5,444.833 119.5,410.167 119.5,375.5C 138.17,375.667 156.836,375.5 175.5,375C 179.729,373.885 183.729,372.219 187.5,370C 199.991,360.918 212.991,352.585 226.5,345C 257.468,343.555 288.468,343.055 319.5,343.5C 319.831,353.55 319.331,363.55 318,373.5C 314.295,384.204 306.795,390.037 295.5,391C 280.833,391.333 266.167,391.667 251.5,392C 249.667,392.5 248.5,393.667 248,395.5C 247.333,398.167 247.333,400.833 248,403.5C 248.5,405.333 249.667,406.5 251.5,407C 269.167,407.667 286.833,407.667 304.5,407C 317.462,404.019 326.795,396.519 332.5,384.5C 346.248,383.966 359.915,383.133 373.5,382C 399.167,360.333 424.833,338.667 450.5,317C 453.815,315.17 457.149,313.67 460.5,312.5 Z M 55.5,351.5 C 71.5,351.5 87.5,351.5 103.5,351.5C 103.5,399.5 103.5,447.5 103.5,495.5C 87.5,495.5 71.5,495.5 55.5,495.5C 55.5,447.5 55.5,399.5 55.5,351.5 Z"/></g>
<g><path style="opacity:0.936" fill="#ffffff" d="M 73.5,359.5 C 92.7785,358.61 99.2785,367.276 93,385.5C 86.0554,392.069 78.2221,393.236 69.5,389C 62.9307,382.055 61.7641,374.222 66,365.5C 68.1141,362.879 70.6141,360.879 73.5,359.5 Z"/></g>
</svg>
