<?xml version="1.0" encoding="UTF-8"?>
<!DOCTYPE svg PUBLIC "-//W3C//DTD SVG 1.1//EN" "http://www.w3.org/Graphics/SVG/1.1/DTD/svg11.dtd">
<svg xmlns="http://www.w3.org/2000/svg" version="1.1" width="512px" height="512px" style="shape-rendering:geometricPrecision; text-rendering:geometricPrecision; image-rendering:optimizeQuality; fill-rule:evenodd; clip-rule:evenodd" xmlns:xlink="http://www.w3.org/1999/xlink">
<g><path style="opacity:1" fill="#c3ddf4" d="M 127.5,-0.5 C 134.167,-0.5 140.833,-0.5 147.5,-0.5C 147.013,0.473444 146.513,1.47344 146,2.5C 145.333,130.167 145.333,257.833 146,385.5C 146.717,386.044 147.217,386.711 147.5,387.5C 141.167,387.5 134.833,387.5 128.5,387.5C 127.542,387.047 126.708,386.381 126,385.5C 125.833,268.666 125.333,151.999 124.5,35.5C 124.333,24.8281 124.5,14.1615 125,3.5C 125.662,2.01608 126.496,0.682751 127.5,-0.5 Z"/></g>
<g><path style="opacity:0.999" fill="#d8e9fb" d="M 147.5,-0.5 C 249.167,-0.5 350.833,-0.5 452.5,-0.5C 452.987,0.473444 453.487,1.47344 454,2.5C 454.5,42.4986 454.667,82.4986 454.5,122.5C 453.667,209.999 453.167,297.666 453,385.5C 452.5,386 452,386.5 451.5,387C 441.506,387.5 431.506,387.666 421.5,387.5C 330.167,387.5 238.833,387.5 147.5,387.5C 147.217,386.711 146.717,386.044 146,385.5C 145.333,257.833 145.333,130.167 146,2.5C 146.513,1.47344 147.013,0.473444 147.5,-0.5 Z"/></g>
<g><path style="opacity:1" fill="#ef8318" d="M 113.5,35.5 C 112.531,36.3094 111.698,37.3094 111,38.5C 110.333,166.167 110.333,293.833 111,421.5C 111.5,422 112,422.5 112.5,423C 106.843,423.499 101.176,423.666 95.5,423.5C 94.5416,423.047 93.7083,422.381 93,421.5C 92.8331,304.333 92.3331,187.333 91.5,70.5C 91.0455,59.3971 91.5455,48.3971 93,37.5C 93.5,37 94,36.5 94.5,36C 100.825,35.5005 107.158,35.3338 113.5,35.5 Z"/></g>
<g><path style="opacity:1" fill="#fe9519" d="M 113.5,35.5 C 117.167,35.5 120.833,35.5 124.5,35.5C 125.333,151.999 125.833,268.666 126,385.5C 126.708,386.381 127.542,387.047 128.5,387.5C 225.665,388.499 322.999,388.833 420.5,388.5C 420.5,398.833 420.5,409.167 420.5,419.5C 420.489,421.017 419.823,422.184 418.5,423C 407.505,423.5 396.505,423.667 385.5,423.5C 288.658,423.548 191.991,423.548 95.5,423.5C 101.176,423.666 106.843,423.499 112.5,423C 112,422.5 111.5,422 111,421.5C 110.333,293.833 110.333,166.167 111,38.5C 111.698,37.3094 112.531,36.3094 113.5,35.5 Z"/></g>
<g><path style="opacity:1" fill="#db732f" d="M 341.5,35.5 C 366.836,35.3334 392.169,35.5 417.5,36C 421.212,38.513 422.378,42.013 421,46.5C 419.681,48.4875 417.848,49.6541 415.5,50C 391.167,50.6667 366.833,50.6667 342.5,50C 336.413,45.4454 336.08,40.6121 341.5,35.5 Z"/></g>
<g><path style="opacity:1" fill="#feaf14" d="M 187.5,111.5 C 179.5,111.5 171.5,111.5 163.5,111.5C 163.333,88.8309 163.5,66.1642 164,43.5C 164.5,43 165,42.5 165.5,42C 172.55,41.2032 179.55,41.3699 186.5,42.5C 187.5,65.4903 187.833,88.4903 187.5,111.5 Z"/></g>
<g><path style="opacity:1" fill="#92e0e8" d="M 305.5,111.5 C 297.5,111.5 289.5,111.5 281.5,111.5C 281.167,88.4903 281.5,65.4903 282.5,42.5C 289.45,41.3699 296.45,41.2032 303.5,42C 304,42.5 304.5,43 305,43.5C 305.5,66.1642 305.667,88.8309 305.5,111.5 Z"/></g>
<g><path style="opacity:1" fill="#fd3a47" d="M 226.5,111.5 C 218.5,111.5 210.5,111.5 202.5,111.5C 202.333,95.1633 202.5,78.8299 203,62.5C 203.5,62 204,61.5 204.5,61C 211.55,60.2032 218.55,60.3699 225.5,61.5C 226.499,78.1533 226.833,94.82 226.5,111.5 Z"/></g>
<g><path style="opacity:1" fill="#db7430" d="M 342.5,60.5 C 366.836,60.3334 391.169,60.5 415.5,61C 421.616,63.3215 423.116,67.4881 420,73.5C 419.25,74.1258 418.416,74.6258 417.5,75C 392.167,75.6667 366.833,75.6667 341.5,75C 336.057,69.8089 336.391,64.9755 342.5,60.5 Z"/></g>
<g><path style="opacity:1" fill="#ec9518" d="M 78.5,70.5 C 78.0133,71.4734 77.5133,72.4734 77,73.5C 76.1705,194.207 76.3372,314.873 77.5,435.5C 69.7483,427.418 62.7483,418.751 56.5,409.5C 56.5,314.167 56.5,218.833 56.5,123.5C 56.3334,106.83 56.5001,90.1633 57,73.5C 57.5,72.3333 58.3333,71.5 59.5,71C 65.8246,70.5005 72.1579,70.3338 78.5,70.5 Z"/></g>
<g><path style="opacity:1" fill="#feae10" d="M 78.5,70.5 C 82.8333,70.5 87.1667,70.5 91.5,70.5C 92.3331,187.333 92.8331,304.333 93,421.5C 93.7083,422.381 94.5416,423.047 95.5,423.5C 191.991,423.548 288.658,423.548 385.5,423.5C 385.667,434.505 385.5,445.505 385,456.5C 384.292,457.381 383.458,458.047 382.5,458.5C 289.499,458.667 196.499,458.5 103.5,458C 102.756,456.961 101.756,456.461 100.5,456.5C 99.5,456.167 98.8333,455.5 98.5,454.5C 97.4154,452.413 95.7488,451.08 93.5,450.5C 87.5374,446.205 82.204,441.205 77.5,435.5C 76.3372,314.873 76.1705,194.207 77,73.5C 77.5133,72.4734 78.0133,71.4734 78.5,70.5 Z"/></g>
<g><path style="opacity:1" fill="#3fc57e" d="M 266.5,111.5 C 258.167,111.5 249.833,111.5 241.5,111.5C 241.334,103.16 241.5,94.8267 242,86.5C 242.374,85.5838 242.874,84.7504 243.5,84C 250.167,83.3333 256.833,83.3333 263.5,84C 264.667,84.5 265.5,85.3333 266,86.5C 266.5,94.8267 266.666,103.16 266.5,111.5 Z"/></g>
<g><path style="opacity:1" fill="#db732f" d="M 341.5,86.5 C 366.836,86.3334 392.169,86.5 417.5,87C 421.212,89.513 422.378,93.013 421,97.5C 419.681,99.4875 417.848,100.654 415.5,101C 391.167,101.667 366.833,101.667 342.5,101C 336.413,96.4454 336.08,91.6121 341.5,86.5 Z"/></g>
<g><path style="opacity:1" fill="#54bbee" d="M 163.5,111.5 C 171.5,111.5 179.5,111.5 187.5,111.5C 192.5,111.5 197.5,111.5 202.5,111.5C 210.5,111.5 218.5,111.5 226.5,111.5C 231.5,111.5 236.5,111.5 241.5,111.5C 249.833,111.5 258.167,111.5 266.5,111.5C 271.5,111.5 276.5,111.5 281.5,111.5C 289.5,111.5 297.5,111.5 305.5,111.5C 314.232,110.401 318.065,114.068 317,122.5C 316.5,124.333 315.333,125.5 313.5,126C 260.833,126.667 208.167,126.667 155.5,126C 150.188,121.428 150.188,116.761 155.5,112C 158.146,111.503 160.813,111.336 163.5,111.5 Z"/></g>
<g><path style="opacity:1" fill="#db7430" d="M 342.5,111.5 C 366.836,111.333 391.169,111.5 415.5,112C 421.616,114.321 423.116,118.488 420,124.5C 419.25,125.126 418.416,125.626 417.5,126C 392.167,126.667 366.833,126.667 341.5,126C 336.057,120.809 336.391,115.976 342.5,111.5 Z"/></g>
<g><path style="opacity:0.982" fill="#445ea0" d="M 56.5,123.5 C 56.5,218.833 56.5,314.167 56.5,409.5C 25.5782,367.062 10.2448,319.395 10.5,266.5C 10.2448,213.605 25.5782,165.938 56.5,123.5 Z"/></g>
<g><path style="opacity:0.983" fill="#455ea0" d="M 454.5,122.5 C 499.695,187.999 511.861,259.332 491,336.5C 462.731,422.435 405.231,478.269 318.5,504C 304.823,507.238 291.157,509.738 277.5,511.5C 262.833,511.5 248.167,511.5 233.5,511.5C 185.34,506.676 142.34,489.342 104.5,459.5C 197.335,459.833 290.001,459.499 382.5,458.5C 383.458,458.047 384.292,457.381 385,456.5C 385.5,445.505 385.667,434.505 385.5,423.5C 396.505,423.667 407.505,423.5 418.5,423C 419.823,422.184 420.489,421.017 420.5,419.5C 421.494,409.013 421.828,398.346 421.5,387.5C 431.506,387.666 441.506,387.5 451.5,387C 452,386.5 452.5,386 453,385.5C 453.167,297.666 453.667,209.999 454.5,122.5 Z"/></g>
<g><path style="opacity:1" fill="#91e0e8" d="M 227.5,142.5 C 257.721,143.876 276.887,159.21 285,188.5C 285.499,192.486 285.666,196.486 285.5,200.5C 275.833,200.5 266.167,200.5 256.5,200.5C 255.205,182.538 245.538,172.871 227.5,171.5C 227.5,161.833 227.5,152.167 227.5,142.5 Z"/></g>
<g><path style="opacity:1" fill="#fd3a47" d="M 304.5,156.5 C 342.168,156.333 379.835,156.5 417.5,157C 421.212,159.513 422.378,163.013 421,167.5C 419.681,169.487 417.848,170.654 415.5,171C 378.833,171.667 342.167,171.667 305.5,171C 299.292,166.58 298.958,161.747 304.5,156.5 Z"/></g>
<g><path style="opacity:1" fill="#fd3a46" d="M 205.5,157.5 C 207.833,157.5 210.167,157.5 212.5,157.5C 212.5,166.833 212.5,176.167 212.5,185.5C 194.775,187.56 185.109,197.56 183.5,215.5C 173.833,215.5 164.167,215.5 154.5,215.5C 155.951,185.778 170.951,166.611 199.5,158C 201.473,157.505 203.473,157.338 205.5,157.5 Z"/></g>
<g><path style="opacity:1" fill="#e4b5c5" d="M 205.5,157.5 C 207.948,156.527 210.615,156.194 213.5,156.5C 213.827,166.348 213.494,176.014 212.5,185.5C 212.5,176.167 212.5,166.833 212.5,157.5C 210.167,157.5 207.833,157.5 205.5,157.5 Z"/></g>
<g><path style="opacity:1" fill="#fd3b48" d="M 305.5,181.5 C 342.168,181.333 378.835,181.5 415.5,182C 421.616,184.321 423.116,188.488 420,194.5C 419.25,195.126 418.416,195.626 417.5,196C 379.833,196.667 342.167,196.667 304.5,196C 299.068,190.761 299.401,185.928 305.5,181.5 Z"/></g>
<g><path style="opacity:1" fill="#fd3a47" d="M 304.5,207.5 C 342.168,207.333 379.835,207.5 417.5,208C 421.212,210.513 422.378,214.013 421,218.5C 419.681,220.487 417.848,221.654 415.5,222C 378.833,222.667 342.167,222.667 305.5,222C 299.292,217.58 298.958,212.747 304.5,207.5 Z"/></g>
<g><path style="opacity:1" fill="#e5d8b7" d="M 241.5,215.5 C 251.319,214.506 261.319,214.173 271.5,214.5C 271.802,217.059 271.468,219.393 270.5,221.5C 270.5,219.5 270.5,217.5 270.5,215.5C 260.833,215.5 251.167,215.5 241.5,215.5 Z"/></g>
<g><path style="opacity:1" fill="#feaf14" d="M 154.5,215.5 C 164.167,215.5 173.833,215.5 183.5,215.5C 187.752,238.957 201.419,247.79 224.5,242C 235.571,236.703 241.238,227.869 241.5,215.5C 251.167,215.5 260.833,215.5 270.5,215.5C 270.5,217.5 270.5,219.5 270.5,221.5C 266.72,247.782 252.054,264.615 226.5,272C 195.765,277.216 173.265,266.049 159,238.5C 156.208,231.081 154.708,223.415 154.5,215.5 Z"/></g>
<g><path style="opacity:1" fill="#fd3b48" d="M 305.5,232.5 C 342.168,232.333 378.835,232.5 415.5,233C 421.616,235.321 423.116,239.488 420,245.5C 419.25,246.126 418.416,246.626 417.5,247C 379.833,247.667 342.167,247.667 304.5,247C 299.068,241.761 299.401,236.928 305.5,232.5 Z"/></g>
<g><path style="opacity:1" fill="#fd3845" d="M 395.5,314.5 C 390.156,314.334 384.823,314.501 379.5,315C 379,315.5 378.5,316 378,316.5C 377.501,321.823 377.334,327.156 377.5,332.5C 366.162,332.667 354.828,332.5 343.5,332C 342.692,331.692 342.025,331.192 341.5,330.5C 340.348,313.878 340.182,297.211 341,280.5C 341.833,279.667 342.667,278.833 343.5,278C 359.833,277.333 376.167,277.333 392.5,278C 393.333,278.833 394.167,279.667 395,280.5C 395.5,291.828 395.667,303.162 395.5,314.5 Z"/></g>
<g><path style="opacity:1" fill="#55bbef" d="M 165.5,289.5 C 206.168,289.333 246.835,289.5 287.5,290C 293.742,294.219 294.075,298.885 288.5,304C 247.167,304.667 205.833,304.667 164.5,304C 160.788,301.487 159.622,297.987 161,293.5C 162.397,291.93 163.897,290.596 165.5,289.5 Z"/></g>
<g><path style="opacity:1" fill="#37c47a" d="M 395.5,314.5 C 401.176,314.334 406.843,314.501 412.5,315C 413,315.5 413.5,316 414,316.5C 414.955,327.931 414.622,339.264 413,350.5C 401.91,351.653 390.743,351.82 379.5,351C 379,350.5 378.5,350 378,349.5C 377.501,343.843 377.334,338.176 377.5,332.5C 377.334,327.156 377.501,321.823 378,316.5C 378.5,316 379,315.5 379.5,315C 384.823,314.501 390.156,314.334 395.5,314.5 Z"/></g>
<g><path style="opacity:1" fill="#54bbef" d="M 164.5,315.5 C 205.835,315.333 247.168,315.5 288.5,316C 293.997,321.033 293.664,325.7 287.5,330C 246.833,330.667 206.167,330.667 165.5,330C 160.857,327.928 159.357,324.428 161,319.5C 162.376,318.295 163.542,316.962 164.5,315.5 Z"/></g>
<g><path style="opacity:1" fill="#55bbef" d="M 165.5,340.5 C 206.168,340.333 246.835,340.5 287.5,341C 293.742,345.219 294.075,349.885 288.5,355C 247.167,355.667 205.833,355.667 164.5,355C 160.788,352.487 159.622,348.987 161,344.5C 162.397,342.93 163.897,341.596 165.5,340.5 Z"/></g>
<g><path style="opacity:1" fill="#b8967a" d="M 128.5,387.5 C 134.833,387.5 141.167,387.5 147.5,387.5C 238.833,387.5 330.167,387.5 421.5,387.5C 421.828,398.346 421.494,409.013 420.5,419.5C 420.5,409.167 420.5,398.833 420.5,388.5C 322.999,388.833 225.665,388.499 128.5,387.5 Z"/></g>
<g><path style="opacity:0.984" fill="#b58d51" d="M 93.5,450.5 C 95.7488,451.08 97.4154,452.413 98.5,454.5C 96.2512,453.92 94.5846,452.587 93.5,450.5 Z"/></g>
<g><path style="opacity:1" fill="#ca9738" d="M 100.5,456.5 C 101.756,456.461 102.756,456.961 103.5,458C 196.499,458.5 289.499,458.667 382.5,458.5C 290.001,459.499 197.335,459.833 104.5,459.5C 102.596,459.262 101.262,458.262 100.5,456.5 Z"/></g>
</svg>
