<svg width="200" height="200" viewBox="0 0 200 200" fill="none" xmlns="http://www.w3.org/2000/svg">
<path d="M88.0418 109.625L87.4585 104.667C79.0321 107.24 71.5341 112.205 65.8752 118.958C65.098 119.957 64.6862 121.192 64.7085 122.458C64.6425 123.82 65.0553 125.161 65.8752 126.25C66.4222 126.921 67.1117 127.461 67.8937 127.833C68.6756 128.204 69.5304 128.397 70.396 128.397C71.2616 128.397 72.1164 128.204 72.8984 127.833C73.6803 127.461 74.3698 126.921 74.9168 126.25C78.9766 121.427 84.3453 117.881 90.3752 116.042C88.884 114.234 88.0601 111.968 88.0418 109.625Z" fill="#FFE95C"/>
<path d="M112.542 104.667L111.958 109.625C111.94 111.968 111.116 114.234 109.625 116.042C115.655 117.881 121.024 121.427 125.083 126.25C125.63 126.921 126.32 127.461 127.102 127.833C127.884 128.204 128.739 128.397 129.604 128.397C130.47 128.397 131.325 128.204 132.107 127.833C132.888 127.461 133.578 126.921 134.125 126.25C134.906 125.195 135.328 123.917 135.328 122.604C135.328 121.291 134.906 120.013 134.125 118.958C128.466 112.205 120.968 107.24 112.542 104.667Z" fill="#FFE95C"/>
<path d="M85.7083 81.0415C72.8438 83.8106 61.0778 90.3022 51.875 99.7082C50.7759 100.785 50.1469 102.253 50.125 103.792C50.2418 105.032 50.6409 106.229 51.2917 107.292C51.7638 107.994 52.3907 108.58 53.1243 109.003C53.8578 109.426 54.6786 109.675 55.5235 109.731C56.3684 109.788 57.2149 109.649 57.9981 109.328C58.7814 109.006 59.4804 108.509 60.0417 107.875C67.3086 100.512 76.5101 95.3552 86.5833 92.9998L85.7083 81.0415Z" fill="#FFE95C"/>
<path d="M114.292 81.0415L113.417 92.9998C123.49 95.3552 132.691 100.512 139.958 107.875C140.519 108.509 141.218 109.006 142.002 109.328C142.785 109.649 143.631 109.788 144.476 109.731C145.321 109.675 146.142 109.426 146.876 109.003C147.609 108.58 148.236 107.994 148.708 107.292C149.534 106.167 149.929 104.783 149.822 103.392C149.715 102 149.113 100.693 148.125 99.7082C138.922 90.3022 127.156 83.8106 114.292 81.0415Z" fill="#FFE95C"/>
<path d="M83.9585 57.7085C66.6363 60.8611 50.5591 68.8492 37.5835 80.7502C36.573 81.7831 35.9602 83.14 35.8534 84.5811C35.7467 86.0222 36.1529 87.4546 37.0002 88.6252C37.505 89.2841 38.1446 89.8278 38.8763 90.2198C39.6079 90.6119 40.4149 90.8432 41.2431 90.8984C42.0714 90.9536 42.9018 90.8314 43.6791 90.54C44.4563 90.2486 45.1624 89.7946 45.7502 89.2085C56.7017 79.1225 70.2272 72.2588 84.8335 69.3752L83.9585 57.7085Z" fill="#FFE95C"/>
<path d="M162.417 80.7502C149.441 68.8492 133.364 60.8611 116.042 57.7085L115.167 69.3752C129.773 72.2588 143.298 79.1225 154.25 89.2085C154.838 89.7946 155.544 90.2486 156.321 90.54C157.098 90.8314 157.929 90.9536 158.757 90.8984C159.585 90.8432 160.392 90.6119 161.124 90.2198C161.855 89.8278 162.495 89.2841 163 88.6252C163.847 87.4546 164.253 86.0222 164.147 84.5811C164.04 83.14 163.427 81.7831 162.417 80.7502Z" fill="#FFE95C"/>
<path d="M99.9998 155.417C108.054 155.417 114.583 148.887 114.583 140.833C114.583 132.779 108.054 126.25 99.9998 126.25C91.9457 126.25 85.4165 132.779 85.4165 140.833C85.4165 148.887 91.9457 155.417 99.9998 155.417Z" fill="#FFE95C"/>
<path d="M99.7085 114.583H100.292C101.044 114.623 101.796 114.509 102.502 114.248C103.209 113.988 103.854 113.586 104.4 113.067C104.946 112.548 105.381 111.924 105.677 111.232C105.974 110.54 106.126 109.795 106.125 109.042L110.792 50.4167C110.792 48.9995 110.513 47.5962 109.97 46.2869C109.428 44.9776 108.633 43.7879 107.631 42.7858C106.629 41.7837 105.439 40.9888 104.13 40.4465C102.821 39.9041 101.417 39.625 100 39.625C98.583 39.625 97.1797 39.9041 95.8704 40.4465C94.5611 40.9888 93.3714 41.7837 92.3693 42.7858C91.3672 43.7879 90.5723 44.9776 90.03 46.2869C89.4876 47.5962 89.2085 48.9995 89.2085 50.4167L93.8752 109.042C93.8741 109.795 94.0265 110.54 94.3231 111.232C94.6196 111.924 95.0541 112.548 95.6 113.067C96.1459 113.586 96.7917 113.988 97.4981 114.248C98.2045 114.509 98.9566 114.623 99.7085 114.583Z" fill="#FFE95C"/>
</svg>
