<svg id="line" viewBox="0 0 64 64" xmlns="http://www.w3.org/2000/svg"><path d="m49.93 21.23c1.29-.98 2.13-2.51 2.13-4.25 0-2.95-2.4-5.35-5.35-5.35s-5.35 2.4-5.35 5.35c0 1.74.85 3.27 2.13 4.25-2.98 1.15-5.1 4.04-5.1 7.41 0 1.08.88 1.96 1.96 1.96h12.71c1.08 0 1.96-.88 1.96-1.96 0-3.38-2.12-6.26-5.1-7.41zm-6.57-4.25c0-1.85 1.5-3.35 3.35-3.35s3.35 1.5 3.35 3.35-1.5 3.35-3.35 3.35-3.35-1.5-3.35-3.35zm-2.97 11.66c0-3.28 2.67-5.95 5.95-5.95h.73c3.27 0 5.93 2.65 5.95 5.91zm-14.38 24.32c0-.55.45-1 1-1h4.93c.55 0 1 .45 1 1s-.45 1-1 1h-4.93c-.55 0-1-.45-1-1zm-11.41-21.99c0-.55.45-1 1-1h10.46c.55 0 1 .45 1 1s-.45 1-1 1h-10.46c-.55 0-1-.45-1-1zm1 7.28c-.55 0-1-.45-1-1s.45-1 1-1h10.46c.55 0 1 .45 1 1s-.45 1-1 1zm.61 4.71h26.12c.55 0 1 .45 1 1s-.45 1-1 1h-26.12c-.55 0-1-.45-1-1s.45-1 1-1zm30.54-36.23c-5.6 0-10.49 3.05-13.14 7.56h-25.86c-1.65 0-3 1.35-3 3v30.95h-1.75c-.55 0-1 .45-1 1v2.65c0 2.97 2.42 5.39 5.39 5.39h44.41c2.97 0 5.39-2.42 5.39-5.39v-2.65c0-.55-.45-1-1-1h-1.75v-13.12c4.51-2.65 7.56-7.54 7.56-13.14 0-8.41-6.84-15.25-15.25-15.25zm-40 10.55c0-.55.45-1 1-1h24.86c-.38.94-.66 1.92-.85 2.94h-19.54c-1.65 0-3 1.35-3 3v26h-2.46v-30.94zm25.62 19.14c.24.25.58.35.92.28l6.26-1.29c2.2 1.18 4.68 1.8 7.2 1.8.42 0 .83-.03 1.23-.06v11.08h-36.76v-26c0-.55.45-1 1-1h19.32c-.01.25-.04.49-.04.74 0 2.68.7 5.31 2.03 7.61l-1.42 5.91c-.08.33.02.68.25.93zm22.82 13.81v1.65c0 1.87-1.52 3.39-3.39 3.39h-44.4c-1.87 0-3.39-1.52-3.39-3.39v-1.65zm-5.21-2v-11.37c.85-.18 1.67-.44 2.46-.76v12.13zm3.07-14.61c-1.87 1.02-4.02 1.6-6.3 1.6s-4.56-.6-6.54-1.72c-.15-.09-.32-.13-.49-.13-.07 0-.13 0-.2.02l-5.08 1.05 1.15-4.77c.06-.26.02-.53-.12-.76-1.28-2.08-1.95-4.47-1.95-6.93 0-7.3 5.94-13.25 13.25-13.25s13.25 5.94 13.25 13.25c0 5.02-2.81 9.4-6.94 11.65z"/></svg>