<?xml version="1.0"?>
<svg xmlns="http://www.w3.org/2000/svg" viewBox="0 0 64 64" width="512" height="512"><g id="Outline"><path d="M60,7a5.006,5.006,0,0,0-5-5H9A5.006,5.006,0,0,0,4,7V38H2v3a3,3,0,0,0,3,3H18V61h2.414L22,59.414l2,2,2-2,2,2,2-2,2,2,2-2,2,2,2-2,2,2,2-2L43.586,61H46V44H59a3,3,0,0,0,3-3V38H60ZM6,7A3,3,0,0,1,9,4H55a3,3,0,0,1,3,3V38H46V36H56V6H8V36H18v2H6Zm10,7v2h2v2H17a3,3,0,0,1,0-6H47a3,3,0,0,1,0,6H46V16h2V14Zm30,6h1a5,5,0,0,0,0-10H17a5,5,0,0,0,0,10h1V34H10V8H54V34H46ZM5,42a1,1,0,0,1-1-1V40H18v2ZM44,58.586l-2-2-2,2-2-2-2,2-2-2-2,2-2-2-2,2-2-2-2,2-2-2-2,2V16H44ZM60,41a1,1,0,0,1-1,1H46V40H60Z"/><rect x="21" y="20" width="2" height="2"/><rect x="25" y="20" width="2" height="2"/><rect x="29" y="20" width="2" height="2"/><rect x="41" y="20" width="2" height="2"/><rect x="33" y="20" width="2" height="2"/><rect x="37" y="20" width="2" height="2"/><rect x="28" y="30" width="8" height="2"/><rect x="26" y="26" width="12" height="2"/><rect x="22" y="35" width="12" height="2"/><rect x="22" y="39" width="10" height="2"/><rect x="22" y="43" width="8" height="2"/><rect x="22" y="47" width="12" height="2"/><rect x="38" y="35" width="4" height="2"/><rect x="38" y="39" width="4" height="2"/><rect x="38" y="43" width="4" height="2"/><rect x="38" y="47" width="4" height="2"/><rect x="26" y="52" width="12" height="2"/></g></svg>
