<svg id="Layer_1" enable-background="new 0 0 512 512" viewBox="0 0 512 512" xmlns="http://www.w3.org/2000/svg"><path d="m178.581 389.391c0-4.418 3.582-8 8-8h82.667c4.418 0 8 3.582 8 8s-3.582 8-8 8h-82.667c-4.419 0-8-3.582-8-8zm90.666-257.433h-82.667c-4.418 0-8 3.582-8 8s3.582 8 8 8h82.667c4.418 0 8-3.582 8-8s-3.581-8-8-8zm-90.666 292.359c0 4.418 3.582 8 8 8h94.214c4.418 0 8-3.582 8-8s-3.582-8-8-8h-94.214c-4.419 0-8 3.582-8 8zm-22.069-42.055v49.185c0 6.842-5.566 12.407-12.408 12.407h-49.185c-6.841 0-12.407-5.565-12.407-12.407v-49.185c0-6.842 5.566-12.408 12.407-12.408h49.185c6.842 0 12.408 5.566 12.408 12.408zm-16 3.592h-42v42h42zm-29.692-49.323c1.555 1.516 3.57 2.271 5.583 2.271 2.061 0 4.12-.791 5.684-2.37l14.056-14.188c3.109-3.139 3.086-8.203-.053-11.313-3.138-3.108-8.203-3.085-11.313.054l-8.471 8.55-2.159-2.104c-3.165-3.085-8.229-3.02-11.313.145s-3.019 8.229.145 11.312zm45.692-37.414v49.185c0 6.842-5.566 12.407-12.408 12.407h-49.185c-6.841 0-12.407-5.565-12.407-12.407v-49.185c0-6.842 5.566-12.408 12.407-12.408h49.185c6.842 0 12.408 5.566 12.408 12.408zm-16 3.592h-42v42h42zm16-86.736v49.185c0 6.842-5.566 12.408-12.408 12.408h-49.185c-6.841 0-12.407-5.566-12.407-12.408v-49.185c0-6.842 5.566-12.408 12.407-12.408h49.185c6.842 0 12.408 5.566 12.408 12.408zm-16 3.592h-42v42h42zm-29.692-49.322c1.555 1.515 3.57 2.271 5.583 2.271 2.061 0 4.12-.792 5.684-2.37l14.056-14.188c3.109-3.139 3.086-8.204-.053-11.313-3.138-3.109-8.203-3.086-11.313.053l-8.471 8.551-2.159-2.104c-3.165-3.084-8.229-3.019-11.313.145s-3.019 8.229.145 11.313zm45.692-37.415v49.185c0 6.841-5.566 12.407-12.408 12.407h-49.185c-6.841 0-12.407-5.566-12.407-12.407v-49.185c0-6.842 5.566-12.408 12.407-12.408h49.185c6.842 0 12.408 5.566 12.408 12.408zm-16 3.592h-42v42h42zm370.433 39.933v181.776c0 11.65-9.478 21.128-21.128 21.128h-89.565v103.363c0 15.648-12.731 28.38-28.379 28.38h-342.438c-15.648 0-28.379-12.731-28.379-28.38v-409.151c0-15.648 12.731-28.378 28.379-28.378h136.32l-11.401-16.12c-3.848-5.44-4.338-12.489-1.282-18.395 3.056-5.907 9.094-9.576 15.757-9.576h63.648c6.663 0 12.701 3.669 15.758 9.575s2.566 12.955-1.281 18.395l-11.402 16.12h136.32c15.648 0 28.379 12.73 28.379 28.378v81.756h89.565c11.651.001 21.129 9.479 21.129 21.129zm-235.452-21.128h75.551v-60.928h-75.837c-2.855 7.815-10.202 13.072-18.75 13.072h-111.608c-8.548 0-15.895-5.257-18.75-13.072h-75.837v367.495h252.009v-40.773c0-4.418 3.582-8 8-8h40.773v-33.762h-75.551c-11.65 0-21.129-9.478-21.129-21.128v-8.956h-67.783c-4.418 0-8-3.582-8-8s3.582-8 8-8h67.783v-18.926h-67.783c-4.418 0-8-3.582-8-8s3.582-8 8-8h67.783v-32.219h-67.783c-4.418 0-8-3.582-8-8s3.582-8 8-8h67.783v-18.926h-67.783c-4.418 0-8-3.582-8-8s3.582-8 8-8h67.783v-32.218h-67.783c-4.418 0-8-3.582-8-8s3.582-8 8-8h70.051c3.479-6.903 10.617-11.659 18.861-11.659zm42.778 273.794v21.46l21.46-21.46zm33.486-218.918 22.147-18.157c5.069-4.157 12.43-4.157 17.5 0l22.147 18.157v-38.875h-61.795v38.875zm20.115-149.011h-89.275l-3.718 17.207h80.165c4.418 0 8 3.582 8 8v68.928h17.207v-81.756c0-6.826-5.553-12.379-12.379-12.379zm-183.556-4.323c-1.375 2.655-4.115 4.323-7.105 4.323h-46.133l5.861 27.124c.414 1.917 1.949 3.155 3.91 3.155h111.608c1.961 0 3.496-1.238 3.91-3.155l5.861-27.124h-46.133c-2.99 0-5.73-1.667-7.105-4.323-1.374-2.656-1.153-5.855.574-8.297l20.327-28.74c.409-.578.454-1.184.135-1.801s-.84-.929-1.548-.929h-63.648c-.708 0-1.229.312-1.548.929s-.274 1.223.135 1.802l20.327 28.739c1.725 2.442 1.946 5.641.572 8.297zm195.935 322.49h-17.207v41.762c0 2.122-.843 4.156-2.343 5.657l-48.773 48.773c-1.5 1.5-3.535 2.343-5.657 2.343h-268.009c-4.418 0-8-3.582-8-8v-383.495c0-4.418 3.582-8 8-8h80.166l-3.718-17.207h-89.275c-6.826 0-12.379 5.553-12.379 12.378v409.152c0 6.826 5.553 12.38 12.379 12.38h342.437c6.826 0 12.379-5.554 12.379-12.38zm110.694-202.904c0-2.78-2.349-5.128-5.128-5.128h-60.265v43.52c0 5.394-3.025 10.176-7.896 12.48-4.871 2.305-10.486 1.612-14.657-1.807l-24.345-19.959-24.345 19.959c-2.538 2.081-5.612 3.152-8.727 3.152-2.003 0-4.023-.443-5.93-1.345-4.87-2.305-7.896-7.087-7.896-12.48v-43.52h-60.264c-2.78 0-5.129 2.349-5.129 5.128v181.776c0 2.779 2.349 5.128 5.129 5.128h214.324c2.78 0 5.128-2.349 5.128-5.128v-181.776zm-127.421 122.829v32.688c0 4.418-3.582 8-8 8h-57.772c-4.418 0-8-3.582-8-8v-32.688c0-4.418 3.582-8 8-8h57.772c4.418 0 8 3.582 8 8zm-16 8h-41.772v16.688h41.772z"/></svg>