<svg id="Capa_1" enable-background="new 0 0 512.01 512.01" height="512" viewBox="0 0 512.01 512.01" width="512" xmlns="http://www.w3.org/2000/svg"><g><g id="Page-1_25_"><g id="_x30_26---Change-Payment-Method"><path id="Shape_105_" d="m460.8 243.423v-149.564c-.028-23.552-19.114-42.638-42.667-42.667h-375.466c-23.553.029-42.639 19.115-42.667 42.667v221.867c.028 23.552 19.114 42.638 42.667 42.667h231.765c7.754 53.999 51.123 95.874 105.361 101.73s105.546-25.796 124.648-76.895 1.138-108.647-43.641-139.805zm-443.733-123.964h426.667v34.133h-426.667zm25.6-51.2h375.467c14.138 0 25.6 11.462 25.6 25.6v8.533h-426.667v-8.533c0-14.138 11.461-25.6 25.6-25.6zm0 273.067c-14.138 0-25.6-11.462-25.6-25.6v-145.067h426.667v62.891c-40.853-19.635-89.329-14.235-124.86 13.909h-148.207c-4.713 0-8.533 3.821-8.533 8.533 0 4.713 3.821 8.533 8.533 8.533h130.492c-18.153 21.472-28.106 48.683-28.092 76.8h-230.4zm349.866 102.4c-56.554 0-102.4-45.846-102.4-102.4s45.846-102.4 102.4-102.4 102.4 45.846 102.4 102.4c-.061 56.528-45.871 102.339-102.4 102.4z"/><path id="Shape_104_" d="m102.4 247.459h-34.133c-14.138 0-25.6 11.462-25.6 25.6v17.067c0 14.138 11.462 25.6 25.6 25.6h34.133c14.138 0 25.6-11.462 25.6-25.6v-17.067c0-14.138-11.462-25.6-25.6-25.6zm8.533 42.667c0 4.713-3.821 8.533-8.533 8.533h-34.133c-4.713 0-8.533-3.821-8.533-8.533v-17.067c0-4.713 3.821-8.533 8.533-8.533h34.133c4.713 0 8.533 3.821 8.533 8.533z"/><g clip-rule="evenodd" fill-rule="evenodd"><path id="Path_100_" d="m247.467 290.126h-76.8c-4.713 0-8.533 3.821-8.533 8.533 0 4.713 3.821 8.533 8.533 8.533h76.8c4.713 0 8.533-3.821 8.533-8.533 0-4.713-3.82-8.533-8.533-8.533z"/><path id="Path_99_" d="m343.834 335.293-2.313 2.313c1.948-26.742 24.199-47.452 51.012-47.479 4.713 0 8.533-3.82 8.533-8.533s-3.82-8.533-8.533-8.533c-36.362.047-66.305 28.587-68.096 64.905l-2.671-2.671c-3.348-3.234-8.671-3.188-11.962.104-3.292 3.292-3.338 8.614-.104 11.962l17.067 17.067c3.332 3.331 8.734 3.331 12.066 0l17.067-17.067c3.234-3.348 3.188-8.671-.104-11.962-3.292-3.294-8.614-3.34-11.962-.106z"/><path id="Path_98_" d="m446.234 318.226-17.067 17.067c-3.234 3.348-3.188 8.671.104 11.962 3.292 3.292 8.614 3.338 11.962.104l2.313-2.313c-1.948 26.742-24.199 47.452-51.012 47.479-4.713 0-8.533 3.82-8.533 8.533s3.82 8.533 8.533 8.533c36.362-.047 66.305-28.587 68.096-64.905l2.671 2.671c3.348 3.234 8.671 3.188 11.962-.104 3.292-3.292 3.338-8.614.104-11.962l-17.067-17.065c-3.333-3.331-8.734-3.331-12.066 0z"/></g></g></g></g></svg>