<svg id="Layer_1" enable-background="new 0 0 66 66" height="512" viewBox="0 0 66 66" width="512" xmlns="http://www.w3.org/2000/svg"><g id="icons"><g><g><g><path d="m62.6 53.7c-.6 0-1-.4-1-1v-46.7c0-1.7-1.3-3-3-3h-39.1c-1.7 0-3 1.3-3 3v36.1c0 .6-.4 1-1 1s-1-.4-1-1v-36.1c0-2.8 2.2-5 5-5h39.1c2.8 0 5 2.2 5 5v46.7c0 .6-.4 1-1 1z"/></g><g><path d="m51 65h-31.5c-2.8 0-5-2.2-5-5v-.9c0-.6.4-1 1-1s1 .4 1 1v.9c0 1.7 1.3 3 3 3h31.5c.6 0 1 .4 1 1s-.4 1-1 1z"/></g><g><path d="m51.3 65c-.1 0-.3 0-.4-.1-.4-.2-.6-.5-.6-.9v-7.6c0-2.6 2.1-4.7 4.7-4.7h7.6c.4 0 .8.2.9.6.2.4.1.8-.2 1.1l-11.3 11.3c-.2.2-.4.3-.7.3zm3.7-11.3c-1.5 0-2.7 1.2-2.7 2.7v5.2l7.9-7.9z"/></g></g><g><path d="m58.2 16h-.6c-1.8 0-3.4-.9-4.4-2.3-1 1.4-2.6 2.3-4.4 2.3h-.6c-1.8 0-3.4-.9-4.4-2.3-1 1.4-2.6 2.3-4.4 2.3h-.6c-1.8 0-3.4-.9-4.4-2.3-1 1.4-2.6 2.3-4.4 2.3h-.6c-1.8 0-3.4-.9-4.4-2.3-1 1.4-2.6 2.3-4.4 2.3h-.6c-2.9 0-5.4-2.5-5.4-5.4v-4.6c0-2.8 2.2-5 5-5h39.1c2.8 0 5 2.2 5 5v.5c0 .2 0 .3-.1.4v3.7c0 2.9-2.5 5.4-5.4 5.4zm-4-9.5v4.1c0 1.8 1.6 3.4 3.4 3.4h.6c1.8 0 3.4-1.6 3.4-3.4v-4.1c0-.2 0-.3.1-.4v-.1c0-1.7-1.3-3-3-3h-39.1c-1.7 0-3 1.3-3 3v4.6c0 1.8 1.6 3.4 3.4 3.4h.6c1.8 0 3.4-1.6 3.4-3.4v-4.1c0-.6.4-1 1-1s1 .4 1 1v4.1c0 1.8 1.6 3.4 3.4 3.4h.6c1.8 0 3.4-1.6 3.4-3.4v-4.1c0-.6.4-1 1-1s1 .4 1 1v4.1c0 1.8 1.6 3.4 3.4 3.4h.6c1.8 0 3.4-1.6 3.4-3.4v-4.1c0-.6.4-1 1-1s1 .4 1 1v4.1c0 1.8 1.6 3.4 3.4 3.4h.6c1.8 0 3.4-1.6 3.4-3.4v-4.1c0-.6.4-1 1-1s1 .4 1 1z"/></g><g><g><path d="m24.6 23.8h-.2c-.6 0-1-.4-1-1s.4-1 1-1h.2c.6 0 1 .4 1 1s-.4 1-1 1z"/></g><g><path d="m53.8 23.8h-24.4c-.6 0-1-.4-1-1s.4-1 1-1h24.4c.6 0 1 .4 1 1s-.4 1-1 1z"/></g></g><g><g><path d="m24.6 31.3h-.2c-.6 0-1-.4-1-1s.4-1 1-1h.2c.6 0 1 .4 1 1s-.4 1-1 1z"/></g><g><path d="m53.8 31.3h-24.4c-.6 0-1-.4-1-1s.4-1 1-1h24.4c.6 0 1 .4 1 1s-.4 1-1 1z"/></g></g><g><g><path d="m24.6 38.8h-.2c-.6 0-1-.4-1-1s.4-1 1-1h.2c.6 0 1 .4 1 1s-.4 1-1 1z"/></g><g><path d="m53.8 38.8h-24.4c-.6 0-1-.4-1-1s.4-1 1-1h24.4c.6 0 1 .4 1 1s-.4 1-1 1z"/></g></g><g><g><path d="m24.6 46.2h-.2c-.6 0-1-.4-1-1s.4-1 1-1h.2c.6 0 1 .4 1 1s-.4 1-1 1z"/></g><g><path d="m53.8 46.2h-24.4c-.6 0-1-.4-1-1s.4-1 1-1h24.4c.6 0 1 .4 1 1s-.4 1-1 1z"/></g></g><g><g><path d="m44.5 53.7h-10.9c-.6 0-1-.4-1-1s.4-1 1-1h10.9c.6 0 1 .4 1 1s-.4 1-1 1z"/></g></g><g><path d="m12.4 60.7c-5.6 0-10.1-4.5-10.1-10.1s4.5-10.1 10.1-10.1 10.1 4.5 10.1 10.1-4.5 10.1-10.1 10.1zm0-18.2c-4.5 0-8.1 3.6-8.1 8.1s3.6 8.1 8.1 8.1 8.1-3.6 8.1-8.1-3.6-8.1-8.1-8.1z"/></g><g><path d="m10.7 54.9c-.3 0-.5-.1-.7-.3l-3.1-3.1c-.4-.4-.4-1 0-1.4s1-.4 1.4 0l2.4 2.4 5.8-5.9c.4-.4 1-.4 1.4 0s.4 1 0 1.4l-6.5 6.6c-.2.2-.4.3-.7.3z"/></g></g></g></svg>