<svg id="_x33_0" enable-background="new 0 0 64 64" height="512" viewBox="0 0 64 64" width="512" xmlns="http://www.w3.org/2000/svg"><g><path d="m59 49.685v-6.685c0-1.064-.281-2.063-.769-2.93.498-.727.769-1.584.769-2.484v-28.586c0-1.103-.897-2-2-2h-32.063c-2.314-3.602-6.347-6-10.937-6-7.168 0-13 5.832-13 13 0 2.535.74 4.894 2 6.896v34.104c0 1.103.897 2 2 2h16.08c.488 3.386 3.401 6 6.92 6s6.432-2.614 6.92-6h14.16c.488 3.386 3.401 6 6.92 6 3.859 0 7-3.141 7-7 0-2.785-1.639-5.188-4-6.315zm.974 3.315h-7.949c.914-1.207 2.348-2 3.974-2s3.062.793 3.975 2zm-2.974 3c0 .552-.448 1-1 1s-1-.448-1-1 .448-1 1-1 1 .448 1 1zm-1-7c-3.519 0-6.432 2.614-6.92 6h-8.08v-2h3c2.757 0 5-2.243 5-5v-8c0-.552.448-1 1-1h3c2.206 0 4 1.794 4 4v6.08c-.328-.047-.66-.08-1-.08zm-28 0c-1.074 0-2.089.251-3 .685v-4.685h14v10h-4.08c-.488-3.386-3.401-6-6.92-6zm1 7c0 .552-.448 1-1 1s-1-.448-1-1 .448-1 1-1 1 .448 1 1zm-4.974-3c.914-1.207 2.348-2 3.974-2s3.061.793 3.974 2zm-17.097-33.343-1.377 1.377c-1.391-1.668-2.294-3.751-2.501-6.034h1.949v-2h-1.949c.207-2.283 1.111-4.366 2.501-6.034l1.377 1.377 1.414-1.414-1.377-1.377c1.668-1.391 3.751-2.294 6.034-2.501v1.949h2v-1.949c2.283.207 4.366 1.111 6.034 2.501l-1.377 1.377 1.414 1.414 1.377-1.377c1.391 1.667 2.294 3.751 2.501 6.034h-1.949v2h1.949c-.207 2.283-1.111 4.366-2.501 6.034l-1.377-1.377-1.414 1.414 1.377 1.377c-1.667 1.391-3.751 2.294-6.034 2.501v-1.949h-2v1.949c-2.283-.207-4.366-1.111-6.034-2.501l1.377-1.377zm40.071 8.343v1h-2v-6h4v2.184c-1.161.414-2 1.514-2 2.816zm9.85 10.404c-1.043-.875-2.385-1.404-3.85-1.404h-3c-.231 0-.454.032-.67.082-.193-.677-.299-1.373-.318-2.082h7.988v2.586c0 .284-.057.558-.15.818zm-47.85-5.404h10v8h-10zm12 0h10v6h-5c-1.302 0-2.402.839-2.816 2h-2.184zm2.359-10h7.641v8h-10v-6.063c.861-.553 1.652-1.203 2.359-1.937zm17.641-3c0-.552.448-1 1-1h3v1c0 .552-.448 1-1 1h-2c-.552 0-1-.448-1-1zm6 0v-.816c.847.302 1.514.969 1.816 1.816h-2c.112-.314.184-.648.184-1zm-4 3v6c-1.103 0-2 .897-2 2h-8v-8zm-18 19c0-.552.448-1 1-1h12c.552 0 1 .448 1 1v1h-14zm13-3h-5v-6h8c0 1.103.897 2 2 2h4.012c.025 1.104.223 2.182.588 3.219-.372.5-.6 1.112-.6 1.781v8c0 1.654-1.346 3-3 3h-3v-9c0-1.654-1.346-3-3-3zm13-6h-2v-2h2zm-4 0h-4v-2h4zm4-10h2v2h-2zm2-2h-2.101c-.465-2.279-2.484-4-4.899-4h-1v-4h8zm-10-4h-1c-1.654 0-3 1.346-3 3 0 .352.072.686.184 1h-6.184v-8h10zm-12 4h-6.063c1.3-2.023 2.063-4.422 2.063-7 0-.338-.025-.669-.051-1h4.051zm-17 6c1.771 0 3.46-.359 5-1.003v5.003h-10v-5.003c1.54.644 3.229 1.003 5 1.003zm-5 16h14v2.22l-2.484.621c-.893.222-1.516 1.02-1.516 1.94v3.219h-10zm12 4.78 2-.5v3.72h-2zm36-14.78h-4v-2c0-1.103-.897-2-2-2h-2v-1c0-.552.448-1 1-1h4c1.654 0 3 1.346 3 3zm0-24v17.026c-.584-.442-1.257-.773-2-.924v-14.102h-28.363c-.163-.688-.371-1.359-.64-2zm-52 14.359c.612.589 1.282 1.117 2 1.578v28.063h14.685c-.297.622-.503 1.294-.605 2h-16.08zm23 37.641c-2.757 0-5-2.243-5-5 0-.342.035-.677.101-1h2.083c-.112.314-.184.648-.184 1 0 1.654 1.346 3 3 3s3-1.346 3-3c0-.352-.072-.686-.184-1h2.083c.066.323.101.658.101 1 0 2.757-2.243 5-5 5zm28 0c-2.757 0-5-2.243-5-5 0-.342.035-.677.101-1h2.083c-.112.314-.184.648-.184 1 0 1.654 1.346 3 3 3s3-1.346 3-3c0-.352-.072-.686-.184-1h2.083c.066.323.101.658.101 1 0 2.757-2.243 5-5 5z"/><path d="m11 14c0 1.654 1.346 3 3 3s3-1.346 3-3c0-.462-.113-.894-.301-1.285l2.008-2.008-1.414-1.414-2.008 2.008c-.391-.188-.823-.301-1.285-.301s-.894.113-1.285.301l-3.008-3.008-1.414 1.414 3.008 3.008c-.188.391-.301.823-.301 1.285zm3-1c.552 0 1 .448 1 1s-.448 1-1 1-1-.448-1-1 .448-1 1-1z"/><path d="m16.293 44.293-3.293 3.293-1.293-1.293-1.414 1.414 2.707 2.707 4.707-4.707z"/><path d="m25 30.414 4.707-4.707-1.414-1.414-3.293 3.293-1.293-1.293-1.414 1.414z"/><path d="m37 30.414 4.707-4.707-1.414-1.414-3.293 3.293-1.293-1.293-1.414 1.414z"/></g></svg>