<svg id="Line" viewBox="0 0 64 64" xmlns="http://www.w3.org/2000/svg"><path d="m59 25h-4v-6c0-8.271-6.729-15-15-15-2.33075 0-4.53021.5498-6.5 1.50244-1.96979-.95264-4.16925-1.50244-6.5-1.50244-8.271 0-15 6.729-15 15v6h-7c-.55225 0-1 .44775-1 1v25.5c0 4.68652 3.81299 8.5 8.5 8.5 7.22123.00015 32.23612-.00011 39 0 4.68702 0 8.5-3.81348 8.5-8.5v-25.5c0-.55225-.44775-1-1-1zm-19-19c7.16846 0 13 5.83154 13 13v6c-2.4509.00018-8.48338-.00013-11 0v-6c0-5.0498-2.51587-9.51508-6.35199-12.2348 1.36304-.48645 2.82385-.7652 4.35199-.7652zm0 13v6h-13v-6c0-4.79938 2.62091-8.9892 6.5-11.24115 3.87909 2.25195 6.5 6.44177 6.5 11.24115zm18 32.5c0 3.58398-2.91602 6.5-6.5 6.5h-4.53418c1.85272-1.56055 3.03418-3.89398 3.03418-6.5 0-.55273-.44775-1-1-1s-1 .44727-1 1c0 3.58398-2.91602 6.5-6.5 6.5h-29c-3.58398 0-6.5-2.91602-6.5-6.5v-24.5h6v2c.03178 1.32123 1.97351 1.31101 2-.00004v-9.99996c0-7.16846 5.83154-13 13-13 1.52814 0 2.98895.27875 4.35199.7652-3.83612 2.71973-6.35199 7.185-6.35199 12.2348v6h-7c-1.30583.02384-1.32251 1.97417.00005 2-.00005 0 21.99995 0 21.99995 0v2c0 .55225.44775 1 1 1s1-.44775 1-1v-2h6v19.5c0 .55273.44775 1 1 1s1-.44727 1-1v-19.5h8z"/><path d="m27 31.5c-6.06543 0-11 4.93457-11 11 .60422 14.593 21.39801 14.58875 22.00002-.00008-.00002-6.06535-4.93459-10.99992-11.00002-10.99992zm0 20c-4.9624 0-9-4.03711-9-9 .4943-11.93973 17.50752-11.93625 18.00002.00007-.00002 4.96282-4.03761 8.99993-9.00002 8.99993z"/><path d="m30.35889 39.1416c-.39062-.39062-1.02344-.39062-1.41406 0l-1.94482 1.94446-1.94482-1.94446c-.39062-.39062-1.02344-.39062-1.41406 0s-.39062 1.02344 0 1.41406l1.9447 1.94434-1.9447 1.94434c-.39062.39062-.39062 1.02344 0 1.41406s1.02344.39062 1.41406 0l1.94482-1.94446 1.94482 1.94446c.39062.39062 1.02344.39062 1.41406 0s.39062-1.02344 0-1.41406l-1.9447-1.94434 1.9447-1.94434c.39062-.39062.39062-1.02344 0-1.41406z"/></svg>