<svg id="Layer_1" viewBox="0 0 64 64" xmlns="http://www.w3.org/2000/svg" data-name="Layer 1"><g><path d="m16.03 52.87c-5.56 0-11.54-1.39-11.54-4.43s5.98-4.43 11.54-4.43 11.54 1.39 11.54 4.43-5.98 4.43-11.54 4.43zm0-6.86c-6.2 0-9.54 1.72-9.54 2.43s3.34 2.43 9.54 2.43 9.54-1.72 9.54-2.43-3.34-2.43-9.54-2.43z"/><path d="m16.03 57.94c-5.56 0-11.54-1.39-11.54-4.43v-5.07c0-.55.45-1 1-1s1 .45 1 1v5.07c0 .71 3.34 2.43 9.54 2.43s9.54-1.72 9.54-2.43v-5.07c0-.55.45-1 1-1s1 .45 1 1v5.07c0 3.04-5.98 4.43-11.54 4.43z"/><path d="m16.03 63.01c-5.56 0-11.54-1.39-11.54-4.43v-5.07c0-.55.45-1 1-1s1 .45 1 1v5.07c0 .71 3.34 2.43 9.54 2.43s9.54-1.72 9.54-2.43v-5.07c0-.55.45-1 1-1s1 .45 1 1v5.07c0 3.04-5.98 4.43-11.54 4.43z"/></g><g><path d="m32 42.73c-5.56 0-11.54-1.39-11.54-4.43s5.98-4.43 11.54-4.43 11.54 1.39 11.54 4.43-5.98 4.43-11.54 4.43zm0-6.86c-6.2 0-9.54 1.72-9.54 2.43s3.34 2.43 9.54 2.43 9.54-1.72 9.54-2.43-3.34-2.43-9.54-2.43z"/><path d="m21.47 43.53c-.55 0-1-.45-1-1v-4.24c-.01-.55.44-1 .99-1 .55 0 1 .45 1 1v4.24c.01.55-.44 1-.99 1z"/><path d="m32 47.8c-.98 0-1.95-.04-2.88-.12-.55-.05-.96-.53-.91-1.08s.53-.96 1.08-.91c.87.08 1.78.12 2.7.12 6.2 0 9.54-1.72 9.54-2.43v-5.07c0-.55.45-1 1-1s1 .45 1 1v5.07c0 3.04-5.98 4.43-11.54 4.43z"/><path d="m32 52.87c-.98 0-1.95-.04-2.88-.12-.55-.05-.96-.53-.91-1.08s.53-.96 1.08-.91c.87.08 1.78.12 2.7.12 6.2 0 9.54-1.72 9.54-2.43v-5.07c0-.55.45-1 1-1s1 .45 1 1v5.07c0 3.04-5.98 4.43-11.54 4.43z"/><path d="m32 57.94c-.98 0-1.95-.04-2.88-.12-.55-.05-.96-.53-.91-1.08s.53-.96 1.08-.91c.87.08 1.78.12 2.7.12 6.2 0 9.54-1.72 9.54-2.43v-5.07c0-.55.45-1 1-1s1 .45 1 1v5.07c0 3.04-5.98 4.43-11.54 4.43z"/><path d="m32 63.01c-.98 0-1.95-.04-2.88-.12-.55-.05-.96-.53-.91-1.08s.53-.96 1.08-.91c.87.08 1.78.12 2.7.12 6.2 0 9.54-1.72 9.54-2.43v-5.07c0-.55.45-1 1-1s1 .45 1 1v5.07c0 3.04-5.98 4.43-11.54 4.43z"/></g><g><path d="m47.97 32.56c-5.56 0-11.54-1.39-11.54-4.43s5.98-4.43 11.54-4.43 11.54 1.39 11.54 4.43-5.98 4.43-11.54 4.43zm0-6.86c-6.2 0-9.54 1.72-9.54 2.43s3.34 2.43 9.54 2.43 9.54-1.72 9.54-2.43-3.34-2.43-9.54-2.43z"/><path d="m37.42 33c-.55 0-1-.45-1-1v-3.87c0-.55.45-1 1-1s1 .45 1 1v3.87c0 .55-.45 1-1 1z"/><path d="m47.97 37.63c-.71 0-1.42-.02-2.11-.07-.55-.04-.97-.51-.93-1.06.03-.55.51-.96 1.06-.93.64.04 1.31.06 1.99.06 6.2 0 9.54-1.72 9.54-2.43v-5.07c0-.55.45-1 1-1s1 .45 1 1v5.07c0 3.04-5.98 4.43-11.54 4.43z"/><path d="m47.97 42.7c-.71 0-1.42-.02-2.11-.07-.55-.04-.97-.51-.93-1.06.03-.55.51-.97 1.06-.93.64.04 1.31.06 1.99.06 6.2 0 9.54-1.72 9.54-2.43v-5.07c0-.55.45-1 1-1s1 .45 1 1v5.07c0 3.04-5.98 4.43-11.54 4.43z"/><path d="m47.97 47.77c-.72 0-1.43-.02-2.11-.07-.55-.04-.97-.51-.93-1.06s.52-.96 1.06-.93c.64.04 1.31.06 1.98.06 6.2 0 9.54-1.72 9.54-2.43v-5.07c0-.55.45-1 1-1s1 .45 1 1v5.07c0 3.04-5.98 4.43-11.54 4.43z"/><path d="m47.97 52.85c-.72 0-1.43-.02-2.11-.07-.55-.04-.97-.51-.93-1.06s.52-.96 1.06-.93c.64.04 1.31.06 1.98.06 6.2 0 9.54-1.72 9.54-2.43v-5.07c0-.55.45-1 1-1s1 .45 1 1v5.07c0 3.04-5.98 4.43-11.54 4.43z"/><path d="m47.97 57.92c-.7 0-1.41-.02-2.11-.07-.55-.04-.97-.51-.93-1.06s.52-.96 1.06-.93c.64.04 1.3.06 1.98.06 6.2 0 9.54-1.72 9.54-2.43v-5.07c0-.55.45-1 1-1s1 .45 1 1v5.07c0 3.04-5.98 4.43-11.54 4.43z"/><path d="m47.97 62.99c-.7 0-1.41-.02-2.1-.07-.55-.04-.97-.51-.93-1.06s.51-.97 1.06-.93c.64.04 1.3.06 1.98.06 6.2 0 9.54-1.72 9.54-2.43v-5.07c0-.55.45-1 1-1s1 .45 1 1v5.07c0 3.04-5.98 4.43-11.54 4.43z"/></g><path d="m11.47 34.04c-.26 0-.52-.11-.71-.29l-3.83-3.83c-.38-.38-.39-1-.02-1.4l15.72-16.49c.19-.19.44-.31.71-.31.28-.02.53.1.72.29l6.96 6.96 12-12-1.98-1.98c-.26-.26-.36-.64-.25-1 .11-.35.4-.62.76-.69l11.5-2.3c.33-.06.67.04.9.27s.34.58.27.9l-2.3 11.5c-.07.36-.34.65-.69.76s-.74.01-1-.25l-1.98-1.98-16.16 16.16c-.38.38-.98.39-1.38.03l-7.32-6.63-11.21 11.94c-.18.2-.44.31-.71.32h-.02zm-2.44-4.85 2.41 2.41 11.18-11.9c.37-.4 1-.42 1.4-.06l7.35 6.65 16.2-16.2c.39-.39 1.02-.39 1.41 0l1.36 1.36 1.64-8.2-8.2 1.64 1.36 1.36c.39.39.39 1.02 0 1.41l-13.42 13.42c-.39.39-1.02.39-1.41 0l-6.94-6.94-14.34 15.04z"/></svg>