<svg clip-rule="evenodd" fill-rule="evenodd" stroke-linejoin="round" stroke-miterlimit="2" viewBox="0 0 96 96" xmlns="http://www.w3.org/2000/svg"><g transform="translate(-3652 -512)"><g transform="matrix(1.695 0 0 1.695 2249.5 189.051)"><path d="m829.833 206.47v24.19c0 .939.373 1.839 1.037 2.503s1.564 1.037 2.503 1.037h16.52c.651 0 1.18.529 1.18 1.18s-.529 1.18-1.18 1.18h-16.52c-1.565 0-3.066-.622-4.172-1.728-1.107-1.107-1.728-2.607-1.728-4.172v-29.5c0-3.258 2.641-5.9 5.9-5.9h40.12c1.565 0 3.065.622 4.172 1.728 1.106 1.107 1.728 2.607 1.728 4.172v15.34c0 .651-.529 1.18-1.18 1.18s-1.18-.529-1.18-1.18v-10.03zm47.2-2.36v-2.95c0-.939-.373-1.839-1.037-2.503s-1.564-1.037-2.503-1.037h-40.12c-1.955 0-3.54 1.585-3.54 3.54v2.95zm-3.52 12.832v3.03c.934.394 1.814.903 2.622 1.514l2.625-1.515c.468-.271 1.061-.188 1.437.201 1.822 1.882 3.151 4.185 3.87 6.703.149.521-.075 1.075-.544 1.346 0 0-2.624 1.515-2.624 1.515.125 1.005.125 2.023 0 3.028l2.624 1.515c.469.271.693.825.544 1.346-.719 2.518-2.048 4.821-3.87 6.703-.376.389-.969.472-1.437.201 0 0-2.625-1.515-2.625-1.515-.808.611-1.688 1.12-2.622 1.514v3.03c0 .541-.368 1.013-.893 1.145-2.541.636-5.199.636-7.74 0-.525-.132-.893-.604-.893-1.145v-3.03c-.934-.394-1.814-.903-2.622-1.514l-2.625 1.515c-.468.271-1.061.188-1.437-.201-1.822-1.882-3.151-4.185-3.87-6.703-.149-.521.075-1.075.544-1.346 0 0 2.624-1.515 2.624-1.515-.125-1.005-.125-2.023 0-3.028l-2.624-1.515c-.469-.271-.693-.825-.544-1.346.719-2.518 2.048-4.821 3.87-6.703.376-.389.969-.472 1.437-.201 0 0 2.625 1.515 2.625 1.515.808-.611 1.688-1.12 2.622-1.514v-3.03c0-.541.368-1.013.893-1.145 2.541-.636 5.199-.636 7.74 0 .525.132.893.604.893 1.145zm-2.36.953c-1.589-.286-3.217-.287-4.806 0v2.889c0 .504-.321.953-.798 1.116-1.211.415-2.331 1.061-3.296 1.903-.38.331-.928.385-1.365.133 0 0-2.503-1.445-2.503-1.445-1.042 1.233-1.856 2.643-2.403 4.163l2.502 1.444c.437.253.665.754.568 1.249-.246 1.257-.246 2.549 0 3.806.097.495-.131.996-.568 1.249 0 0-2.502 1.444-2.502 1.444.547 1.52 1.361 2.93 2.404 4.163l2.502-1.445c.437-.252.985-.198 1.365.133.965.842 2.085 1.488 3.296 1.903.477.163.798.612.798 1.116v2.889c1.589.287 3.217.287 4.806 0v-2.889c0-.504.321-.953.798-1.116 1.211-.415 2.331-1.061 3.296-1.903.38-.331.928-.385 1.365-.133 0 0 2.503 1.445 2.503 1.445 1.042-1.233 1.856-2.643 2.403-4.163l-2.502-1.444c-.437-.253-.665-.754-.568-1.249.246-1.257.246-2.549 0-3.806-.097-.495.131-.996.568-1.249 0 0 2.502-1.444 2.502-1.444-.547-1.52-1.361-2.93-2.404-4.163l-2.502 1.445c-.437.252-.985.198-1.365-.133-.965-.842-2.085-1.488-3.296-1.903-.477-.163-.798-.612-.798-1.116zm-2.403 6.885c3.571 0 6.47 2.899 6.47 6.47s-2.899 6.47-6.47 6.47-6.47-2.899-6.47-6.47 2.899-6.47 6.47-6.47zm0 2.36c-2.268 0-4.11 1.842-4.11 4.11s1.842 4.11 4.11 4.11 4.11-1.842 4.11-4.11-1.842-4.11-4.11-4.11zm-31.797-34.24c-.652 0-1.18-.529-1.18-1.18s.528-1.18 1.18-1.18h7.08c.651 0 1.18.529 1.18 1.18s-.529 1.18-1.18 1.18zm1.829 23.01c-.651 0-1.18-.529-1.18-1.18s.529-1.18 1.18-1.18h4.641c.651 0 1.18.529 1.18 1.18s-.529 1.18-1.18 1.18zm12.39 0c-.651 0-1.18-.529-1.18-1.18s.529-1.18 1.18-1.18h4.641c.651 0 1.18.529 1.18 1.18s-.529 1.18-1.18 1.18zm-12.39 10.03c-.651 0-1.18-.529-1.18-1.18s.529-1.18 1.18-1.18h4.641c.651 0 1.18.529 1.18 1.18s-.529 1.18-1.18 1.18zm24.131-33.04c-.652 0-1.18-.529-1.18-1.18s.528-1.18 1.18-1.18h7.08c.651 0 1.18.529 1.18 1.18s-.529 1.18-1.18 1.18z"/></g></g></svg>