<svg height="512" viewBox="0 0 64 64" width="512" xmlns="http://www.w3.org/2000/svg"><g id="Exchange" fill="rgb(0,0,0)"><path d="m29.8 52.4a1 1 0 0 0 -1.6 1.2l1.71 2.28a21.81 21.81 0 0 1 -3.14-.47 24 24 0 0 1 .74-47 1 1 0 0 0 -.36-2 26 26 0 0 0 -.82 50.9 24.13 24.13 0 0 0 3.73.56l-1.86 2.53a1 1 0 0 0 .2 1.4 1 1 0 0 0 .6.2 1 1 0 0 0 .8-.4l3-4a1 1 0 0 0 0-1.2z"/><path d="m37.67 6.64a25.62 25.62 0 0 0 -3.73-.57l1.86-2.47a1 1 0 1 0 -1.6-1.2l-3 4a1 1 0 0 0 0 1.2l3 4a1 1 0 0 0 .8.4 1 1 0 0 0 .6-.2 1 1 0 0 0 .2-1.4l-1.73-2.3a22.11 22.11 0 0 1 3.16.49 24 24 0 0 1 -.74 47 1 1 0 0 0 -.8 1.16 1 1 0 0 0 1 .82h.18a26 26 0 0 0 .82-50.9z"/><path d="m32 35a1 1 0 0 0 -1 1v5a1 1 0 0 0 2 0v-5a1 1 0 0 0 -1-1z"/><path d="m27 35a1 1 0 0 0 -1 1v5a1 1 0 0 0 2 0v-5a1 1 0 0 0 -1-1z"/><path d="m37 35a1 1 0 0 0 -1 1v5a1 1 0 0 0 2 0v-5a1 1 0 0 0 -1-1z"/><path d="m42 27h-1.88l-2-3.92a3 3 0 1 0 -2.12.92 2.2 2.2 0 0 0 .36 0l1.52 3h-11.76l1.52-3a2.2 2.2 0 0 0 .36 0 3 3 0 1 0 -2.16-.92l-2 3.92h-1.84a3 3 0 0 0 -1 5.82v8.18a5 5 0 0 0 5 5h12a5 5 0 0 0 5-5v-8.18a3 3 0 0 0 -1-5.82zm-6-5a1 1 0 1 1 1-1 1 1 0 0 1 -1 1zm-8-2a1 1 0 1 1 -1 1 1 1 0 0 1 1-1zm10 24h-12a3 3 0 0 1 -3-3v-8h18v8a3 3 0 0 1 -3 3zm4-13h-20a1 1 0 0 1 0-2h20a1 1 0 0 1 0 2z"/></g></svg>