<svg height="512" viewBox="0 0 55 60" width="512" xmlns="http://www.w3.org/2000/svg"><g id="Page-1" fill="none" fill-rule="evenodd"><g id="024---File-Settings" fill="rgb(0,0,0)" fill-rule="nonzero"><path id="Shape" d="m50 38c-.5522847 0-1 .4477153-1 1v2c0 .5522847.4477153 1 1 1s1-.4477153 1-1v-2c0-.5522847-.4477153-1-1-1z"/><path id="Shape" d="m55 5c-.0033061-2.76005315-2.2399468-4.99669388-5-5h-40c-2.76005315.00330612-4.99669388 2.23994685-5 5v20c0 .5522847.44771525 1 1 1s1-.4477153 1-1v-20c0-1.65685425 1.34314575-3 3-3h40c1.6568542 0 3 1.34314575 3 3v39h-7c-2.7600532.0033061-4.9966939 2.2399468-5 5v7h-3c-.5522847 0-1 .4477153-1 1s.4477153 1 1 1h4c.2651948-.0000566.5195073-.1054506.707-.293l12-12c.1875494-.1874927.2929434-.4418052.293-.707zm-9 41h5.586l-8.586 8.586v-5.586c0-1.6568542 1.3431458-3 3-3z"/><path id="Shape" d="m14 6h-2c-.5522847 0-1 .44771525-1 1s.4477153 1 1 1h2c.5522847 0 1-.44771525 1-1s-.4477153-1-1-1z"/><path id="Shape" d="m48 6h-30c-.5522847 0-1 .44771525-1 1s.4477153 1 1 1h30c.5522847 0 1-.44771525 1-1s-.4477153-1-1-1z"/><path id="Shape" d="m14 12h-2c-.5522847 0-1 .4477153-1 1s.4477153 1 1 1h2c.5522847 0 1-.4477153 1-1s-.4477153-1-1-1z"/><path id="Shape" d="m18 14h23c.5522847 0 1-.4477153 1-1s-.4477153-1-1-1h-23c-.5522847 0-1 .4477153-1 1s.4477153 1 1 1z"/><path id="Shape" d="m14 18h-2c-.5522847 0-1 .4477153-1 1s.4477153 1 1 1h2c.5522847 0 1-.4477153 1-1s-.4477153-1-1-1z"/><path id="Shape" d="m18 20h16c.5522847 0 1-.4477153 1-1s-.4477153-1-1-1h-16c-.5522847 0-1 .4477153-1 1s.4477153 1 1 1z"/><path id="Shape" d="m51 21c0-.5522847-.4477153-1-1-1s-1 .4477153-1 1v14c0 .5522847.4477153 1 1 1s1-.4477153 1-1z"/><path id="Shape" d="m0 32c0 1.6568542 1.34314575 3 3 3h15.812c1.0682518 1.8559567 3.0465666 2.9998902 5.188 2.9998902s4.1197482-1.1439335 5.188-2.9998902h2.812c1.6568542 0 3-1.3431458 3-3s-1.3431458-3-3-3h-2.812c-1.0682518-1.8559567-3.0465666-2.9998902-5.188-2.9998902s-4.1197482 1.1439335-5.188 2.9998902h-15.812c-1.65685425 0-3 1.3431458-3 3zm32-1c.5522847 0 1 .4477153 1 1s-.4477153 1-1 1h-2.09c.1200121-.6612656.1200121-1.3387344 0-2zm-8-3c2.209139 0 4 1.790861 4 4s-1.790861 4-4 4-4-1.790861-4-4 1.790861-4 4-4zm-5.91 5h-15.09c-.55228475 0-1-.4477153-1-1s.44771525-1 1-1h15.09c-.1200121.6612656-.1200121 1.3387344 0 2z"/><path id="Shape" d="m3 57h15.812c1.0682518 1.8559567 3.0465666 2.9998902 5.188 2.9998902s4.1197482-1.1439335 5.188-2.9998902h2.812c1.6568542 0 3-1.3431458 3-3s-1.3431458-3-3-3h-2.812c-1.0682518-1.8559567-3.0465666-2.9998902-5.188-2.9998902s-4.1197482 1.1439335-5.188 2.9998902h-15.812c-1.65685425 0-3 1.3431458-3 3s1.34314575 3 3 3zm29-4c.5522847 0 1 .4477153 1 1s-.4477153 1-1 1h-2.09c.1200121-.6612656.1200121-1.3387344 0-2zm-8-3c2.209139 0 4 1.790861 4 4s-1.790861 4-4 4-4-1.790861-4-4 1.790861-4 4-4zm-21 3h15.09c-.1200121.6612656-.1200121 1.3387344 0 2h-15.09c-.55228475 0-1-.4477153-1-1s.44771525-1 1-1z"/><path id="Shape" d="m3 46h5.812c1.06825182 1.8559567 3.0465666 2.9998902 5.188 2.9998902s4.1197482-1.1439335 5.188-2.9998902h12.812c1.6568542 0 3-1.3431458 3-3s-1.3431458-3-3-3h-12.812c-1.0682518-1.8559567-3.0465666-2.9998902-5.188-2.9998902s-4.11974818 1.1439335-5.188 2.9998902h-5.812c-1.65685425 0-3 1.3431458-3 3s1.34314575 3 3 3zm29-4c.5522847 0 1 .4477153 1 1s-.4477153 1-1 1h-12.09c.1200121-.6612656.1200121-1.3387344 0-2zm-18-3c2.209139 0 4 1.790861 4 4s-1.790861 4-4 4-4-1.790861-4-4 1.790861-4 4-4zm-11 3h5.09c-.1200121.6612656-.1200121 1.3387344 0 2h-5.09c-.55228475 0-1-.4477153-1-1s.44771525-1 1-1z"/></g></g></svg>