<?xml version="1.0" encoding="UTF-8"?>
<!DOCTYPE svg PUBLIC "-//W3C//DTD SVG 1.1//EN" "http://www.w3.org/Graphics/SVG/1.1/DTD/svg11.dtd">
<svg xmlns="http://www.w3.org/2000/svg" version="1.1" width="512px" height="512px" style="shape-rendering:geometricPrecision; text-rendering:geometricPrecision; image-rendering:optimizeQuality; fill-rule:evenodd; clip-rule:evenodd" xmlns:xlink="http://www.w3.org/1999/xlink">
<g><path style="opacity:0.992" fill="#8a5d3b" d="M 184.5,-0.5 C 190.167,-0.5 195.833,-0.5 201.5,-0.5C 208.796,1.60557 214.963,5.60557 220,11.5C 225.39,19.3831 230.557,27.3831 235.5,35.5C 214.327,49.5861 193.327,63.9195 172.5,78.5C 166.863,70.6785 161.363,62.6785 156,54.5C 147.759,34.6213 152.593,18.788 170.5,7C 175.101,4.2021 179.768,1.7021 184.5,-0.5 Z"/></g>
<g><path style="opacity:0.99" fill="#bd1e2d" d="M 240.5,175.5 C 240.752,172.68 240.252,170.014 239,167.5C 231.419,156.672 224.085,145.672 217,134.5C 210.142,130.696 206.809,132.696 207,140.5C 215,152.5 223,164.5 231,176.5C 233.624,178.699 236.458,179.032 239.5,177.5C 245.093,185.692 250.427,194.025 255.5,202.5C 242.797,210.847 230.13,219.18 217.5,227.5C 198.53,199.677 179.696,171.677 161,143.5C 151.871,125.447 152.537,107.78 163,90.5C 165.711,86.2877 169.211,82.9544 173.5,80.5C 187.61,93.197 202.944,94.8637 219.5,85.5C 219.338,87.5273 219.505,89.5273 220,91.5C 227.71,103.087 235.543,114.587 243.5,126C 252.198,126.627 254.365,123.127 250,115.5C 243.333,105.5 236.667,95.5 230,85.5C 228.512,83.84 226.679,82.84 224.5,82.5C 239.23,70.5889 243.564,55.5889 237.5,37.5C 261.651,26.4161 282.484,30.7494 300,50.5C 309.333,64.5 318.667,78.5 328,92.5C 333.174,101.931 332.341,110.765 325.5,119C 297.285,138.055 268.951,156.889 240.5,175.5 Z"/></g>
<g><path style="opacity:0.999" fill="#eecbaf" d="M 235.5,35.5 C 236.167,36.1667 236.833,36.8333 237.5,37.5C 243.564,55.5889 239.23,70.5889 224.5,82.5C 222.566,83.1103 220.899,84.1103 219.5,85.5C 202.944,94.8637 187.61,93.197 173.5,80.5C 173.167,79.8333 172.833,79.1667 172.5,78.5C 193.327,63.9195 214.327,49.5861 235.5,35.5 Z"/></g>
<g><path style="opacity:0.993" fill="#8a5d3b" d="M 467.5,150.5 C 447.472,135.146 427.138,120.146 406.5,105.5C 413.062,94.9122 420.729,85.0789 429.5,76C 443.955,68.1645 457.955,68.8311 471.5,78C 489.575,90.1211 494.408,106.288 486,126.5C 480.055,134.749 473.889,142.749 467.5,150.5 Z"/></g>
<g><path style="opacity:1" fill="#453f41" d="M 224.5,82.5 C 226.679,82.84 228.512,83.84 230,85.5C 236.667,95.5 243.333,105.5 250,115.5C 254.365,123.127 252.198,126.627 243.5,126C 235.543,114.587 227.71,103.087 220,91.5C 219.505,89.5273 219.338,87.5273 219.5,85.5C 220.899,84.1103 222.566,83.1103 224.5,82.5 Z"/></g>
<g><path style="opacity:0.99" fill="#fcbf0f" d="M 405.5,106.5 C 397.8,124.531 401.467,139.697 416.5,152C 414.942,152.21 413.609,152.71 412.5,153.5C 404.111,163.918 395.945,174.585 388,185.5C 385.259,190.357 386.425,193.691 391.5,195.5C 393.697,195.152 395.53,194.152 397,192.5C 404.333,182.5 411.667,172.5 419,162.5C 420.813,159.922 420.98,157.255 419.5,154.5C 430.118,162.755 441.784,164.589 454.5,160C 458.997,157.644 463.33,155.144 467.5,152.5C 486.168,171.679 489.001,193.012 476,216.5C 465.756,229.989 455.756,243.656 446,257.5C 437.401,265.421 427.901,266.587 417.5,261C 391.265,241.251 364.932,221.751 338.5,202.5C 341.325,202.919 343.491,201.919 345,199.5C 352.755,188.323 360.755,177.323 369,166.5C 370.578,161.868 369.078,158.868 364.5,157.5C 362.303,157.848 360.47,158.848 359,160.5C 351.245,171.677 343.245,182.677 335,193.5C 334.068,196.823 334.568,199.823 336.5,202.5C 330.488,210.538 324.488,218.538 318.5,226.5C 306.5,217.167 294.5,207.833 282.5,198.5C 301.757,171.397 321.257,144.397 341,117.5C 359.722,97.9237 381.222,94.257 405.5,106.5 Z"/></g>
<g><path style="opacity:1" fill="#eeccaf" d="M 406.5,105.5 C 427.138,120.146 447.472,135.146 467.5,150.5C 467.5,151.167 467.5,151.833 467.5,152.5C 463.33,155.144 458.997,157.644 454.5,160C 441.784,164.589 430.118,162.755 419.5,154.5C 417.283,153.631 414.95,153.298 412.5,153.5C 413.609,152.71 414.942,152.21 416.5,152C 401.467,139.697 397.8,124.531 405.5,106.5C 405.5,105.833 405.833,105.5 406.5,105.5 Z"/></g>
<g><path style="opacity:0.997" fill="#aa1729" d="M 240.5,175.5 C 240.167,176.167 239.833,176.833 239.5,177.5C 236.458,179.032 233.624,178.699 231,176.5C 223,164.5 215,152.5 207,140.5C 206.809,132.696 210.142,130.696 217,134.5C 224.085,145.672 231.419,156.672 239,167.5C 240.252,170.014 240.752,172.68 240.5,175.5 Z"/></g>
<g><path style="opacity:0.993" fill="#03648e" d="M 192.5,252.5 C 190.218,251.61 187.885,251.444 185.5,252C 172.833,257 160.167,262 147.5,267C 143.99,270.048 143.657,273.381 146.5,277C 148.833,277.667 151.167,277.667 153.5,277C 166.684,271.496 179.85,265.996 193,260.5C 193.29,258.08 193.79,255.746 194.5,253.5C 203.401,249.882 212.401,246.548 221.5,243.5C 227.167,257.5 232.833,271.5 238.5,285.5C 208.036,298.223 177.369,310.723 146.5,323C 125.533,329.717 107.367,325.217 92,309.5C 89.3178,306.135 87.1512,302.469 85.5,298.5C 101.398,287.133 106.065,272.133 99.5,253.5C 101.496,255.333 103.829,255.833 106.5,255C 119.631,250.072 132.464,244.572 145,238.5C 146.753,233.643 145.253,230.643 140.5,229.5C 127.466,234.567 114.466,239.734 101.5,245C 99.393,246.264 98.393,248.097 98.5,250.5C 90.4204,232.453 76.4204,224.786 56.5,227.5C 50.3878,200.628 59.3878,180.794 83.5,168C 98.5797,162.196 113.58,156.196 128.5,150C 141.089,145.858 150.256,149.692 156,161.5C 168.077,191.902 180.243,222.235 192.5,252.5 Z"/></g>
<g><path style="opacity:1" fill="#444241" d="M 412.5,153.5 C 414.95,153.298 417.283,153.631 419.5,154.5C 420.98,157.255 420.813,159.922 419,162.5C 411.667,172.5 404.333,182.5 397,192.5C 395.53,194.152 393.697,195.152 391.5,195.5C 386.425,193.691 385.259,190.357 388,185.5C 395.945,174.585 404.111,163.918 412.5,153.5 Z"/></g>
<g><path style="opacity:0.998" fill="#e5a60a" d="M 338.5,202.5 C 337.833,202.5 337.167,202.5 336.5,202.5C 334.568,199.823 334.068,196.823 335,193.5C 343.245,182.677 351.245,171.677 359,160.5C 360.47,158.848 362.303,157.848 364.5,157.5C 369.078,158.868 370.578,161.868 369,166.5C 360.755,177.323 352.755,188.323 345,199.5C 343.491,201.919 341.325,202.919 338.5,202.5 Z"/></g>
<g><path style="opacity:0.985" fill="#eeccb0" d="M 282.5,198.5 C 294.5,207.833 306.5,217.167 318.5,226.5C 317.386,227.885 316.386,229.385 315.5,231C 320.038,233.125 324.705,234.958 329.5,236.5C 324.538,251.063 319.204,265.396 313.5,279.5C 309.422,278.863 305.589,277.53 302,275.5C 301.5,284.494 301.334,293.494 301.5,302.5C 286.167,302.5 270.833,302.5 255.5,302.5C 255.831,294.804 255.497,287.138 254.5,279.5C 249.221,281.703 243.887,283.703 238.5,285.5C 232.833,271.5 227.167,257.5 221.5,243.5C 222.842,242.207 224.509,241.374 226.5,241C 223.278,236.618 220.278,232.118 217.5,227.5C 230.13,219.18 242.797,210.847 255.5,202.5C 259.557,207.59 263.39,212.923 267,218.5C 271.945,211.584 277.111,204.917 282.5,198.5 Z M 268.5,235.5 C 269.552,235.351 270.552,235.517 271.5,236C 276.949,239.711 281.949,243.878 286.5,248.5C 283.74,254.173 283.074,260.006 284.5,266C 279.177,266.499 273.844,266.666 268.5,266.5C 266.713,258.579 264.047,250.913 260.5,243.5C 262.431,241.196 264.764,239.362 267.5,238C 268.252,237.329 268.586,236.496 268.5,235.5 Z"/></g>
<g><path style="opacity:0.999" fill="#edccb0" d="M 56.5,227.5 C 76.4204,224.786 90.4204,232.453 98.5,250.5C 98.2627,251.791 98.596,252.791 99.5,253.5C 106.065,272.133 101.398,287.133 85.5,298.5C 84.609,299.11 83.609,299.443 82.5,299.5C 73.5604,275.682 64.2271,252.015 54.5,228.5C 55.1667,228.167 55.8333,227.833 56.5,227.5 Z"/></g>
<g><path style="opacity:0.992" fill="#8a5d3b" d="M 54.5,228.5 C 64.2271,252.015 73.5604,275.682 82.5,299.5C 74.4706,303.462 66.1373,306.962 57.5,310C 34.2554,314.963 19.0888,306.13 12,283.5C 6.02703,266.206 10.1937,252.039 24.5,241C 34.3213,236.339 44.3213,232.173 54.5,228.5 Z"/></g>
<g><path style="opacity:1" fill="#404043" d="M 99.5,253.5 C 98.596,252.791 98.2627,251.791 98.5,250.5C 98.393,248.097 99.393,246.264 101.5,245C 114.466,239.734 127.466,234.567 140.5,229.5C 145.253,230.643 146.753,233.643 145,238.5C 132.464,244.572 119.631,250.072 106.5,255C 103.829,255.833 101.496,255.333 99.5,253.5 Z"/></g>
<g><path style="opacity:0.994" fill="#89c35e" d="M 329.5,236.5 C 360.475,247.65 391.475,258.817 422.5,270C 442.617,278.365 453.284,293.532 454.5,315.5C 454.264,320.248 453.597,324.914 452.5,329.5C 432.08,326.872 418.413,335.206 411.5,354.5C 411.753,352.173 411.086,350.173 409.5,348.5C 397.167,344 384.833,339.5 372.5,335C 364.754,334.063 362.421,337.063 365.5,344C 378.785,349.428 392.285,354.262 406,358.5C 408.192,358.137 410.026,357.137 411.5,355.5C 406.788,367.74 407.955,379.407 415,390.5C 418.776,394.447 422.609,398.114 426.5,401.5C 417.155,420.1 401.988,429.767 381,430.5C 360.472,425.213 340.305,418.713 320.5,411C 310.315,406.488 306.148,398.655 308,387.5C 319.273,355.848 330.439,324.181 341.5,292.5C 342.596,294.103 343.93,295.603 345.5,297C 358.424,301.864 371.424,306.53 384.5,311C 391.03,311.636 393.363,308.803 391.5,302.5C 378.139,296.656 364.472,291.489 350.5,287C 346.392,285.665 343.392,286.832 341.5,290.5C 332.167,286.833 322.833,283.167 313.5,279.5C 319.204,265.396 324.538,251.063 329.5,236.5 Z"/></g>
<g><path style="opacity:0.999" fill="#335493" d="M 192.5,252.5 C 193.167,252.833 193.833,253.167 194.5,253.5C 193.79,255.746 193.29,258.08 193,260.5C 179.85,265.996 166.684,271.496 153.5,277C 151.167,277.667 148.833,277.667 146.5,277C 143.657,273.381 143.99,270.048 147.5,267C 160.167,262 172.833,257 185.5,252C 187.885,251.444 190.218,251.61 192.5,252.5 Z"/></g>
<g><path style="opacity:0.997" fill="#75aa4d" d="M 341.5,292.5 C 341.5,291.833 341.5,291.167 341.5,290.5C 343.392,286.832 346.392,285.665 350.5,287C 364.472,291.489 378.139,296.656 391.5,302.5C 393.363,308.803 391.03,311.636 384.5,311C 371.424,306.53 358.424,301.864 345.5,297C 343.93,295.603 342.596,294.103 341.5,292.5 Z"/></g>
<g><path style="opacity:0.997" fill="#1f315f" d="M 255.5,302.5 C 270.833,302.5 286.167,302.5 301.5,302.5C 301.969,339.874 301.469,377.207 300,414.5C 293.257,435.79 278.757,447.457 256.5,449.5C 253.096,433.097 243.096,423.43 226.5,420.5C 224.708,419.691 222.708,419.191 220.5,419C 221.416,418.626 222.25,418.126 223,417.5C 223.667,402.5 223.667,387.5 223,372.5C 219.714,368.515 216.381,368.515 213,372.5C 212.333,386.833 212.333,401.167 213,415.5C 213.465,416.931 214.299,418.097 215.5,419C 213.292,419.191 211.292,419.691 209.5,420.5C 193.529,423.805 183.862,433.471 180.5,449.5C 160.544,447.767 146.378,437.767 138,419.5C 136.528,415.277 135.528,410.943 135,406.5C 134.333,387.833 134.333,369.167 135,350.5C 136.28,341.886 141.114,336.386 149.5,334C 183.832,333.5 218.165,333.333 252.5,333.5C 252.013,334.473 251.513,335.473 251,336.5C 250.333,351.5 250.333,366.5 251,381.5C 253.873,386.408 257.206,386.741 261,382.5C 261.667,366.833 261.667,351.167 261,335.5C 259.736,333.393 257.903,332.393 255.5,332.5C 255.5,322.5 255.5,312.5 255.5,302.5 Z"/></g>
<g><path style="opacity:0.999" fill="#eeccb0" d="M 452.5,329.5 C 453.167,329.5 453.833,329.5 454.5,329.5C 446.405,353.792 437.738,377.792 428.5,401.5C 427.833,401.5 427.167,401.5 426.5,401.5C 422.609,398.114 418.776,394.447 415,390.5C 407.955,379.407 406.788,367.74 411.5,355.5C 411.5,355.167 411.5,354.833 411.5,354.5C 418.413,335.206 432.08,326.872 452.5,329.5 Z"/></g>
<g><path style="opacity:0.992" fill="#8a5d3b" d="M 454.5,329.5 C 466.179,333.175 477.512,337.675 488.5,343C 502,355.513 505.167,370.346 498,387.5C 491.226,405.936 478.059,414.102 458.5,412C 448.149,409.163 438.149,405.663 428.5,401.5C 437.738,377.792 446.405,353.792 454.5,329.5 Z"/></g>
<g><path style="opacity:0.998" fill="#192a4f" d="M 255.5,332.5 C 257.903,332.393 259.736,333.393 261,335.5C 261.667,351.167 261.667,366.833 261,382.5C 257.206,386.741 253.873,386.408 251,381.5C 250.333,366.5 250.333,351.5 251,336.5C 251.513,335.473 252.013,334.473 252.5,333.5C 253.391,332.89 254.391,332.557 255.5,332.5 Z"/></g>
<g><path style="opacity:1" fill="#424242" d="M 411.5,354.5 C 411.5,354.833 411.5,355.167 411.5,355.5C 410.026,357.137 408.192,358.137 406,358.5C 392.285,354.262 378.785,349.428 365.5,344C 362.421,337.063 364.754,334.063 372.5,335C 384.833,339.5 397.167,344 409.5,348.5C 411.086,350.173 411.753,352.173 411.5,354.5 Z"/></g>
<g><path style="opacity:1" fill="#414143" d="M 226.5,420.5 C 220.833,420.5 215.167,420.5 209.5,420.5C 211.292,419.691 213.292,419.191 215.5,419C 214.299,418.097 213.465,416.931 213,415.5C 212.333,401.167 212.333,386.833 213,372.5C 216.381,368.515 219.714,368.515 223,372.5C 223.667,387.5 223.667,402.5 223,417.5C 222.25,418.126 221.416,418.626 220.5,419C 222.708,419.191 224.708,419.691 226.5,420.5 Z"/></g>
<g><path style="opacity:0.999" fill="#eccaaf" d="M 209.5,420.5 C 215.167,420.5 220.833,420.5 226.5,420.5C 243.096,423.43 253.096,433.097 256.5,449.5C 256.5,450.5 256.5,451.5 256.5,452.5C 230.833,452.5 205.167,452.5 179.5,452.5C 180.11,451.609 180.443,450.609 180.5,449.5C 183.862,433.471 193.529,423.805 209.5,420.5 Z"/></g>
<g><path style="opacity:0.994" fill="#8a5c3a" d="M 179.5,452.5 C 205.167,452.5 230.833,452.5 256.5,452.5C 256.667,463.505 256.5,474.505 256,485.5C 251.974,498.691 243.474,507.358 230.5,511.5C 222.167,511.5 213.833,511.5 205.5,511.5C 189.848,506.668 181.348,496.001 180,479.5C 179.5,470.506 179.334,461.506 179.5,452.5 Z"/></g>
</svg>
