<svg id="Objects" height="512" viewBox="0 0 48 48" width="512" xmlns="http://www.w3.org/2000/svg"><g id="technical_support" fill="rgb(0,0,0)" data-name="technical support"><path d="m8.11 9.59h31.78v1.5h-31.78z"/><path d="m8.11 12.77h16.34v1.5h-16.34z"/><path d="m15.52 21.69h1.5v3.63h-1.5z"/><circle cx="16.27" cy="20.33" r=".91"/><path d="m18.48 30.75-2.16-3.24h-7.38v-10.28h14.68v10.28h-3zm-8-4.74h6.68l1.36 2 1.36-2h2.28v-7.28h-11.72z"/><path d="m44 33.81v-31.42h-40v31.42h27.13v1.75a5.35 5.35 0 0 0 1.32 9.79l.88.24v-4.1h1.09v4.08l.89-.25a5.34 5.34 0 0 0 1.23-9.76v-1.77zm-38.38-29.81h36.76v1.6h-36.76zm0 28.24v-25.14h36.76v25.12h-5.81v-8.46a5.35 5.35 0 0 0 -1.23-9.76l-.89-.25v4.08h-1.09v-4.1l-.88.23a5.35 5.35 0 0 0 -1.32 9.79v8.49zm28.25-9.11a4 4 0 0 1 -1.87-7.46v3.55h3.89v-3.51a4 4 0 0 1 -2 7.4zm1.2 1.26v10.61a4.92 4.92 0 0 0 -2.41 0v-10.63a5.26 5.26 0 0 0 2.41 0zm2.76 15.82a4 4 0 0 1 -2 3.43v-3.53h-3.83v3.56a4 4 0 1 1 5.87-3.48z"/></g></svg>