<?xml version="1.0" encoding="UTF-8"?>
<!DOCTYPE svg PUBLIC "-//W3C//DTD SVG 1.1//EN" "http://www.w3.org/Graphics/SVG/1.1/DTD/svg11.dtd">
<svg xmlns="http://www.w3.org/2000/svg" version="1.1" width="20px" height="20px" style="shape-rendering:geometricPrecision; text-rendering:geometricPrecision; image-rendering:optimizeQuality; fill-rule:evenodd; clip-rule:evenodd" xmlns:xlink="http://www.w3.org/1999/xlink">
<g><path style="opacity:0.796" fill="#58a2e9" d="M 6.5,-0.5 C 7.5,-0.5 8.5,-0.5 9.5,-0.5C 9.84171,0.338246 10.5084,0.67158 11.5,0.5C 11.5,1.5 11.5,2.5 11.5,3.5C 10.1667,3.5 8.83333,3.5 7.5,3.5C 6.20895,3.73731 5.20895,3.40397 4.5,2.5C 4.5,1.83333 4.5,1.16667 4.5,0.5C 5.49162,0.67158 6.15829,0.338246 6.5,-0.5 Z"/></g>
<g><path style="opacity:0.997" fill="#bcc6d0" d="M 4.5,0.5 C 4.5,1.16667 4.5,1.83333 4.5,2.5C 3.5,2.5 2.5,2.5 1.5,2.5C 1.5,6.5 1.5,10.5 1.5,14.5C 1.5,15.5 1.5,16.5 1.5,17.5C 1.5,18.1667 1.16667,18.5 0.5,18.5C 0.166667,18.5 -0.166667,18.5 -0.5,18.5C -0.5,12.8333 -0.5,7.16667 -0.5,1.5C 1.04181,0.699293 2.70848,0.36596 4.5,0.5 Z"/></g>
<g><path style="opacity:1" fill="#e7f0ea" d="M 4.5,2.5 C 5.20895,3.40397 6.20895,3.73731 7.5,3.5C 7.67158,4.49162 7.33825,5.15829 6.5,5.5C 5.83333,5.5 5.5,5.83333 5.5,6.5C 2.83333,7.16667 2.83333,7.83333 5.5,8.5C 5.5,8.83333 5.5,9.16667 5.5,9.5C 2.83333,10.1667 2.83333,10.8333 5.5,11.5C 5.5,11.8333 5.5,12.1667 5.5,12.5C 4.16667,12.5 3.5,13.1667 3.5,14.5C 2.83333,14.5 2.16667,14.5 1.5,14.5C 1.5,10.5 1.5,6.5 1.5,2.5C 2.5,2.5 3.5,2.5 4.5,2.5 Z"/></g>
<g><path style="opacity:1" fill="#cdd4dd" d="M 11.5,0.5 C 12.8221,0.330034 13.9887,0.663368 15,1.5C 15.4974,4.14603 15.6641,6.8127 15.5,9.5C 13.7085,9.36596 12.0418,9.69929 10.5,10.5C 9.95691,10.44 9.62358,10.1067 9.5,9.5C 10.376,8.74917 11.376,8.24917 12.5,8C 9.94881,7.99775 7.94881,7.16441 6.5,5.5C 7.33825,5.15829 7.67158,4.49162 7.5,3.5C 8.83333,3.5 10.1667,3.5 11.5,3.5C 11.5,2.5 11.5,1.5 11.5,0.5 Z"/></g>
<g><path style="opacity:1" fill="#a2df8a" d="M 5.5,6.5 C 5.5,7.16667 5.5,7.83333 5.5,8.5C 2.83333,7.83333 2.83333,7.16667 5.5,6.5 Z"/></g>
<g><path style="opacity:1" fill="#a2df89" d="M 5.5,9.5 C 5.5,10.1667 5.5,10.8333 5.5,11.5C 2.83333,10.8333 2.83333,10.1667 5.5,9.5 Z"/></g>
<g><path style="opacity:1" fill="#90d572" d="M 15.5,9.5 C 16.5,9.83333 17.1667,10.5 17.5,11.5C 17.6716,12.4916 17.3382,13.1583 16.5,13.5C 15.2643,13.9885 13.7643,13.9885 12,13.5C 11.4153,14.9976 11.9153,15.9976 13.5,16.5C 13.5,17.5 13.5,18.5 13.5,19.5C 13.1667,19.5 12.8333,19.5 12.5,19.5C 11.8333,18.1667 10.8333,17.1667 9.5,16.5C 9.5,15.8333 9.5,15.1667 9.5,14.5C 9.43255,13.0413 9.76589,11.7079 10.5,10.5C 12.0418,9.69929 13.7085,9.36596 15.5,9.5 Z"/></g>
<g><path style="opacity:1" fill="#bdc5d2" d="M 6.5,5.5 C 7.94881,7.16441 9.94881,7.99775 12.5,8C 11.376,8.24917 10.376,8.74917 9.5,9.5C 9.62358,10.1067 9.95691,10.44 10.5,10.5C 9.76589,11.7079 9.43255,13.0413 9.5,14.5C 8.16667,14.5 6.83333,14.5 5.5,14.5C 5.5,13.8333 5.5,13.1667 5.5,12.5C 5.5,12.1667 5.5,11.8333 5.5,11.5C 5.5,10.8333 5.5,10.1667 5.5,9.5C 5.5,9.16667 5.5,8.83333 5.5,8.5C 5.5,7.83333 5.5,7.16667 5.5,6.5C 5.5,5.83333 5.83333,5.5 6.5,5.5 Z"/></g>
<g><path style="opacity:1" fill="#95db78" d="M 5.5,12.5 C 5.5,13.1667 5.5,13.8333 5.5,14.5C 4.83333,14.5 4.16667,14.5 3.5,14.5C 3.5,13.1667 4.16667,12.5 5.5,12.5 Z"/></g>
<g><path style="opacity:0.995" fill="#81ca5e" d="M 17.5,11.5 C 18.1667,12.1667 18.8333,12.8333 19.5,13.5C 19.5,14.1667 19.5,14.8333 19.5,15.5C 18.5116,16.795 17.5116,18.1283 16.5,19.5C 15.5,19.5 14.5,19.5 13.5,19.5C 13.5,18.5 13.5,17.5 13.5,16.5C 14.8333,15.8333 15.8333,14.8333 16.5,13.5C 17.3382,13.1583 17.6716,12.4916 17.5,11.5 Z"/></g>
<g><path style="opacity:1" fill="#edf0f5" d="M 1.5,14.5 C 2.16667,14.5 2.83333,14.5 3.5,14.5C 4.16667,14.5 4.83333,14.5 5.5,14.5C 6.83333,14.5 8.16667,14.5 9.5,14.5C 9.5,15.1667 9.5,15.8333 9.5,16.5C 7.0521,17.4731 4.38544,17.8064 1.5,17.5C 1.5,16.5 1.5,15.5 1.5,14.5 Z"/></g>
<g><path style="opacity:1" fill="#d8e9d9" d="M 16.5,13.5 C 15.8333,14.8333 14.8333,15.8333 13.5,16.5C 11.9153,15.9976 11.4153,14.9976 12,13.5C 13.7643,13.9885 15.2643,13.9885 16.5,13.5 Z"/></g>
<g><path style="opacity:0.498" fill="#bdc6cb" d="M 9.5,16.5 C 10.8333,17.1667 11.8333,18.1667 12.5,19.5C 8.5,19.5 4.5,19.5 0.5,19.5C 0.5,19.1667 0.5,18.8333 0.5,18.5C 1.16667,18.5 1.5,18.1667 1.5,17.5C 4.38544,17.8064 7.0521,17.4731 9.5,16.5 Z"/></g>
</svg>
