<svg height="512" viewBox="0 0 32 32" width="512" xmlns="http://www.w3.org/2000/svg"><g id="_18_unlock" data-name="18 unlock"><path d="m11 10h11v2h-12a1 1 0 0 1 -1-1v-2a7 7 0 0 1 12.21-4.68 7.21 7.21 0 0 1 1.36 2.25l-1.88.7a4.81 4.81 0 0 0 -1-1.61 5 5 0 0 0 -8.69 3.34z" fill="#08385d"/><rect fill="#f6a309" height="20" rx="3" width="22" x="5" y="10"/><path d="m27 13v14a3 3 0 0 1 -3 3h-16a3 3 0 0 1 -2.87-2.13 3.16 3.16 0 0 0 .87.13h7.52a11.52 11.52 0 0 0 11.48-11.48v-5.52a3.16 3.16 0 0 0 -.13-.87 3 3 0 0 1 2.13 2.87z" fill="#dc6405" opacity=".48"/><path d="m19 18a3 3 0 1 0 -4 2.82v4.18h2v-4.18a3 3 0 0 0 2-2.82z" fill="#fff"/></g></svg>