<?xml version="1.0" encoding="UTF-8"?>
<!DOCTYPE svg PUBLIC "-//W3C//DTD SVG 1.1//EN" "http://www.w3.org/Graphics/SVG/1.1/DTD/svg11.dtd">
<svg xmlns="http://www.w3.org/2000/svg" version="1.1" width="512px" height="512px" style="shape-rendering:geometricPrecision; text-rendering:geometricPrecision; image-rendering:optimizeQuality; fill-rule:evenodd; clip-rule:evenodd" xmlns:xlink="http://www.w3.org/1999/xlink">
<g><path style="opacity:1" fill="#e60e28" d="M 211.5,-0.5 C 214.5,-0.5 217.5,-0.5 220.5,-0.5C 317.167,96.8333 414.167,193.833 511.5,290.5C 511.5,293.5 511.5,296.5 511.5,299.5C 500.125,315.339 499.625,331.672 510,348.5C 510.667,351.167 510.667,353.833 510,356.5C 497.661,370.006 484.827,383.006 471.5,395.5C 469.927,388.651 467.427,381.985 464,375.5C 460.601,361.764 462.935,349.097 471,337.5C 471.667,335.167 471.667,332.833 471,330.5C 440.327,298.66 409.16,267.327 377.5,236.5C 364.839,180.506 330.506,146.173 274.5,133.5C 243.673,101.84 212.34,70.6735 180.5,40C 177.833,39.3333 175.167,39.3333 172.5,40C 156.107,50.9779 139.441,51.3112 122.5,41C 119.445,40.3658 116.445,40.5325 113.5,41.5C 126.661,27.506 140.327,14.006 154.5,1C 157.167,0.333333 159.833,0.333333 162.5,1C 179.328,11.3749 195.661,10.8749 211.5,-0.5 Z"/></g>
<g><path style="opacity:0.995" fill="#fb502a" d="M 274.5,133.5 C 221.859,127.994 180.859,146.994 151.5,190.5C 126.731,232.704 126.231,275.371 150,318.5C 176.413,359.793 214.247,379.626 263.5,378C 284.597,376.357 303.93,369.857 321.5,358.5C 354.197,337.488 373.03,307.488 378,268.5C 378.679,257.814 378.512,247.148 377.5,236.5C 409.16,267.327 440.327,298.66 471,330.5C 471.667,332.833 471.667,335.167 471,337.5C 462.935,349.097 460.601,361.764 464,375.5C 467.427,381.985 469.927,388.651 471.5,395.5C 434.035,433.465 396.368,471.299 358.5,509C 355.298,510.483 351.964,510.817 348.5,510C 331.672,499.625 315.339,500.125 299.5,511.5C 296.5,511.5 293.5,511.5 290.5,511.5C 193.833,414.167 96.8333,317.167 -0.5,220.5C -0.5,217.5 -0.5,214.5 -0.5,211.5C 10.8749,195.661 11.3749,179.328 1,162.5C 0.183403,159.036 0.516736,155.702 2,152.5C 39.0346,115.299 76.2013,78.2986 113.5,41.5C 116.445,40.5325 119.445,40.3658 122.5,41C 139.441,51.3112 156.107,50.9779 172.5,40C 175.167,39.3333 177.833,39.3333 180.5,40C 212.34,70.6735 243.673,101.84 274.5,133.5 Z"/></g>
<g><path style="opacity:1" fill="#fff7f5" d="M 174.5,52.5 C 185.378,53.5103 187.878,58.5103 182,67.5C 178.483,72.0848 173.983,74.2515 168.5,74C 164.19,71.6936 162.69,68.1936 164,63.5C 167.03,59.3053 170.53,55.6387 174.5,52.5 Z"/></g>
<g><path style="opacity:1" fill="#fff9f7" d="M 140.5,86.5 C 148.32,86.152 151.82,89.8186 151,97.5C 146.833,103 142,107.833 136.5,112C 127.667,113.833 124.167,110.333 126,101.5C 130.364,95.9703 135.198,90.9703 140.5,86.5 Z"/></g>
<g><path style="opacity:1" fill="#fff9f7" d="M 101.5,125.5 C 110.33,124.162 113.83,127.829 112,136.5C 107.79,142.378 102.623,147.211 96.5,151C 89.1786,151.343 86.0119,147.843 87,140.5C 91.3644,134.97 96.1977,129.97 101.5,125.5 Z"/></g>
<g><path style="opacity:1" fill="#e6e5e5" d="M 274.5,133.5 C 330.506,146.173 364.839,180.506 377.5,236.5C 378.512,247.148 378.679,257.814 378,268.5C 373.03,307.488 354.197,337.488 321.5,358.5C 342.385,320.26 343.885,281.26 326,241.5C 325.329,240.748 324.496,240.414 323.5,240.5C 327.684,232.68 325.351,228.347 316.5,227.5C 316.649,226.448 316.483,225.448 316,224.5C 304.799,209.128 290.965,196.794 274.5,187.5C 273.893,187.624 273.56,187.957 273.5,188.5C 267.679,181.924 260.346,178.591 251.5,178.5C 216.473,167.788 183.139,171.788 151.5,190.5C 180.859,146.994 221.859,127.994 274.5,133.5 Z"/></g>
<g><path style="opacity:1" fill="#fff7f5" d="M 63.5,163.5 C 71.3204,163.152 74.8204,166.819 74,174.5C 71.5,178.333 68.3333,181.5 64.5,184C 59.0533,186.836 55.22,185.336 53,179.5C 52.3333,177.833 52.3333,176.167 53,174.5C 56.0298,170.305 59.5298,166.639 63.5,163.5 Z"/></g>
<g><path style="opacity:1" fill="#fefdfd" d="M 251.5,178.5 C 248.065,180.053 244.732,181.886 241.5,184C 235,190.5 228.5,197 222,203.5C 215.506,210.969 214.84,218.969 220,227.5C 225.158,235.742 232.491,240.742 242,242.5C 244.953,242.109 247.787,241.275 250.5,240C 259.303,232.198 267.803,224.031 276,215.5C 282.37,205.906 281.537,196.906 273.5,188.5C 273.56,187.957 273.893,187.624 274.5,187.5C 290.965,196.794 304.799,209.128 316,224.5C 316.483,225.448 316.649,226.448 316.5,227.5C 274.486,241.56 232.486,255.727 190.5,270C 189.069,270.465 187.903,271.299 187,272.5C 184.977,280.126 187.81,283.959 195.5,284C 238.232,269.59 280.899,255.09 323.5,240.5C 324.496,240.414 325.329,240.748 326,241.5C 343.885,281.26 342.385,320.26 321.5,358.5C 303.93,369.857 284.597,376.357 263.5,378C 214.247,379.626 176.413,359.793 150,318.5C 126.231,275.371 126.731,232.704 151.5,190.5C 183.139,171.788 216.473,167.788 251.5,178.5 Z"/></g>
<g><path style="opacity:1" fill="#e6162b" d="M 251.5,178.5 C 260.346,178.591 267.679,181.924 273.5,188.5C 281.537,196.906 282.37,205.906 276,215.5C 267.803,224.031 259.303,232.198 250.5,240C 247.787,241.275 244.953,242.109 242,242.5C 232.491,240.742 225.158,235.742 220,227.5C 214.84,218.969 215.506,210.969 222,203.5C 228.5,197 235,190.5 241.5,184C 244.732,181.886 248.065,180.053 251.5,178.5 Z"/></g>
<g><path style="opacity:1" fill="#fff7f8" d="M 253.5,192.5 C 263.183,192.664 267.017,197.33 265,206.5C 259.532,212.969 253.699,219.136 247.5,225C 240.292,230.159 234.792,228.659 231,220.5C 230.333,218.833 230.333,217.167 231,215.5C 238.032,207.302 245.532,199.635 253.5,192.5 Z"/></g>
<g><path style="opacity:1" fill="#e6162b" d="M 316.5,227.5 C 325.351,228.347 327.684,232.68 323.5,240.5C 280.899,255.09 238.232,269.59 195.5,284C 187.81,283.959 184.977,280.126 187,272.5C 187.903,271.299 189.069,270.465 190.5,270C 232.486,255.727 274.486,241.56 316.5,227.5 Z"/></g>
<g><path style="opacity:1" fill="#e6152b" d="M 263.5,269.5 C 277.51,269.101 287.343,275.435 293,288.5C 294.713,296.067 293.047,302.734 288,308.5C 281.833,314.667 275.667,320.833 269.5,327C 260.206,334.326 250.873,334.326 241.5,327C 230.877,318.676 228.377,308.509 234,296.5C 243.13,286.528 252.964,277.528 263.5,269.5 Z"/></g>
<g><path style="opacity:1" fill="#fefbfc" d="M 267.5,283.5 C 275.317,283.156 279.484,286.823 280,294.5C 273.905,302.599 267.072,310.099 259.5,317C 253.956,319.781 249.456,318.614 246,313.5C 244.85,311.246 244.516,308.913 245,306.5C 252.032,298.302 259.532,290.635 267.5,283.5 Z"/></g>
<g><path style="opacity:1" fill="#fff7f5" d="M 447.5,325.5 C 455.033,325.529 458.533,329.196 458,336.5C 455.167,340.667 451.667,344.167 447.5,347C 439.667,347.833 436.167,344.333 437,336.5C 440.03,332.305 443.53,328.639 447.5,325.5 Z"/></g>
<g><path style="opacity:1" fill="#fff9f7" d="M 413.5,359.5 C 421.32,359.152 424.82,362.819 424,370.5C 420.201,375.301 416.034,379.801 411.5,384C 401.961,387.66 397.794,384.493 399,374.5C 403.364,368.97 408.198,363.97 413.5,359.5 Z"/></g>
<g><path style="opacity:1" fill="#fff9f7" d="M 374.5,398.5 C 383.33,397.162 386.83,400.829 385,409.5C 380.833,415 376,419.833 370.5,424C 362.667,424.833 359.167,421.333 360,413.5C 364.364,407.97 369.198,402.97 374.5,398.5 Z"/></g>
<g><path style="opacity:1" fill="#fff7f5" d="M 336.5,436.5 C 344.32,436.152 347.82,439.819 347,447.5C 344.167,451.667 340.667,455.167 336.5,458C 329.047,458.548 325.547,455.048 326,447.5C 329.03,443.305 332.53,439.639 336.5,436.5 Z"/></g>
</svg>
