<?xml version="1.0" encoding="UTF-8"?>
<!DOCTYPE svg PUBLIC "-//W3C//DTD SVG 1.0//EN" "http://www.w3.org/TR/2001/REC-SVG-20010904/DTD/svg10.dtd">
<!-- Creator: CorelDRAW 2018 (64-Bit) -->
<svg xmlns="http://www.w3.org/2000/svg" xml:space="preserve" width="181.644mm" height="46.2545mm" version="1.0" style="shape-rendering:geometricPrecision; text-rendering:geometricPrecision; image-rendering:optimizeQuality; fill-rule:evenodd; clip-rule:evenodd"
viewBox="0 0 15464.64 3937.97"
 xmlns:xlink="http://www.w3.org/1999/xlink">
 <defs>
  <style type="text/css">
   <![CDATA[
    .fil0 {fill:url(#id0)}
    .fil1 {fill:url(#id1)}
   ]]>
  </style>
  <linearGradient id="id0" gradientUnits="userSpaceOnUse" x1="4914.08" y1="1968.99" x2="15464.64" y2="1968.99">
   <stop offset="0" style="stop-opacity:1; stop-color:#B42B20"/>
   <stop offset="1" style="stop-opacity:1; stop-color:#AE2320"/>
  </linearGradient>
  <linearGradient id="id1" gradientUnits="userSpaceOnUse" x1="2122.73" y1="1969.06" x2="3938.15" y2="1969.06">
   <stop offset="0" style="stop-opacity:1; stop-color:#F0801E"/>
   <stop offset="1" style="stop-opacity:1; stop-color:#AE2320"/>
  </linearGradient>
 </defs>
 <g id="Layer_x0020_1">
  <metadata id="CorelCorpID_0Corel-Layer"/>
  <g id="_2505981434832">
   <path class="fil0" d="M6585.94 2541.5c12.52,0 25.2,2.03 37.72,7.36 12.52,4.69 24.58,13.15 36.16,24.58l210.72 226.54c-92.21,118.98 -207.59,208.69 -346.61,268.96 -138.86,60.27 -303.56,90.65 -493.31,90.65 -174.08,0 -329.69,-29.9 -467.62,-89.07 -137.92,-59.18 -254.87,-141.05 -350.68,-245.32 -95.97,-104.26 -169.87,-228.1 -221.22,-371.19 -51.35,-143.71 -77.02,-298.86 -77.02,-467.16 0,-170.95 29.43,-327.67 88.13,-471.38 58.71,-143.09 141.05,-266.3 246.42,-370.72 105.36,-103.8 231.23,-184.58 377.92,-242.19 146.85,-57.61 308.73,-86.58 485.94,-86.58 85.95,0 167.19,7.82 243.28,23.01 76.09,15.2 146.85,36.17 212.92,62.93 66.07,26.78 126.81,59.18 182.38,96.44 55.58,37.26 104.9,78.59 147.79,124.31l-179.26 240.62c-11.58,14.71 -25.2,27.87 -40.86,39.92 -15.66,12.05 -37.72,18.31 -66.07,18.31 -18.94,0 -36.63,-4.22 -53.54,-12.52 -16.75,-8.45 -34.59,-18.95 -53.54,-31 -18.94,-12.06 -39.3,-25.21 -61.83,-39.3 -22.54,-14.09 -49.31,-27.24 -80.16,-39.3 -30.99,-12.05 -67.16,-22.08 -108.49,-30.37 -41.48,-8.45 -90.17,-12.53 -145.75,-12.53 -96.43,0 -184.57,16.75 -264.26,50.89 -79.69,34.12 -147.79,82.81 -204.93,146.22 -57.14,63.4 -101.76,140.43 -133.69,230.6 -31.93,90.18 -48.22,191.31 -48.22,303.56 0,117.42 16.29,221.84 48.22,312.95 31.93,91.27 75.46,167.82 130.57,230.14 55.11,62.46 118.99,110.05 192.4,142.61 73.43,32.56 152.01,48.69 235.92,48.69 48.22,0 92.21,-2.66 132.13,-7.36 39.77,-4.69 77.02,-12.52 111.15,-24.11 34.13,-11.58 66.54,-26.77 97.54,-45.09 31,-18.32 61.83,-40.87 93.31,-68.1 12.52,-10.49 26.15,-19.42 40.87,-26.15 14.71,-6.89 29.9,-10.02 45.56,-10.02l0.02 0.15zm8655.27 592.88c-46.19,0 -80.78,-6.27 -104.26,-18.95 -23.64,-12.52 -43.53,-38.82 -59.18,-78.59l-34.6 -89.7c-40.86,34.6 -80.15,64.98 -117.88,91.27 -37.73,26.15 -76.56,48.22 -116.94,66.54 -40.4,18.31 -83.29,31.93 -129.01,40.86 -45.56,8.92 -96.43,13.63 -152.01,13.63 -74.52,0 -142.15,-10.02 -202.9,-29.43 -60.74,-19.42 -112.24,-47.75 -154.68,-85.95 -42.43,-37.73 -75.46,-85.01 -98.63,-141.05 -23.01,-56.05 -34.6,-121.18 -34.6,-195.07 0,-57.61 14.71,-116.94 44,-178.32 29.43,-60.74 80.16,-116.32 152.48,-166.26 72.33,-50.26 169.87,-91.75 292.6,-125.87 122.74,-33.5 277.27,-50.26 464.04,-50.26l0 -69.67c0,-96.44 -19.42,-166.25 -58.71,-208.68 -39.3,-43.05 -95.34,-64.5 -167.82,-64.5 -57.61,0 -104.9,6.27 -141.52,18.95 -36.63,12.52 -69.2,26.77 -98.01,42.42 -28.8,15.66 -57.14,29.9 -84.38,42.43 -27.24,12.52 -59.8,18.94 -97.53,18.94 -33.5,0 -61.83,-8.45 -85.48,-24.58 -23.64,-16.29 -42.43,-36.16 -56.05,-60.27l-88.14 -152.49c98.64,-87.5 208.07,-152.64 328.14,-195.53 120.09,-42.43 248.46,-64.03 385.91,-64.03 98.64,0 187.71,16.29 266.93,48.22 79.22,31.93 146.22,76.56 201.33,133.7 55.11,57.14 97.06,125.24 126.34,203.99 29.43,78.59 43.99,164.69 43.99,258l0 1020.26 -223.4 0 -0.03 -0.03zm-559.99 -298.86c62.92,0 117.88,-10.96 165.16,-32.56 47.12,-21.45 94.88,-56.68 143.1,-105.37l0 -223.88c-97.54,0 -177.69,6.26 -240.62,18.94 -62.93,12.53 -112.72,28.34 -149.36,47.75 -36.63,18.94 -61.83,40.4 -76.09,64.5 -14.09,24.11 -21.45,50.88 -21.45,79.22 0,55.57 15.19,94.87 45.56,117.41 30.37,22.54 74.99,34.13 133.7,34.13l0 -0.16zm-1664.02 -1358.89c123.68,0 236.4,19.42 338.16,58.24 101.76,38.82 189.28,94.4 262.08,166.72 72.79,72.33 129.47,160.47 169.87,263.64 40.39,103.79 60.27,219.64 60.27,348.64 0,130.57 -19.88,247.51 -60.27,352.25 -40.4,104.27 -97.07,192.88 -169.87,265.83 -72.8,72.8 -160.47,129 -262.08,168.29 -101.76,39.3 -214.48,59.18 -338.16,59.18 -124.78,0 -237.97,-19.89 -340.19,-59.18 -102.23,-39.3 -190.37,-95.34 -264.27,-168.29 -73.9,-72.8 -131.04,-161.4 -171.43,-265.83 -40.4,-104.89 -60.75,-221.83 -60.75,-352.25 0,-129.01 20.52,-244.85 60.75,-348.64 40.39,-103.32 97.53,-191.3 171.43,-263.64 73.89,-72.33 162.03,-127.9 264.27,-166.72 102.22,-38.82 215.41,-58.24 340.19,-58.24zm0 1320.69c112.24,0 195.07,-39.3 247.98,-118.51 52.91,-79.21 79.22,-199.77 79.22,-361.8 0,-161.4 -26.15,-281.49 -79.22,-360.22 -52.91,-78.59 -135.73,-117.89 -247.98,-117.89 -115.38,0 -199.77,39.3 -253.15,117.89 -53.54,78.58 -80.15,198.66 -80.15,360.22 0,162.03 26.77,282.59 80.15,361.8 53.54,79.22 137.93,118.51 253.15,118.51zm-1078.97 -908.01c-14.71,17.85 -28.8,31.93 -42.43,42.43 -13.62,10.01 -33.02,15.19 -58.23,15.19 -24.11,0 -45.56,-5.8 -64.98,-17.38 -19.41,-11.58 -41.48,-24.11 -65.59,-38.2 -24.11,-14.09 -52.44,-27.24 -85.01,-38.82 -32.56,-11.59 -72.8,-17.38 -121.18,-17.38 -59.81,0 -111.15,10.97 -154.68,33.03 -43.53,22.08 -79.69,53.54 -108.02,94.41 -28.34,40.86 -49.32,91.26 -62.93,150.45 -13.63,59.8 -20.51,126.33 -20.51,200.86 0,156.71 30.37,276.8 90.65,361.18 60.27,83.91 143.09,125.87 249.08,125.87 56.67,0 101.76,-7.36 134.79,-21.45 33.03,-14.09 60.75,-29.9 83.91,-47.12 23.02,-17.22 44.63,-33.02 64.03,-47.74 19.42,-14.72 43.52,-22.08 72.8,-22.08 38.82,0 68.1,14.09 88.13,43.05l141.52 178.32c-50.25,56.67 -103.32,103.32 -158.9,138.39 -55.58,35.69 -112.25,64.03 -170.33,83.91 -58.24,19.89 -116.94,34.13 -175.66,41.96 -58.7,7.82 -115.85,11.58 -171.42,11.58 -99.58,0 -194.44,-18.94 -285.25,-56.68 -90.65,-37.72 -170.33,-92.83 -239.06,-164.69 -68.73,-71.86 -123.21,-160.47 -163.6,-265.36 -40.39,-104.89 -60.74,-224.34 -60.74,-359.14 0,-117.41 17.85,-227 52.91,-329.7 35.07,-102.22 87.04,-190.83 155.78,-265.82 68.73,-74.99 153.58,-134.17 254.87,-177.22 101.13,-43.05 218.08,-64.5 351.31,-64.5 127.9,0 240.15,20.51 336.59,61.83 96.44,40.87 183.49,101.13 261.13,180.35l-129 170.33 0.02 0.15zm-2274.26 -412.68c123.68,0 236.39,19.42 338.15,58.24 101.76,38.82 189.28,94.4 262.08,166.72 72.79,72.33 129.47,160.47 169.87,263.64 40.39,103.79 60.27,219.64 60.27,348.64 0,130.57 -19.88,247.51 -60.27,352.25 -40.4,104.27 -97.07,192.88 -169.87,265.83 -72.8,72.8 -160.47,129 -262.08,168.29 -101.76,39.3 -214.47,59.18 -338.15,59.18 -124.78,0 -237.97,-19.89 -340.19,-59.18 -102.23,-39.3 -190.37,-95.34 -264.27,-168.29 -73.9,-72.8 -131.04,-161.4 -171.43,-265.83 -40.4,-104.89 -60.75,-221.83 -60.75,-352.25 0,-129.01 20.52,-244.85 60.75,-348.64 40.39,-103.32 97.53,-191.3 171.43,-263.64 73.89,-72.33 162.03,-127.9 264.27,-166.72 102.22,-38.82 215.41,-58.24 340.19,-58.24zm0 1320.69c112.24,0 195.07,-39.3 247.97,-118.51 52.91,-79.21 79.22,-199.77 79.22,-361.8 0,-161.4 -26.15,-281.49 -79.22,-360.22 -52.9,-78.59 -135.73,-117.89 -247.97,-117.89 -115.38,0 -199.77,39.3 -253.15,117.89 -53.54,78.58 -80.15,198.66 -80.15,360.22 0,162.03 26.77,282.59 80.15,361.8 53.54,79.22 137.92,118.51 253.15,118.51zm-2551.07 337.07l0 -2356.15 487.52 0 0 868.25c58.7,-50.88 122.74,-91.74 191.3,-123.21 68.73,-31 150.45,-46.66 245.94,-46.66 89.08,0 168.3,15.66 237.03,46.66 68.73,31 126.34,73.9 173.47,129.01 47.12,55.1 82.81,120.55 106.92,196.62 24.11,76.09 36.16,158.9 36.16,247.97l0 1037.5 -487.51 0 0 -1036.55c0,-79.69 -18.32,-141.99 -55.11,-186.61 -36.63,-44.62 -90.65,-66.53 -162.03,-66.53 -53.54,0 -103.8,13.15 -150.92,39.3 -47.12,26.15 -92.21,61.37 -135.26,105.35l0 1145.05 -487.51 0 0 0.01z"/>
   <path class="fil1" d="M2122.73 669.12l156.4 274.28c176.6,354.29 300.58,734.55 267.08,1141.28 -3.12,38.35 2.2,72.96 -3.59,111.78 -27.55,185.51 -14.1,184.26 -62.63,406.57 -27.71,126.65 -65.12,235.92 -113.19,356.01 -37.1,92.83 -104.73,229.04 -154.83,314.36 -24.74,42.11 -82.19,120.23 -89.08,149.36l140.43 151.85c24.11,24.11 48.53,52.14 73.9,72.33 27.87,22.38 53.07,41.96 79.99,66.07 50.41,45.24 111.94,82.97 170.33,121.96 27.4,18.32 169.7,103.01 196.95,103.01 64.98,0 376.67,-217.3 455.73,-298.08 20.82,-21.28 27.87,-24.42 49.63,-42.58 81.09,-67.79 244.7,-279.92 302.3,-366.8 214.8,-323.6 345.99,-786.38 345.99,-1176.82 0,-312.95 -20.36,-487.5 -135.1,-772.43 -131.2,-325.48 -319.37,-614.79 -559.21,-863.71 -20.19,-20.99 -25.05,-33.19 -45.87,-54.17 -41.02,-41.33 -54.17,-46.66 -76.09,-108.49 -58.08,-163.6 -177.85,-243.13 -301.52,-254.71l-64.65 0c-115.23,10.8 -224.97,78.27 -281.65,189.59 -46.66,91.58 -26.61,101.6 -125.87,204.77 -15.66,16.12 -26.93,25.83 -42.58,41.96 -18.16,18.95 -20.98,27.55 -38.35,46.34 -21.45,23.01 -144.18,166.72 -144.18,186.61l-0.33 -0.32zm-853.69 722.97l192.25 0c-31.62,-59.65 -150.6,-269.42 -192.25,-299.95l0 299.95zm-423.01 0l192.26 0 0 -299.95c-23.33,17.06 -81.72,110.22 -103.17,142.94 -32.73,50.09 -61.69,105.2 -89.08,157.02l-0.01 0zm192.26 1599.83l0 -446.02 -253.78 0c8.45,36.01 31.62,90.17 46.18,122.9 17.85,39.92 40.24,79.69 61.06,115.85 24.42,42.27 111.47,183.79 146.54,207.28zm230.76 0c32.72,-21.92 118.51,-158.12 144.81,-201.33 33.66,-55.42 93.31,-177.22 109.12,-244.7l-253.78 0 0 446.02 -0.15 0.01zm0 -1138.3l338.47 0c-0.63,-31.79 -12.53,-86.27 -20.04,-118.51 -8.62,-37.26 -23.17,-77.19 -26.15,-112.25l-292.29 0 0 230.76 0.01 0zm-569.07 0l338.46 0 0 -230.76 -292.28 0c-2.97,35.06 -17.54,75.14 -26.15,112.24 -7.36,32.25 -19.26,86.58 -20.04,118.51l0.01 0.01zm569.07 461.36l315.3 0c5.79,-69.51 23.01,-126.18 23.01,-207.75l0 -23.01 -338.47 0 0 230.76 0.15 0zm-569.07 -207.59c0,81.41 17.22,138.24 23.01,207.75l315.3 0 0 -230.76 -338.47 0 0 23.01 0.15 0zm453.69 1307.54c-23.01,-15.49 -48.53,-39.61 -71.55,-59.17 -178.31,-150.13 -307.16,-289.01 -418,-512.56 -195.7,-394.52 -268.33,-876.08 -128.68,-1300.34 94.87,-288.21 245.01,-500.98 427.08,-726.57 22.38,-27.71 41.49,-44 61.53,-69.2 32.72,-40.87 87.98,-103.96 129.63,-131.83 110.21,73.74 384.03,440.7 451.19,564.07 62,113.81 116.16,214.63 161.4,346.29 21.61,63.1 40.7,129.48 53.39,200.39 67,375.1 -8.62,780.74 -171.12,1106.84 -98,196.79 -304.5,454.63 -494.87,581.91l-0.01 0.15zm-31.47 -3414.92l67.79 0c123.52,12.21 243.44,91.9 301.21,254.71 23.32,65.6 35.22,64.35 76.09,108.49 122.42,132.13 240.15,271 340.19,421.14 384.33,576.74 485.31,1103.4 333.76,1772.04 -38.98,171.9 -81.71,268.49 -145.91,423.16 -42.42,102.07 -140.57,269.28 -208.68,360.38 -16.59,22.23 -24.73,36.32 -42.42,57.61 -107.25,129.63 -191.31,227.63 -330.02,331.43 -78.59,58.7 -303.72,208.69 -360.39,208.69 -31.62,0 -215.73,-113.04 -249.23,-135.27 -41.64,-27.7 -72.64,-52.44 -111.15,-81.09l-153.11 -131.5c-50.72,-46.96 -184.88,-203.99 -221.68,-255.18 -122.59,-171.12 -124.78,-188.02 -210.88,-358.2 -42.43,-83.91 -72.8,-174.09 -104.89,-271.94 -89.86,-275.38 -102.86,-502.22 -102.86,-804.84 0,-219.81 74.52,-466.7 137.29,-624.04 108.18,-270.99 314.52,-599.76 518.19,-820.03l88.46 -96.12c103.48,-102.07 51.51,-124.78 142,-234.83 59.49,-72.33 145.75,-115.85 236.08,-124.61l0.16 -0.01z"/>
  </g>
 </g>
</svg>
