<svg id="outline" height="512" viewBox="0 0 512 512" width="512" xmlns="http://www.w3.org/2000/svg"><path d="m472 16h-432a24.0275 24.0275 0 0 0 -24 24v432a24.0275 24.0275 0 0 0 24 24h432a24.0275 24.0275 0 0 0 24-24v-432a24.0275 24.0275 0 0 0 -24-24zm-432 16h432a8.00917 8.00917 0 0 1 8 8v24h-448v-24a8.00917 8.00917 0 0 1 8-8zm432 448h-432a8.00917 8.00917 0 0 1 -8-8v-392h448v392a8.00917 8.00917 0 0 1 -8 8z"/><circle cx="48" cy="48" r="8"/><circle cx="72" cy="48" r="8"/><circle cx="96" cy="48" r="8"/><path d="m432 288a8.00008 8.00008 0 0 0 -8-8h-40v-16a8.00008 8.00008 0 0 0 -8-8h-40v-16a8.00008 8.00008 0 0 0 -8-8h-40v-24a8.00008 8.00008 0 0 0 -8-8h-40v-24a8.00008 8.00008 0 0 0 -8-8h-40v-24a8.00008 8.00008 0 0 0 -8-8h-40v-24a8.00008 8.00008 0 0 0 -8-8h-48a8.00008 8.00008 0 0 0 -8 8v208h-16v16h384v-16h-16zm-336-168h32v200h-32zm48 32h32v168h-32zm48 32h32v136h-32zm48 32h32v104h-32zm48 32h32v72h-32zm48 24h32v48h-32zm48 48v-24h32v24z"/><path d="m64 368h24v16h-24z"/><path d="m104 368h112v16h-112z"/><path d="m64 400h72v16h-72z"/><path d="m152 400h16v16h-16z"/><path d="m64 432h144v16h-144z"/><path d="m224 432h112v16h-112z"/><path d="m352 432h24v16h-24z"/><path d="m240 136a23.989 23.989 0 0 0 35.30176 21.165l30.59143 25.49267a23.992 23.992 0 0 0 33.40857 30.50733l39.57666 32.98047a8.00012 8.00012 0 0 0 5.12158 1.85453h32v-16h-29.10352l-36.78967-30.65771a23.992 23.992 0 0 0 -33.40857-30.50729l-30.59143-25.49267a23.993 23.993 0 0 0 -33.61694-30.39551l-31.49231-25.19389-9.99512 12.49414 30.79975 24.63993a23.86179 23.86179 0 0 0 -1.80219 9.113zm96 56a8 8 0 1 1 -8-8 8.00917 8.00917 0 0 1 8 8zm-64-56a8 8 0 1 1 -8-8 8.00917 8.00917 0 0 1 8 8z"/><path d="m432 232h16v16h-16z"/></svg>