<svg fill="none" height="64" viewBox="0 0 64 64" width="64" xmlns="http://www.w3.org/2000/svg"><g fill="rgb(0,0,0)"><path d="m58 18c0-5.5228-4.4772-10-10-10h-32c-5.5228 0-10 4.4772-10 10v27c0 5.5229 4.4772 10 10 10h9c1.1046 0 2 .8954 2 2s-.8954 2-2 2h-9c-7.73199 0-14-6.268-14-14v-27c0-7.732 6.26801-14 14-14h32c7.732 0 14 6.268 14 14v9.5c0 1.1046-.8954 2-2 2s-2-.8954-2-2z"/><path clip-rule="evenodd" d="m29 40c0-4.4838 3.7444-8 8.2143-8h16.5714c4.4699 0 8.2143 3.5162 8.2143 8v12c0 4.4838-3.7444 8-8.2143 8h-16.5714c-4.4699 0-8.2143-3.5161-8.2143-8zm19.6786-4h-6.3572v4h6.3572zm-10.3572 0v6c0 1.1046.8955 2 2 2h10.3572c1.1045 0 2-.8954 2-2v-6h1.1071c2.3942 0 4.2143 1.8564 4.2143 4v12c0 2.1436-1.8201 4-4.2143 4h-16.5714c-2.3942 0-4.2143-1.8564-4.2143-4v-12c0-2.1436 1.8201-4 4.2143-4z" fill-rule="evenodd"/><path d="m26.9832 20.7414c-.1428-1.0953-1.1464-1.8674-2.2417-1.7247-1.0953.1428-1.8675 1.1465-1.7247 2.2418l.1394 1.0693-5.742-5.742c-.7811-.7811-2.0474-.7811-2.8285 0-.781.781-.781 2.0474 0 2.8284l5.742 5.7419-1.0691-.1394c-1.0953-.1428-2.099.6294-2.2418 1.7247s.6293 2.099 1.7246 2.2418l6.8995.8995c.6157.0803 1.2337-.1299 1.6728-.569.439-.439.6492-1.0571.569-1.6727z"/></g></svg>