<svg id="Layer_1" enable-background="new 0 0 53 53" viewBox="0 0 53 53" xmlns="http://www.w3.org/2000/svg"><g><g><path d="m44.1786652 8.256587v25.3900146c-.0899658-.0199585-.1899414-.0199585-.2800293-.0199585h-2.5999756v-25.3700561c0-2.6799922-2.1700439-4.8499756-4.8499756-4.8499756h2.8800049c2.6800537.0000003 4.8499756 2.1699834 4.8499756 4.8499756z"/><path d="m44.1784782 34.1467552c-.0371094 0-.0742188-.0039063-.1113281-.0126953-.0351563-.0078125-.109375-.0078125-.1689453-.0078125h-2.5996094c-.2763672 0-.5-.2236328-.5-.5v-25.3701162c0-2.3984375-1.9511719-4.3496094-4.3496094-4.3496094-.2763672 0-.5-.2236328-.5-.5s.2236328-.5.5-.5h2.8798828c2.9501953 0 5.3496094 2.3994143 5.3496094 5.3496094v25.390625c0 .1523438-.0693359.2958984-.1884766.390625-.0888671.0712881-.1992187.109374-.3115234.109374zm-2.3798828-1.0205078h1.8798828v-24.8701162c0-2.3173828-1.8222656-4.2177734-4.109375-4.3427734 1.3496094.9716799 2.2294922 2.5566409 2.2294922 4.3427734z"/></g><g><path d="m34.2185173 50.0461693h-26.7900386c-2.9501953 0-5.3496094-2.4042969-5.3496094-5.359375v-31.75c0-.1328125.0527344-.2597656.1464844-.3535156l9.5400391-9.5302734c.09375-.09375.2207031-.1464844.3535156-.1464844h24.3300781c2.9501953 0 5.3496094 2.4003909 5.3496094 5.3505859v25.3691406c0 .2763672-.2236328.5-.5.5s-.5-.2236328-.5-.5v-25.3691397c0-2.3984375-1.9511719-4.3505859-4.3496094-4.3505859h-24.1230464l-9.2470703 9.2373047v31.5429688c0 2.4033203 1.9511719 4.359375 4.3496094 4.359375h26.7900391c.2763672 0 .5.2236328.5.5s-.2236338.499999-.500001.499999z"/></g><g><path d="m37.2985954 7.9035921h-13.4501953c-.2763672 0-.5-.2236328-.5-.5s.2236328-.5.5-.5h13.4501953c.2763672 0 .5.2236328.5.5s-.2236328.5-.5.5z"/></g><g><path d="m21.2722282 7.9035921h-5.25c-.2763662 0-.499999-.2236328-.499999-.5s.2236328-.5.499999-.5h5.25c.2763672 0 .5.2236328.5.5s-.2236328.5-.5.5z"/></g><g><path d="m37.2985954 11.5520296h-5.2763672c-.2763672 0-.5-.2236328-.5-.5s.2236328-.5.5-.5h5.2763672c.2763672 0 .5.2236328.5.5s-.2236328.5-.5.5z"/></g><g><path d="m29.6882439 11.5520296h-13.6660157c-.2763662 0-.499999-.2236328-.499999-.5s.2236328-.5.499999-.5h13.6660156c.2763672 0 .5.2236328.5.5s-.2236327.5-.4999999.5z"/></g><g><path d="m31.5222282 15.2004671h-5.9169922c-.2763672 0-.5-.2236328-.5-.5s.2236328-.5.5-.5h5.9169922c.2763672 0 .5.2236328.5.5s-.2236328.5-.5.5z"/></g><g><path d="m23.7722282 15.2004671h-7.75c-.2763662 0-.499999-.2236328-.499999-.5s.2236328-.5.499999-.5h7.75c.2763672 0 .5.2236328.5.5s-.2236328.5-.5.5z"/></g><g><path d="m9.7878542 13.4387484h-7.2089849c-.2021484 0-.3847656-.1220703-.4619141-.3085938s-.0341797-.4023438.1083984-.5449219l9.5361328-9.5361328c.1435547-.1435547.359375-.1845703.5449219-.1083984.1865234.0771484.3085938.2597656.3085938.4619141v7.2099609c.0000005 1.5585937-1.2685542 2.8261719-2.8271479 2.8261719zm-6.0019536-1h6.0019536c1.0078125 0 1.8271484-.8193359 1.8271484-1.8261719v-6.0029297z"/></g><g><path d="m19.0485954 46.0461693h-2.8603516c-.8105459 0-1.4697256-.6591797-1.4697256-1.4697266v-12.0097656c0-.8105469.6591797-1.4697266 1.4697256-1.4697266h2.8603516c.8164063 0 1.4804688.6591797 1.4804688 1.4697266v12.0097656c0 .8105469-.6640625 1.4697266-1.4804688 1.4697266zm-2.8603515-13.9492188c-.2636709 0-.4697256.2060547-.4697256.4697266v12.0097656c0 .2587891.2109375.4697266.4697256.4697266h2.8603516c.2607422 0 .4804688-.2148438.4804688-.4697266v-12.0097656c0-.2587891-.2158203-.4697266-.4804688-.4697266z"/></g><g><path d="m32.0153923 44.8469505c-.0146484-.0878906-.0263672-.171875-.0263672-.2705078v-16.2001953c0-.8105469.6591797-1.4697266 1.4697266-1.4697266h2.8701172c.8105469 0 1.4697266.6591797 1.4697266 1.4697266v5.25c0 .2763672-.2236328.5-.5.5s-.5-.2236328-.5-.5v-5.25c0-.2636719-.2060547-.4697266-.4697266-.4697266h-2.8701172c-.2587891 0-.4697266.2109375-.4697266.4697266v16.2001953c0 .0400391.0068359.0742188.0126953.1083984z"/></g><g><path d="m10.4187136 46.0461693h-2.8701177c-.8105469 0-1.4697266-.6591797-1.4697266-1.4697266v-8.5898437c0-.8164063.6591797-1.4804688 1.4697266-1.4804688h2.8701177c.8105469 0 1.4697266.6640625 1.4697266 1.4804688v8.5898438c-.0000001.8105468-.6591798 1.4697265-1.4697266 1.4697265zm-2.8701177-10.5400391c-.2587891 0-.4697266.2158203-.4697266.4804688v8.5898438c0 .2587891.2109375.4697266.4697266.4697266h2.8701177c.2548828 0 .4697266-.2148438.4697266-.4697266v-8.5898438c0-.2607422-.2148438-.4804688-.4697266-.4804688z"/></g><g><path d="m27.6882439 46.0461693h-2.859375c-.8164063 0-1.4804688-.6591797-1.4804688-1.4697266v-5.9296875c0-.8105469.6640625-1.4697266 1.4804688-1.4697266h2.859375c.8105469 0 1.4707031.6591797 1.4707031 1.4697266v5.9296875c0 .8105469-.6601563 1.4697266-1.4707031 1.4697266zm-2.859375-7.8691406c-.2607422 0-.4804688.2148438-.4804688.4697266v5.9296875c0 .2548828.2197266.4697266.4804688.4697266h2.859375c.2597656 0 .4707031-.2109375.4707031-.4697266v-5.9296875c0-.2587891-.2109375-.4697266-.4707031-.4697266z"/></g><g><path d="m26.0749626 31.0451927c-.4248047 0-.8320313-.1484375-1.1621094-.4248047l-6.8681641-5.7705078c-.2744141-.2304688-.6621094-.2558594-.9638672-.0605469l-7.8251944 5.0576172c-.2304688.1503906-.5410156.0830078-.6914063-.1484375-.1494141-.2324219-.0830078-.5419922.1484375-.6914063l7.8251944-5.0576172c.6748047-.4335938 1.5380859-.3798828 2.1494141.1347656l6.8691406 5.7705078c.1669922.140625.3789063.2080078.5976563.1865234.21875-.0205078.4150391-.125.5546875-.2949219l7.796875-9.5527344c.1767578-.2148438.4902344-.2441406.7041016-.0712891.2138672.1748047.2451172.4902344.0712891.7041016l-7.7978516 9.5527344c-.3095703.3789063-.7490234.6123047-1.2363281.6582031-.0576172.004883-.1152344.0078127-.171875.0078127z"/></g><g><path d="m35.018322 23.5364037c-.2675781 0-.4882813-.2109375-.5-.4794922l-.0839844-2.078125-2.078125.0849609c-.3007813.0039063-.5087891-.2050781-.5205078-.4794922-.0107422-.2763672.2041016-.5087891.4794922-.5205078l2.578125-.1054688c.1386719.0058594.2617188.0429688.359375.1328125s.1552734.2148438.1611328.3466797l.1044922 2.578125c.0107422.2763672-.2041016.5087891-.4794922.5205078-.0068359.0000001-.0136719.0000001-.0205078.0000001z"/></g><g><g><g><g><g><g><g><g><g><g><g><g><g><g><g><path d="m47.8585968 49.5966148h-2.2600098c1.5600586 0 2.75-1.3699951 2.5300293-2.9099731l-1.6899414-10.8699951c-.1899414-1.2600098-1.2600098-2.1900024-2.5400391-2.1900024h2.2700195c1.2700195 0 2.3500977.9299927 2.5300293 2.1900024l1.6999512 10.8699951c.209961 1.539978-.9799804 2.9099731-2.540039 2.9099731z"/><path d="m47.8581657 50.0969505h-2.2597656c-.2763672 0-.5-.2236328-.5-.5s.2236328-.5.5-.5c.5996094 0 1.1669922-.2578125 1.5566406-.7070313.3886719-.4472656.5625-1.0429688.4785156-1.6328125l-1.6894531-10.8632813c-.1542969-1.0253906-1.0146484-1.7675781-2.0458984-1.7675781-.2763672 0-.5-.2236328-.5-.5s.2236328-.5.5-.5h2.2705078c1.5107422 0 2.8115234 1.1259766 3.0253906 2.6191406l1.6982422 10.8642578c.1210938.8886719-.1435547 1.7744141-.7246094 2.4404297-.5810546.6650392-1.4228515 1.0468751-2.3095703 1.0468751zm-1.6875-15.9707031c.3955078.4355469.6679688.9902344.7617188 1.6162109l1.6904297 10.8671875c.1259766.8837891-.1337891 1.7685547-.7128906 2.4355469-.0146484.0175781-.0302734.0351563-.0458984.0517578.5957031-.0019531 1.1601563-.2587891 1.5498047-.7050781.3916016-.4482422.5693359-1.0449219.4892578-1.6376953l-1.6982422-10.8603516c-.1445313-1.0097656-1.0185548-1.7666015-2.0341798-1.7675781z"/></g></g></g></g></g></g></g></g></g></g></g></g></g><g><g><g><g><g><g><g><g><g><g><g><g><g><path d="m45.5984001 50.0969505h-10.859375c-.8896484 0-1.7324219-.3837891-2.3115234-1.0517578-.5791016-.6669922-.8388672-1.5517578-.7138672-2.4287109l1.7011719-10.8769531c.2001953-1.4853516 1.4960938-2.6132813 3.0136719-2.6132813h7.4697266c1.5302734 0 2.8066406 1.1005859 3.0341797 2.6162109l1.6904297 10.8671875c.1259766.8837891-.1337891 1.7685547-.7128906 2.4355469-.5791017.6679688-1.4218751 1.0517578-2.3115236 1.0517578zm-9.1699219-15.9707031c-1.0185547 0-1.8886719.7558594-2.0244141 1.7568359l-1.7011719 10.8808594c-.0830078.5830078.0908203 1.1787109.4794922 1.6259766.3896484.4492188.9570313.7070313 1.5566406.7070313h10.859375c.5996094 0 1.1669922-.2578125 1.5566406-.7070313.3886719-.4472656.5625-1.0429688.4785156-1.6328125l-1.6894531-10.8632813c-.1542969-1.0253906-1.0146484-1.7675781-2.0458984-1.7675781z"/></g></g></g></g></g></g></g></g></g></g></g></g></g><g><path d="m40.1628532 41.1526146c-.9335938 0-1.8125-.3652344-2.4765625-1.0292969s-1.0292969-1.5429688-1.0292969-2.4765625v-1.8027344c0-.2763672.2236328-.5.5-.5s.5.2236328.5.5v1.8027344c0 .6660156.2617188 1.2949219.7363281 1.7695313s1.1035156.7363281 1.7695313.7363281c1.3867188 0 2.5146484-1.1240234 2.5146484-2.5058594v-1.8027344c0-.2763672.2236328-.5.5-.5s.5.2236328.5.5v1.8027344c.0000001 1.9335938-1.5771484 3.5058594-3.5146484 3.5058594z"/></g></g></g></g></svg>