<svg xmlns="http://www.w3.org/2000/svg" xmlns:xlink="http://www.w3.org/1999/xlink" viewBox="0,0,256,256" width="128px" height="128px" fill-rule="nonzero"><g fill="#ffffff" fill-rule="nonzero" stroke="none" stroke-width="1" stroke-linecap="butt" stroke-linejoin="miter" stroke-miterlimit="10" stroke-dasharray="" stroke-dashoffset="0" font-family="none" font-weight="none" font-size="none" text-anchor="none" style="mix-blend-mode: normal"><g transform="scale(2,2)"><path d="M24,1c-7.2,0 -13,5.8 -13,13v77c0,1.7 1.3,3 3,3c1.7,0 3,-1.3 3,-3v-77c0,-3.9 3.1,-7 7,-7h79c-1.3,2 -2,4.4 -2,7v100c0,3.9 -3.1,7 -7,7c-3.9,0 -7,-3.1 -7,-7v-10c0,-1.7 -1.3,-3 -3,-3h-80c-1.7,0 -3,1.3 -3,3v10c0,7.2 5.8,13 13,13h80c7.2,0 13,-5.8 13,-13v-100c0,-3.9 3.1,-7 7,-7c3.9,0 7,3.1 7,7v7h-7c-1.7,0 -3,1.3 -3,3c0,1.7 1.3,3 3,3h10c1.7,0 3,-1.3 3,-3v-10c0,-7.2 -5.8,-13 -13,-13zM47,21c-1.7,0 -3,1.3 -3,3c0,1.7 1.3,3 3,3h24c1.7,0 3,-1.3 3,-3c0,-1.7 -1.3,-3 -3,-3zM34,51c-1.7,0 -3,1.3 -3,3c0,1.7 1.3,3 3,3h50c1.7,0 3,-1.3 3,-3c0,-1.7 -1.3,-3 -3,-3zM34.19922,66c-1.7,0 -3,1.3 -3,3c0,1.7 1.3,3 3,3h35c1.7,0 3,-1.3 3,-3c0,-1.7 -1.3,-3 -3,-3zM84,66c-1.65685,0 -3,1.34315 -3,3c0,1.65685 1.34315,3 3,3c1.65685,0 3,-1.34315 3,-3c0,-1.65685 -1.34315,-3 -3,-3zM7,107h74v7c0,2.6 0.8,5 2,7h-69c-3.9,0 -7,-3.1 -7,-7z"></path></g></g></svg>