<?xml version="1.0" encoding="UTF-8"?>
<!DOCTYPE svg PUBLIC "-//W3C//DTD SVG 1.1//EN" "http://www.w3.org/Graphics/SVG/1.1/DTD/svg11.dtd">
<svg xmlns="http://www.w3.org/2000/svg" version="1.1" width="512px" height="512px" style="shape-rendering:geometricPrecision; text-rendering:geometricPrecision; image-rendering:optimizeQuality; fill-rule:evenodd; clip-rule:evenodd" xmlns:xlink="http://www.w3.org/1999/xlink">
<g><path style="opacity:0.983" fill="#455a63" d="M 239.5,-0.5 C 250.167,-0.5 260.833,-0.5 271.5,-0.5C 330.303,9.13243 369.47,42.1324 389,98.5C 391.421,107.36 393.088,116.36 394,125.5C 394.5,154.831 394.667,184.165 394.5,213.5C 372.856,212.556 351.189,212.223 329.5,212.5C 329.667,184.498 329.5,156.498 329,128.5C 323.364,97.8643 305.864,77.3643 276.5,67C 239.943,58.9551 211.443,70.4551 191,101.5C 186.4,109.966 183.4,118.966 182,128.5C 181.5,156.498 181.333,184.498 181.5,212.5C 159.807,212.211 138.14,212.544 116.5,213.5C 116.333,184.165 116.5,154.831 117,125.5C 125.456,63.7176 159.289,23.2176 218.5,4C 225.59,2.26914 232.59,0.769143 239.5,-0.5 Z M 329.5,212.5 C 280.167,212.5 230.833,212.5 181.5,212.5C 181.333,184.498 181.5,156.498 182,128.5C 183.4,118.966 186.4,109.966 191,101.5C 211.443,70.4551 239.943,58.9551 276.5,67C 305.864,77.3643 323.364,97.8643 329,128.5C 329.5,156.498 329.667,184.498 329.5,212.5 Z"/></g>
<g><path style="opacity:0.995" fill="#fec007" d="M 181.5,212.5 C 230.833,212.5 280.167,212.5 329.5,212.5C 351.189,212.223 372.856,212.556 394.5,213.5C 418.982,219.816 433.148,235.483 437,260.5C 437.667,328.5 437.667,396.5 437,464.5C 432.293,489.369 417.793,505.036 393.5,511.5C 301.5,511.5 209.5,511.5 117.5,511.5C 93.2071,505.036 78.7071,489.369 74,464.5C 73.3333,396.5 73.3333,328.5 74,260.5C 77.8516,235.483 92.0183,219.816 116.5,213.5C 138.14,212.544 159.807,212.211 181.5,212.5 Z"/></g>
<g><path style="opacity:1" fill="#455a63" d="M 247.5,276.5 C 278.686,275.541 298.852,289.875 308,319.5C 310.967,344.897 301.634,364.23 280,377.5C 282.025,396.681 284.525,415.848 287.5,435C 287.671,442.021 284.337,446.021 277.5,447C 262.167,447.667 246.833,447.667 231.5,447C 226.112,444.908 223.445,440.908 223.5,435C 226.661,415.879 229.161,396.712 231,377.5C 207.861,363.106 198.861,342.44 204,315.5C 211.469,294.525 225.969,281.525 247.5,276.5 Z"/></g>
</svg>
