<svg id="Layer_1" viewBox="0 0 30 30" xmlns="http://www.w3.org/2000/svg" data-name="Layer 1"><path d="m27.037.893a2.653 2.653 0 0 0 -2.4.165l-1.804 1.042a.443.443 0 0 1 -.493 0l-1.359-.908a2.757 2.757 0 0 0 -3.135.053l-1.08.778a.889.889 0 0 1 -1.032 0l-1.08-.778a2.757 2.757 0 0 0 -3.135-.053l-1.359.908a.474.474 0 0 1 -.546-.037l-1.746-1a2.652 2.652 0 0 0 -2.406-.17c-1.25.565-2.579 1.907-2.579 3.282v5.388a.75.75 0 0 0 1.5 0v-5.388c0-.612.793-1.507 1.7-1.915a1.156 1.156 0 0 1 1.041.1l1.693.971a1.954 1.954 0 0 0 2.181.016l1.359-.908a1.26 1.26 0 0 1 1.425.024l1.08.777a2.376 2.376 0 0 0 2.784 0l1.08-.777a1.26 1.26 0 0 1 1.425-.024l1.358.908a1.93 1.93 0 0 0 2.129.017l1.747-1a1.146 1.146 0 0 1 1.04-.1c.9.408 1.7 1.3 1.7 1.915v6.753.008 12.9a3.254 3.254 0 0 1 -3.25 3.25h-6.301a.75.75 0 0 0 0 1.5h6.291a4.755 4.755 0 0 0 4.75-4.75v-12.894-.007-6.764c.002-1.375-1.327-2.717-2.578-3.282z"/><path d="m23.847 8.494h-14.981a.75.75 0 0 0 0 1.5h14.981a.75.75 0 0 0 0-1.5z"/><path d="m23.847 13.821h-7.611a.75.75 0 0 0 0 1.5h7.611a.75.75 0 0 0 0-1.5z"/><path d="m23.847 19.148h-4.611a.75.75 0 0 0 0 1.5h4.611a.75.75 0 0 0 0-1.5z"/><path d="m5.134 29.321h5.246a4.749 4.749 0 0 0 4.741-5.04l-.259-4.925a2.751 2.751 0 0 0 -2.747-2.606h-.48v-.032a3.878 3.878 0 0 0 -7.756 0v.032h-.479a2.75 2.75 0 0 0 -2.748 2.607l-.259 4.917a4.749 4.749 0 0 0 4.741 5.047zm.245-12.6a2.378 2.378 0 0 1 4.756 0v.032h-4.756zm-3.229 2.715a1.25 1.25 0 0 1 1.25-1.186h.481v.8a.75.75 0 0 0 1.5 0v-.8h4.756v.8a.75.75 0 0 0 1.5 0v-.8h.48a1.252 1.252 0 0 1 1.249 1.185l.259 4.932a3.249 3.249 0 0 1 -3.243 3.454h-5.248a3.25 3.25 0 0 1 -3.244-3.461z"/></svg>