<svg id="Layer_1" enable-background="new 0 0 512 512" viewBox="0 0 512 512" xmlns="http://www.w3.org/2000/svg"><path d="m427.85 165.63h-89.6v-81.15c0-16.54-13.45-29.99-29.99-29.99h-40.02v-.91c0-11.58-9.42-21-21-21h-11.54v-1.02c0-17.4-14.17-31.55-31.58-31.55h-13.42c-17.4 0-31.55 14.15-31.55 31.55v1.02h-11.54c-11.58 0-21 9.42-21 21v.91h-40.02c-16.54 0-29.99 13.45-29.99 29.99v334.18c0 16.54 13.45 29.99 29.99 29.99h118.23v35.8c0 15.19 12.36 27.55 27.55 27.55h195.48c15.19 0 27.55-12.36 27.55-27.55v-291.27c0-15.19-12.36-27.55-27.55-27.55zm-285.25-112.05c0-2.72 2.3-5.02 5.02-5.02h19.53c4.41 0 7.99-3.58 7.99-7.99v-9.01c0-8.58 6.98-15.56 15.56-15.56h13.41c8.6 0 15.59 6.98 15.59 15.56v9.01c0 4.41 3.58 7.99 7.99 7.99h19.53c2.72 0 5.02 2.3 5.02 5.02v23.75c0 2.78-2.25 5.05-5.02 5.05h-99.61c-2.77 0-5.02-2.26-5.02-5.05v-23.75zm-56.01 379.08c-7.72 0-14-6.28-14-14v-334.18c0-7.72 6.28-14 14-14h40.02v6.86c0 11.6 9.42 21.03 21 21.03h99.61c11.58 0 21-9.44 21-21.03v-6.86h40.02c7.72 0 14 6.28 14 14v81.16h-31.38c-4.6 0-8.77 1.72-12.12 5.01l-68.94 68.97c-3.27 3.27-5.01 7.45-5.01 12.09v180.96h-118.2zm192.53-239.76v47.03h-47.01zm160.3 291.54c0 6.38-5.19 11.57-11.57 11.57h-195.48c-6.38 0-11.57-5.19-11.57-11.57v-228.52h66.3c4.42 0 7.99-3.58 7.99-7.99v-66.3h132.75c6.38 0 11.57 5.19 11.57 11.57v291.24zm-335.48-341.77c0-4.41 3.58-7.99 7.99-7.99h160.53c4.42 0 7.99 3.58 7.99 7.99s-3.58 7.99-7.99 7.99h-160.53c-4.42 0-7.99-3.57-7.99-7.99zm0 61.4c0-4.42 3.58-7.99 7.99-7.99h95.27c4.42 0 7.99 3.58 7.99 7.99s-3.58 7.99-7.99 7.99h-95.27c-4.42 0-7.99-3.58-7.99-7.99zm81.89 61.43c0 4.42-3.58 7.99-7.99 7.99h-65.91c-4.42 0-7.99-3.58-7.99-7.99s3.58-7.99 7.99-7.99h65.91c4.41-.01 7.99 3.57 7.99 7.99zm0 61.42c0 4.42-3.58 7.99-7.99 7.99h-65.91c-4.42 0-7.99-3.58-7.99-7.99s3.58-7.99 7.99-7.99h65.91c4.41 0 7.99 3.58 7.99 7.99zm0 61.43c0 4.42-3.58 7.99-7.99 7.99h-65.91c-4.42 0-7.99-3.58-7.99-7.99s3.58-7.99 7.99-7.99h65.91c4.41 0 7.99 3.57 7.99 7.99zm144.28-37.13c-33.92 0-61.51 27.58-61.51 61.48 0 33.92 27.59 61.51 61.51 61.51 16.66 0 31.78-6.67 42.86-17.47.21-.17.41-.35.61-.55s.38-.4.55-.61c10.8-11.09 17.47-26.22 17.47-42.89 0-33.89-27.59-61.47-61.49-61.47zm37.3 87.5-18.01-18.03h25.49c-1.17 6.61-3.77 12.73-7.48 18.03zm7.48-34.01h-36.78v-36.78c18.68 3.32 33.45 18.09 36.78 36.78zm-90.3 7.99c0-22.36 16.23-40.99 37.53-44.78v43.82c0 .19.02.37.03.56-.11 2.22.68 4.43 2.31 6.06l31.65 31.68c-7.38 5.16-16.34 8.2-26 8.2-25.1-.02-45.52-20.44-45.52-45.54zm118.26-88.98c0 4.41-3.58 7.99-7.99 7.99h-129.49c-4.42 0-7.99-3.58-7.99-7.99s3.58-7.99 7.99-7.99h129.49c4.41 0 7.99 3.58 7.99 7.99zm0-38.01c0 4.41-3.58 7.99-7.99 7.99h-129.49c-4.42 0-7.99-3.58-7.99-7.99s3.58-7.99 7.99-7.99h129.49c4.41-.01 7.99 3.57 7.99 7.99z"/></svg>