<svg width="15" height="15" viewBox="0 0 28 28" fill="none" xmlns="http://www.w3.org/2000/svg">
<path d="M13.9912 22.7511C18.9746 22.7511 23.0879 18.6379 23.0879 13.6545C23.0879 9.29509 19.9326 5.60369 15.8105 4.75115V3.45915C15.8105 2.79119 15.3096 2.59783 14.7646 2.99333L11.7939 5.09392C11.3457 5.41912 11.3457 5.9113 11.7939 6.22771L14.7559 8.33708C15.3008 8.73259 15.8105 8.55681 15.8105 7.87126V6.60564C18.957 7.40544 21.2598 10.2443 21.2598 13.6545C21.2598 17.6886 18.0254 20.9318 13.9912 20.9318C9.95703 20.9318 6.71387 17.6886 6.72266 13.6545C6.73145 11.3078 7.83008 9.25994 9.55273 7.93279C9.96582 7.57244 10.0977 7.05388 9.78125 6.62322C9.49121 6.21013 8.91992 6.13982 8.44531 6.52654C6.30957 8.12615 4.90332 10.8156 4.90332 13.6545C4.90332 18.6379 9.0166 22.7511 13.9912 22.7511Z" fill="#1C1C1E"/>
</svg>
