<svg id="Layer_1" enable-background="new 0 0 66 66" height="512" viewBox="0 0 66 66" width="512" xmlns="http://www.w3.org/2000/svg"><g style="fill:none;stroke:#000;stroke-width:1.5;stroke-linecap:round;stroke-linejoin:round;stroke-miterlimit:10"><path d="m24.2 59.7h-16v-46.3h32.8v7.2"/><path d="m28.3 64.2h-21c-2 0-3.7-1.6-3.7-3.7v-48c0-2 1.7-3.7 3.7-3.7h6.3v4.5h22v-4.4h6.3c2.1 0 3.7 1.7 3.7 3.7v7.1"/><path d="m35.6 7.5v5.9h-22v-5.9c0-1.3 1-2.4 2.4-2.4h5.2c0 1.9 1.5 3.4 3.4 3.4s3.4-1.5 3.4-3.4h5.3c1.2 0 2.3 1.1 2.3 2.4z"/><circle cx="24.6" cy="5.1" r="3.4"/><g><path d="m40.7 64.2c-8.9-.3-15.8-3.1-15.8-12.2 0-5.7 8.2-14.8 13.3-21.4-1.2-2.8-2-4.9-2-6.7 0-5.2 2.9 0 6.5 0s6.5-5.1 6.5 0c0 1.8-.8 3.9-2 6.7 4.6 6 11.9 14.1 13.1 19.9"/><path d="m47.1 30.6c-3.4 1.6-6.4 1.7-8.9 0"/><g><ellipse cx="48.6" cy="51.4" rx="5.9" ry="2.2"/><path d="m54.5 51.4v10.6c0 1.2-2.7 2.2-5.9 2.2s-5.9-1-5.9-2.2v-10.6c0 1.2 2.6 2.2 5.9 2.2s5.9-1 5.9-2.2z"/><path d="m62.4 55c0 1.2-2.6 2.2-5.9 2.2-.7 0-1.3 0-1.9-.1v-4.1c.6-.1 1.3-.1 1.9-.1 3.2-.1 5.9.8 5.9 2.1z"/><path d="m62.4 55v7c0 1.2-2.7 2.2-5.9 2.2-1.5 0-2.9-.2-3.9-.6 1.2-.4 2-1 2-1.6v-5c.6.1 1.3.1 1.9.1 3.2.1 5.9-.9 5.9-2.1z"/><path d="m54.5 55c0 1.2-2.6 2.2-5.9 2.2s-5.9-1-5.9-2.2"/><path d="m54.5 58.5c0 1.2-2.6 2.2-5.9 2.2s-5.9-1-5.9-2.2"/><path d="m62.4 58.5c0 1.2-2.6 2.2-5.9 2.2-.6 0-1.2 0-1.8-.1"/></g></g><path d="m13.6 19.3h20.2"/><path d="m13.6 23.3h19.6"/><path d="m13.6 27.3h20.2"/><path d="m13.6 39h13.2"/><path d="m13.6 42.9h9.5"/></g></svg>